<?xml version="1.0" standalone="no"?>
<!DOCTYPE svg PUBLIC "-//W3C//DTD SVG 20010904//EN"
 "http://www.w3.org/TR/2001/REC-SVG-20010904/DTD/svg10.dtd">
<svg version="1.0" xmlns="http://www.w3.org/2000/svg"
 width="300.000000pt" height="300.000000pt" viewBox="0 0 300.000000 300.000000"
 preserveAspectRatio="xMidYMid meet">
<metadata>
Created by potrace 1.10, written by Peter Selinger 2001-2011
</metadata>
<g class="docs-svg-primary-fill" transform="translate(0.000000,300.000000) scale(0.050000,-0.050000)"
fill="#ffffff" stroke="none">
<path d="M238 5980 c-2 -11 -4 -31 -6 -45 -2 -14 -18 -24 -37 -22 -22 2 -35
-12 -35 -35 0 -42 95 -55 132 -18 14 14 36 -11 69 -79 27 -55 54 -100 59 -100
19 -2 18 118 -1 130 -11 6 -15 20 -8 30 6 10 -2 14 -17 8 -21 -8 -33 13 -44
75 -14 78 -16 82 -31 36 l-15 -50 -15 45 c-14 46 -47 62 -51 25z"/>
<path d="M660 5991 c0 -5 23 -33 50 -63 28 -30 50 -75 50 -101 0 -26 9 -47 20
-47 11 0 20 -18 20 -39 0 -29 -9 -36 -33 -27 -26 10 -31 5 -21 -22 8 -19 -1
-56 -18 -82 -17 -27 -26 -58 -19 -69 8 -12 -4 -21 -28 -21 -33 0 -41 13 -42
65 -1 60 -3 62 -20 19 -16 -40 4 -124 29 -124 48 0 130 49 114 68 -14 17 -8
25 23 27 24 2 51 -8 59 -21 11 -16 20 -10 28 21 30 107 40 31 18 -120 -104
-694 -96 -900 53 -1263 32 -76 57 -146 57 -157 0 -10 13 -47 29 -82 17 -35 52
-130 80 -213 l50 -150 -10 220 c-11 228 -37 516 -57 620 -7 33 -25 132 -40
220 -16 88 -40 219 -52 290 -20 107 -37 359 -48 705 -1 30 -9 55 -17 55 -9 0
-1 22 17 50 18 27 27 63 21 80 -7 16 -1 31 13 32 159 14 171 11 193 -38 12
-27 18 -53 13 -59 -5 -5 15 -31 44 -59 30 -27 44 -44 31 -38 -37 19 -53 -54
-18 -80 17 -12 31 -53 32 -90 0 -71 37 -138 76 -138 14 0 23 36 23 91 0 66 9
94 33 103 29 11 27 15 -10 29 -36 13 -43 31 -43 119 0 99 -2 102 -50 93 -34
-6 -50 0 -50 18 0 15 14 27 30 27 17 0 30 10 30 22 0 12 -13 17 -30 11 -16 -7
-30 -3 -30 7 0 10 -34 33 -75 51 -41 18 -91 41 -110 51 -53 28 -118 22 -158
-15 -33 -30 -37 -30 -49 0 -11 30 -208 52 -208 24z"/>
<path d="M4960 5984 c0 -40 140 -96 160 -64 11 17 17 39 13 50 -8 25 -173 39
-173 14z"/>
<path d="M5200 5970 c-21 -25 -21 -29 2 -20 50 18 151 -94 189 -209 31 -97 33
-158 22 -510 -15 -449 -21 -491 -75 -491 -27 0 -37 -13 -36 -45 2 -34 5 -36
12 -10 26 101 56 26 51 -130 -4 -145 -1 -158 19 -105 l24 60 12 -60 c7 -33 11
53 10 190 -1 138 10 354 25 480 46 387 5 678 -112 803 -80 84 -105 93 -143 47z"/>
<path d="M5780 5959 c0 -34 6 -37 40 -19 22 12 40 30 40 41 0 10 -18 19 -40
19 -27 0 -40 -13 -40 -41z"/>
<path d="M4431 5919 c-72 -19 -142 -43 -156 -55 -14 -11 -43 -23 -65 -27 -22
-4 -44 -12 -50 -19 -42 -50 -211 -158 -234 -149 -16 6 -23 2 -15 -10 7 -12
-38 -71 -99 -131 -62 -61 -112 -106 -112 -100 0 6 -21 -9 -46 -34 -26 -24 -43
-50 -40 -58 4 -8 -12 -24 -35 -37 -41 -22 -95 -64 -191 -153 -26 -24 -80 -59
-119 -78 -40 -19 -67 -44 -62 -58 6 -14 -1 -25 -14 -24 -62 1 -94 -8 -84 -25
7 -10 -15 -34 -48 -53 -32 -20 -54 -43 -49 -51 6 -9 -3 -12 -18 -6 -16 6 -44
-3 -61 -21 -18 -18 -33 -28 -33 -22 0 11 -55 -31 -110 -82 -14 -13 -32 -18
-41 -10 -8 8 -10 -2 -2 -22 7 -21 5 -31 -7 -24 -43 27 -353 -251 -329 -294 12
-20 9 -21 -11 -2 -30 28 -168 -104 -146 -140 7 -12 2 -14 -11 -6 -23 14 -62
-20 -181 -159 -26 -31 -49 -81 -50 -111 -1 -30 -8 -50 -15 -46 -8 5 -34 -26
-59 -67 -25 -41 -54 -81 -64 -87 -9 -7 -18 -20 -18 -30 -2 -35 -23 -79 -56
-118 -19 -22 -55 -94 -80 -160 -25 -66 -53 -138 -62 -160 -28 -68 -52 -178
-49 -220 7 -93 69 -113 73 -24 0 24 6 33 11 19 17 -41 47 -28 49 20 1 29 8 18
20 -30 9 -41 40 -128 67 -194 28 -65 45 -135 39 -155 -8 -23 -6 -27 5 -12 13
16 28 5 52 -37 35 -60 -29 -72 -68 -12 -7 11 -23 14 -35 6 -12 -7 -22 -6 -22
3 0 26 -176 113 -270 134 l-60 13 75 -63 c66 -55 107 -120 55 -88 -11 7 -20 4
-20 -7 0 -11 11 -24 25 -30 15 -6 12 -10 -9 -11 -102 -5 -42 -56 144 -122 39
-14 97 -37 130 -51 34 -15 85 -31 114 -36 29 -5 73 -23 99 -39 71 -44 170 -58
170 -24 0 16 -7 24 -15 19 -8 -5 -21 -1 -28 11 -7 11 -35 20 -63 20 -27 0 -63
13 -78 28 -16 16 -46 24 -69 18 -22 -6 -40 -1 -40 12 0 12 -18 22 -41 22 -22
0 -46 14 -52 31 -7 19 -26 26 -49 18 -42 -13 -53 22 -13 38 20 8 20 10 0 11
-34 3 -32 42 3 42 15 0 37 -12 50 -28 12 -15 64 -39 114 -53 50 -14 97 -40
103 -57 19 -51 48 -61 169 -62 62 0 119 -9 126 -20 7 -12 23 -15 34 -7 13 8
16 4 8 -10 -8 -13 -5 -23 7 -23 11 0 21 -13 21 -30 0 -16 -9 -30 -20 -30 -60
0 -4 -38 105 -71 140 -42 558 -52 1225 -29 198 7 373 6 389 -2 46 -22 -177
-225 -484 -439 -112 -78 -123 -132 -35 -165 33 -13 60 -30 60 -40 0 -9 9 -11
20 -4 11 7 20 -6 20 -28 0 -22 9 -45 20 -52 11 -7 20 -3 20 9 0 11 9 21 20 21
11 0 20 -17 20 -37 0 -52 19 -65 63 -42 21 12 37 42 37 70 0 30 11 49 30 49
17 0 30 9 30 20 0 11 -8 20 -17 20 -26 0 -94 66 -109 106 -8 20 -6 31 4 25 9
-6 23 19 31 54 11 58 16 61 38 31 23 -30 28 -27 48 27 12 33 39 64 59 70 21 5
55 36 77 68 21 32 45 59 52 59 7 0 9 20 3 45 -8 36 -5 39 12 15 12 -16 16 -45
11 -64 -6 -19 4 -41 23 -52 53 -29 20 -91 -42 -79 -28 5 -50 2 -50 -8 0 -9 22
-17 49 -17 68 0 83 -36 33 -82 -54 -50 -53 -61 8 -114 28 -24 50 -54 50 -66 0
-16 8 -16 29 1 21 18 24 37 10 73 -14 37 -11 48 11 48 17 0 30 18 30 39 0 27
-10 36 -30 28 -22 -8 -30 3 -30 42 0 38 7 49 25 38 42 -26 99 -29 84 -5 -10
15 1 18 33 7 48 -15 28 32 -31 75 -11 8 -12 21 -3 30 10 9 21 5 26 -9 14 -38
58 -30 113 20 27 25 69 59 94 75 160 108 240 179 322 282 52 64 98 111 102
103 5 -8 6 -3 2 11 -4 14 17 61 45 103 28 43 48 94 45 114 -5 24 -34 -9 -92
-104 -134 -218 -155 -242 -193 -211 -21 18 -32 19 -32 4 0 -12 10 -22 21 -22
35 0 -52 -107 -116 -144 -33 -19 -66 -28 -74 -20 -8 7 -11 1 -8 -14 7 -27
-132 -140 -175 -141 -11 -1 -20 19 -20 44 2 36 -8 44 -47 40 -65 -8 -74 -20
-46 -64 19 -30 17 -40 -8 -49 -65 -25 -78 -12 -83 88 -2 56 5 100 16 100 36 0
21 60 -15 62 -162 8 -262 37 -133 39 l58 1 -68 36 c-64 34 -65 37 -23 48 25 6
39 21 32 33 -7 11 -4 21 8 21 19 0 29 -28 23 -66 -1 -9 29 -10 67 -3 46 9 90
2 133 -19 36 -18 81 -27 102 -21 40 13 50 49 13 49 -13 0 -17 6 -9 14 14 15
175 9 191 -7 6 -5 -2 -17 -17 -26 -31 -19 -16 -81 19 -81 12 0 17 19 11 45 -7
25 -6 34 0 20 6 -14 21 -25 34 -25 15 0 15 7 -2 24 -30 30 -31 109 -2 127 12
7 17 30 12 51 -8 30 1 38 41 38 27 0 67 19 88 43 20 24 37 36 37 26 0 -9 13 1
30 22 25 34 32 35 49 9 18 -26 20 -25 21 5 0 19 -11 35 -24 35 -13 0 -4 18 20
41 24 22 44 54 44 70 0 16 7 29 16 29 9 0 33 38 54 85 28 61 41 75 46 49 4
-21 -8 -54 -27 -75 -20 -22 -25 -39 -13 -39 12 0 27 -18 34 -40 7 -22 26 -40
42 -40 23 0 25 8 8 40 -29 54 -5 51 40 -5 34 -42 34 -46 3 -60 -21 -10 -14
-12 19 -6 59 12 179 -99 177 -163 0 -33 -3 -33 -30 3 -28 37 -29 36 -29 -18 0
-47 -5 -52 -30 -31 -19 15 -30 17 -30 4 0 -12 -16 -25 -35 -30 -19 -5 -15 -6
10 -4 25 2 45 -3 45 -13 0 -9 -44 -17 -98 -17 -91 0 -149 -40 -112 -76 5 -6
10 0 10 13 0 12 20 22 45 22 l45 -2 -45 -18 c-25 -10 -45 -28 -45 -41 0 -16
-8 -16 -30 2 -38 31 -44 -18 -7 -55 18 -18 15 -27 -15 -38 -21 -8 -46 -27 -55
-42 -14 -23 -22 -21 -45 9 -25 33 -27 33 -16 1 7 -19 3 -35 -9 -35 -12 0 -17
-13 -11 -28 8 -22 -6 -27 -61 -22 -62 6 -71 1 -71 -38 0 -24 -11 -55 -23 -67
-18 -18 -15 -27 15 -39 32 -13 29 -16 -22 -26 -54 -9 -90 -75 -45 -83 47 -7
215 28 215 45 0 11 16 18 35 15 49 -8 85 19 72 53 -6 17 3 35 21 42 18 7 32
24 32 38 0 14 14 31 32 38 18 7 27 25 21 41 -7 19 -1 25 18 18 22 -8 26 -2 16
24 -10 24 -6 31 10 21 51 -31 107 9 98 70 -4 32 0 58 9 58 10 0 15 16 12 35
-4 23 5 33 28 29 23 -3 36 12 42 50 l8 56 3 -54 c2 -30 -20 -115 -48 -190 -55
-145 -87 -253 -50 -170 11 26 33 59 49 75 16 16 33 40 38 54 6 18 20 14 48
-15 22 -22 78 -75 125 -117 l86 -78 -11 -126 c-7 -70 -21 -143 -31 -163 -11
-20 -30 -74 -44 -121 -14 -48 -38 -85 -53 -85 -16 0 -23 -8 -18 -18 14 -22
-45 -142 -69 -142 -11 0 -19 -18 -19 -40 0 -52 32 -52 46 0 11 44 66 54 79 15
5 -14 5 0 0 30 -6 41 0 55 24 55 18 0 38 14 44 31 9 22 18 24 38 9 18 -15 29
-16 38 -1 8 12 6 21 -3 21 -9 0 -3 9 13 19 41 26 61 8 62 -55 0 -52 1 -52 30
-15 40 54 36 93 -11 105 -22 6 -40 23 -40 38 0 16 -13 28 -28 28 -50 0 -55
103 -12 225 49 141 49 147 0 200 -22 23 -40 53 -40 65 0 13 -33 40 -73 61
-135 72 -161 129 -119 261 44 141 30 198 -70 284 -45 39 -73 77 -65 91 7 13 6
16 -3 8 -36 -33 -130 89 -130 168 0 114 -27 108 -121 -28 -48 -69 -93 -129
-100 -135 -7 -5 -23 -28 -35 -51 -50 -96 -764 -373 -764 -297 0 28 77 164 87
154 8 -7 25 15 38 50 19 51 32 61 64 52 33 -10 36 -7 17 13 -19 20 -7 33 58
65 45 23 86 57 91 76 5 19 27 39 49 45 22 6 34 20 27 32 -8 12 4 21 28 21 23
0 41 13 41 30 0 17 12 30 28 30 15 0 43 23 61 52 19 29 46 47 61 41 18 -7 24
-1 17 17 -7 18 8 29 46 34 35 3 57 18 57 36 0 31 74 80 122 80 16 0 28 12 28
27 0 17 24 26 70 25 75 -2 81 -44 27 -190 -34 -91 -2 -63 40 36 24 55 44 138
45 186 1 47 9 109 18 136 l16 50 2 -55 c1 -30 11 -55 21 -55 11 0 15 -13 8
-30 -6 -17 3 -35 21 -42 17 -7 27 -20 21 -30 -6 -10 7 -18 30 -18 22 0 40 -7
39 -15 -6 -39 4 -52 21 -26 10 16 55 31 105 33 47 2 98 5 112 6 15 1 21 11 14
22 -16 26 16 37 140 45 142 10 190 41 190 124 0 37 -11 72 -25 78 -20 8 -20
10 0 11 42 3 28 42 -15 42 -22 0 -40 -9 -40 -20 0 -11 -12 -20 -28 -20 -15 0
-39 -14 -53 -32 -20 -23 -55 -30 -141 -25 -63 4 -113 2 -111 -3 1 -6 -6 -12
-17 -15 -11 -2 -19 18 -18 47 2 36 -4 44 -19 29 -11 -11 -30 -21 -42 -21 -12
0 -8 9 8 19 24 15 20 29 -20 88 -26 38 -55 65 -64 60 -9 -6 -7 -22 5 -37 13
-16 15 -31 3 -38 -18 -11 -53 43 -46 73 2 8 -6 15 -17 15 -11 0 -20 -9 -20
-20 0 -11 -16 -21 -35 -21 -29 -1 -27 -6 9 -23 81 -39 109 -176 35 -176 -70 0
-153 370 -92 408 13 8 23 45 23 82 0 37 14 81 30 97 17 17 30 64 30 106 0 81
-36 57 -66 -43 -67 -228 -74 -280 -77 -540 -1 -154 -7 -263 -12 -242 -17 69
-49 87 -124 69 -39 -9 -111 -17 -161 -17 -87 -1 -89 -2 -40 -29 27 -15 58 -23
67 -16 10 6 14 -2 9 -17 -5 -15 -35 -31 -68 -35 -32 -3 -70 -17 -85 -29 -41
-33 -163 -72 -163 -52 0 10 -9 18 -20 18 -11 0 -20 -36 -20 -80 0 -91 -33
-109 -46 -25 l-8 55 -3 -55 c-2 -30 -11 -55 -21 -55 -10 0 -24 -32 -31 -71 -7
-38 -21 -65 -30 -59 -10 5 -22 -1 -28 -15 -6 -14 -6 7 -1 45 l10 70 -42 -70
c-32 -55 -39 -59 -29 -20 7 28 24 68 38 90 13 22 26 102 28 178 3 138 23 218
23 94 0 -38 8 -59 20 -52 11 7 20 33 20 58 0 149 51 195 130 117 48 -47 52
-48 33 -11 -30 56 -23 166 10 166 31 0 92 84 71 99 -9 6 -10 38 -2 71 9 41 14
47 17 20 4 -40 4 -40 21 0 15 35 17 34 19 -15 1 -39 11 -55 36 -53 21 1 25 5
10 11 -28 11 -35 107 -8 107 9 0 14 47 11 105 -3 58 -1 85 5 60 16 -73 44 -51
58 47 10 62 20 83 31 65 12 -19 17 -11 18 27 0 29 -9 59 -20 66 -11 7 -20 34
-20 61 0 27 9 49 20 49 11 0 20 -15 20 -33 0 -19 4 -29 9 -24 17 16 -14 157
-32 145 -9 -6 -17 28 -17 76 0 47 -8 115 -18 150 -14 48 -12 70 10 87 20 17
28 18 28 1 0 -12 -9 -22 -19 -22 -11 0 -14 -14 -7 -32 11 -30 13 -30 30 0 10
18 27 32 38 32 11 0 14 -11 6 -25 -8 -14 -7 -18 2 -10 50 45 90 -69 43 -123
-46 -53 -57 -182 -17 -184 21 -1 24 -5 9 -11 -30 -12 -34 -67 -5 -67 11 0 20
-18 20 -40 0 -22 9 -40 20 -40 11 0 20 19 20 42 0 24 10 38 25 32 14 -4 23
-32 21 -61 -2 -29 5 -53 15 -53 11 0 20 11 20 25 1 14 9 7 18 -15 15 -37 18
-37 31 -5 17 43 59 47 43 5 -7 -16 -3 -30 8 -30 38 0 -7 155 -57 195 -22 17
-24 25 -6 25 17 0 15 9 -7 31 -28 29 -41 96 -32 164 1 14 -7 25 -18 25 -12 0
-21 -13 -21 -30 0 -16 -9 -30 -20 -30 -34 0 -22 59 19 94 39 33 39 33 -3 55
-61 30 -74 80 -18 66 29 -8 41 -4 36 12 -5 12 -19 21 -32 18 -32 -7 -27 29 7
42 15 6 33 0 38 -13 5 -13 11 -8 11 12 2 28 -8 34 -38 24 -31 -10 -37 -5 -27
19 6 18 -1 48 -17 67 -16 19 -30 55 -31 81 -2 26 -22 61 -45 77 -28 20 -38 42
-30 68 10 29 5 35 -21 25 -29 -11 -30 -7 -11 30 18 32 17 52 -2 83 -29 46 -48
51 -64 15 -10 -20 -14 -20 -24 0 -6 14 -19 21 -28 15 -10 -6 -24 0 -32 13 -9
14 -6 18 9 9 15 -10 23 4 23 41 0 52 -1 53 -28 16 -27 -37 -29 -37 -53 16 -14
30 -35 55 -47 56 -12 0 -6 9 13 21 33 19 32 24 -9 79 -31 43 -50 53 -68 37
-19 -15 -22 -11 -15 19 6 21 30 48 54 59 l43 21 -45 2 c-25 0 -45 -8 -45 -19
0 -11 -9 -20 -20 -20 -11 0 -19 7 -18 15 7 43 -5 63 -32 52 -19 -7 -30 1 -30
21 0 44 105 42 363 -9 230 -45 278 -77 316 -214 32 -112 50 -383 23 -345 -27
38 -28 18 -2 -50 32 -84 60 -38 60 99 0 165 -55 410 -104 464 -53 58 -454 136
-621 121 -128 -11 -158 14 -40 33 121 20 219 15 300 -15 97 -37 230 -56 214
-31 -6 11 -29 19 -51 19 -22 0 -73 14 -114 32 -130 56 -268 65 -413 27z m-16
-164 c23 -25 89 -121 147 -215 57 -93 157 -246 220 -340 118 -174 248 -417
232 -433 -5 -5 -61 27 -125 72 -142 99 -149 100 -128 6 29 -134 55 -591 42
-745 l-13 -150 -60 165 c-73 202 -83 205 -74 20 6 -121 -38 -464 -64 -489 -4
-4 -13 22 -22 58 l-15 66 -28 -100 c-47 -164 -69 -195 -60 -85 11 126 -16 121
-56 -10 -17 -58 -53 -131 -79 -163 l-48 -57 -14 82 c-15 90 38 293 72 272 10
-6 18 -2 18 10 0 11 -14 21 -31 21 -25 0 -26 8 -8 42 13 24 19 68 15 98 -6 42
-1 53 20 45 20 -8 26 0 18 27 -6 21 -17 74 -25 118 l-14 80 -27 -130 c-15 -71
-31 -188 -36 -260 -8 -125 -105 -381 -157 -413 -10 -6 -8 8 5 32 13 25 18 49
12 56 -6 6 -16 -2 -21 -17 -59 -166 -60 -166 -81 -13 -11 84 -50 137 -50 69 0
-95 -58 -101 -81 -9 -24 98 -50 121 -64 60 -6 -26 -13 -20 -25 22 -18 68 21
266 56 279 17 7 15 19 -8 42 -32 35 -136 -263 -107 -310 6 -10 20 -97 30 -193
10 -96 28 -251 38 -344 23 -191 -26 -314 -144 -363 -40 -17 -55 -37 -55 -75 1
-62 31 -118 53 -97 21 22 23 94 2 94 -9 0 -12 9 -4 21 8 14 22 13 41 -3 16
-13 35 -17 43 -10 8 8 2 21 -12 30 -20 12 -14 26 25 57 28 22 49 43 46 48 -2
5 11 -8 29 -27 40 -43 115 -52 80 -9 -13 15 -16 33 -9 41 8 7 -6 19 -30 25
-52 14 -57 38 -12 55 45 17 52 15 36 -11 -9 -15 -5 -18 11 -8 27 17 11 112
-23 134 -12 7 -23 59 -24 115 -1 56 -8 102 -15 102 -18 0 -33 242 -17 300 11
44 17 39 50 -55 33 -92 80 -148 67 -80 -3 14 3 48 13 75 16 45 20 39 40 -60
14 -66 16 -129 6 -158 -15 -41 -13 -44 12 -24 16 14 35 51 42 83 7 33 22 59
32 59 10 0 46 42 78 94 l60 94 0 -83 c0 -131 41 -123 133 28 18 29 19 21 7
-43 -110 -554 -252 -917 -367 -937 -331 -58 -932 -54 -1256 8 -56 10 -142 19
-191 19 -89 0 -379 53 -416 76 -11 7 -38 16 -60 19 -84 12 -245 332 -261 515
-11 136 70 432 99 358 12 -31 17 -32 33 -7 15 23 18 21 19 -13 0 -93 32 -64
72 65 l41 137 38 -156 37 -155 45 55 46 56 -17 -60 c-17 -65 -9 -110 20 -110
10 0 18 26 18 59 0 32 9 81 19 109 13 32 13 55 0 62 -10 7 -19 1 -19 -12 0
-14 -5 -19 -12 -13 -7 7 -1 45 12 86 l24 73 42 -82 c54 -107 74 -104 74 11 l0
94 45 -40 c73 -64 149 -87 281 -85 208 3 248 34 48 36 -97 1 -196 12 -220 24
-122 63 -194 200 -83 157 29 -10 96 -21 150 -23 55 -3 99 -14 99 -25 1 -90
220 -126 253 -41 17 45 45 36 59 -20 7 -27 21 -45 31 -38 73 45 -36 140 -167
145 -357 14 -478 52 -436 137 15 31 29 66 31 78 5 25 109 328 163 475 21 57
62 118 98 146 l62 47 91 -245 c50 -135 98 -261 105 -280 13 -31 0 -35 -123
-35 -75 0 -150 -9 -167 -20 -21 -13 24 -19 144 -20 l174 0 22 -85 c12 -47 27
-100 32 -117 7 -26 -2 -31 -42 -23 -27 5 -50 15 -50 22 0 7 -65 14 -145 15
-136 2 -141 0 -85 -24 33 -14 92 -27 130 -27 132 -2 220 -38 220 -89 0 -81 24
-172 42 -160 10 5 18 -20 18 -57 0 -85 18 -105 54 -60 26 32 27 31 16 -10 -7
-25 -8 -45 -2 -45 17 0 58 84 73 150 13 59 14 58 39 -36 25 -95 64 -116 77
-42 4 21 15 46 24 56 9 10 12 -1 6 -25 -9 -34 -3 -43 31 -43 23 0 42 8 42 19
0 10 12 30 26 45 15 14 36 43 48 64 20 37 22 37 35 -6 12 -35 20 -39 43 -21
32 28 38 68 7 48 -15 -9 -17 10 -8 59 19 104 -15 91 -100 -38 -86 -129 -100
-136 -82 -38 18 94 -19 74 -69 -37 l-36 -80 -25 117 c-14 65 -23 158 -21 207
2 50 -1 84 -8 77 -7 -7 -16 -62 -19 -123 -5 -77 -21 -131 -54 -177 l-47 -66
-11 130 c-9 116 -12 124 -28 70 -17 -56 -20 -52 -42 70 -13 72 -30 158 -38
193 -13 52 -9 65 22 73 33 9 32 11 -8 24 -31 10 -45 30 -45 64 0 64 -57 262
-80 276 -10 6 -13 -23 -8 -65 7 -49 -17 -4 -71 133 -44 115 -79 211 -76 213
19 15 244 186 329 250 120 91 126 93 126 41 0 -56 101 -429 122 -451 30 -32
21 24 -44 267 l-62 231 42 31 c152 108 320 251 545 465 216 204 380 330 439
334 6 1 30 -19 53 -44z m-1815 -1456 c-33 -82 -69 -165 -80 -184 -11 -19 -20
-45 -20 -58 0 -63 -88 -257 -117 -257 -24 0 -26 -5 -7 -24 26 -26 31 -118 10
-195 -12 -48 -14 -46 -46 29 l-33 80 -61 -158 -61 -157 -34 154 c-39 175 -68
179 -112 15 -25 -92 -26 -93 -38 -34 l-13 60 -22 -60 c-20 -51 -23 -54 -24
-15 -2 58 220 505 251 505 18 0 19 -17 6 -65 -24 -82 -24 -264 -1 -205 9 22
23 99 30 170 18 164 37 194 248 394 204 194 199 193 124 5z m-754 -732 c-10
-26 -5 -31 21 -21 18 7 33 4 33 -7 0 -10 -10 -19 -22 -19 -12 0 -17 -13 -11
-30 7 -16 4 -30 -6 -30 -10 0 -24 -27 -31 -60 -14 -64 -50 -83 -50 -27 0 19
-6 28 -12 21 -7 -6 -3 -40 9 -74 12 -36 13 -56 2 -50 -11 7 -19 -19 -19 -60 0
-43 -8 -67 -20 -60 -11 7 -20 1 -20 -12 0 -14 -6 -19 -13 -12 -7 7 -1 40 12
72 14 33 28 99 32 146 11 128 12 131 55 120 35 -9 39 -3 28 50 -7 34 -6 67 0
74 21 21 25 13 12 -21z m2094 -1207 c-24 -15 -19 -19 23 -20 42 0 51 -8 43
-38 -7 -27 -21 -34 -52 -26 -40 10 -41 11 -3 26 33 13 31 15 -15 17 -92 2 -88
55 4 59 27 1 27 -1 0 -18z m-1245 -16 c13 -9 -29 -15 -93 -15 -65 1 -108 8
-95 16 30 19 156 19 188 -1z m1140 -24 c-9 -53 -56 -91 -75 -60 -13 21 -23 22
-45 4 -31 -26 -55 -13 -55 30 0 19 16 23 55 14 51 -12 52 -11 17 16 -34 27
-32 29 35 28 52 -2 71 -10 68 -32z"/>
<path d="M4163 5427 c52 -55 88 -110 83 -127 -6 -20 -4 -22 8 -6 21 29 172
-190 157 -229 -6 -15 -2 -22 9 -15 11 7 20 -1 20 -17 0 -29 78 -135 79 -107 1
8 -12 47 -29 87 -16 39 -24 81 -17 92 7 12 4 16 -6 9 -26 -16 -93 100 -75 129
8 14 5 18 -7 10 -35 -22 -74 42 -46 76 20 24 18 28 -16 22 -27 -6 -45 5 -53
30 -7 22 -26 39 -41 39 -16 0 -29 10 -29 21 0 12 9 16 20 9 11 -7 20 -3 20 7
0 11 19 26 42 33 22 8 37 18 31 23 -5 6 -37 -4 -70 -22 -74 -38 -90 -39 -71
-6 8 14 7 19 -1 11 -9 -8 -35 -5 -59 7 -23 12 0 -22 51 -76z"/>
<path d="M4220 5128 c0 -8 23 -73 52 -145 86 -215 148 -496 160 -722 13 -253
24 -323 46 -281 22 43 -12 481 -49 637 -54 225 -209 604 -209 511z"/>
<path d="M3457 4871 c-7 -7 1 -55 17 -107 55 -178 88 -394 84 -549 -2 -85 4
-155 14 -155 33 0 25 355 -12 526 -40 184 -84 304 -103 285z"/>
<path d="M3893 4718 c-18 -21 -26 -38 -18 -39 30 -1 -121 -59 -155 -59 -21 0
-39 -19 -44 -47 l-9 -47 99 38 c84 32 362 100 364 90 1 -2 13 -35 27 -74 43
-112 61 -220 62 -365 1 -76 10 -135 21 -135 11 0 20 52 20 117 0 158 -23 364
-39 354 -7 -5 -9 23 -5 60 6 49 0 69 -19 69 -22 1 -22 4 1 18 16 10 43 14 60
9 24 -8 24 -5 -3 13 -19 12 -44 17 -55 10 -11 -7 -20 -3 -20 10 0 15 -11 15
-41 0 -22 -12 -35 -31 -28 -41 15 -25 -18 -24 -43 1 -48 48 -142 57 -175 18z"/>
<path d="M3342 4496 c-3 -54 -117 -102 -141 -59 -15 26 -24 28 -44 8 -20 -20
-19 -25 4 -26 21 0 19 -8 -10 -29 -62 -47 -23 -55 92 -18 123 40 207 88 153
88 -18 0 -37 16 -42 35 -8 31 -10 31 -12 1z"/>
<path d="M3827 4230 c2 -282 10 -329 60 -330 25 0 -5 468 -35 556 -23 66 -26
42 -25 -226z"/>
<path d="M3954 4335 c9 -58 15 -237 15 -398 -1 -225 4 -291 23 -283 27 10 25
596 -3 721 -23 107 -52 75 -35 -40z"/>
<path d="M2821 4325 c-1 -49 -43 -53 -65 -5 -12 27 -26 -37 -18 -85 4 -25 -34
-17 -43 9 -6 19 -11 19 -23 0 -8 -13 -5 -24 7 -24 11 0 21 -9 21 -20 0 -11
-18 -20 -40 -20 -30 0 -40 -13 -40 -55 -1 -45 -5 -49 -22 -25 -18 25 -20 23
-10 -8 7 -20 3 -49 -10 -64 -12 -15 -25 -73 -28 -129 -7 -131 31 -86 78 92 32
122 58 153 209 240 38 23 74 53 79 68 6 17 0 21 -15 12 -13 -9 -36 1 -52 22
-26 35 -28 35 -28 -8z"/>
<path d="M3524 3795 c-18 -98 -18 -130 2 -150 21 -20 26 -18 29 10 2 19 10 87
17 150 17 155 -19 148 -48 -10z"/>
<path d="M2470 3500 c7 -11 2 -20 -10 -20 -29 0 -18 -84 13 -94 13 -5 26 22
31 63 6 51 0 71 -19 71 -15 0 -22 -9 -15 -20z"/>
<path d="M2051 3359 c7 -12 -2 -33 -20 -46 -19 -13 -39 -62 -45 -109 -6 -46
-19 -84 -29 -84 -25 0 -21 -152 6 -243 13 -42 31 -77 41 -77 10 0 14 -7 10
-15 -20 -34 26 -113 51 -88 16 16 18 30 5 39 -44 31 -42 405 2 589 8 36 5 55
-11 55 -13 0 -17 -10 -10 -21z"/>
<path d="M3320 2702 c0 -18 142 -43 159 -28 6 4 -3 17 -20 27 -37 24 -139 25
-139 1z"/>
<path d="M494 5750 c-72 -221 -106 -825 -54 -960 29 -73 13 -279 -41 -556 -44
-223 -49 -338 -17 -398 19 -35 10 -53 -68 -129 -64 -64 -92 -80 -100 -60 -13
32 23 194 49 222 9 10 17 32 17 47 0 16 -24 2 -58 -34 -33 -36 -70 -58 -87
-51 -16 6 -40 -3 -55 -21 -31 -37 -10 -68 24 -34 37 37 87 32 56 -6 -20 -25
-19 -30 10 -30 23 0 30 -10 22 -31 -6 -18 -3 -48 8 -68 20 -39 -20 -95 -48
-66 -8 7 -9 1 -3 -16 6 -16 -16 -59 -49 -97 -57 -64 -82 -170 -44 -185 9 -4
44 -59 80 -121 l64 -115 -100 -43 c-55 -24 -100 -51 -100 -60 0 -24 13 -23 76
9 118 61 137 59 183 -16 24 -39 38 -80 31 -91 -7 -12 -5 -19 5 -15 19 5 125
-110 125 -136 0 -8 22 -45 50 -81 27 -36 50 -74 50 -85 0 -10 14 -24 30 -30
17 -7 30 -26 30 -44 0 -17 15 -47 33 -64 30 -31 31 -29 18 16 -12 40 -5 35 35
-21 27 -38 45 -79 41 -91 -5 -12 5 -48 22 -80 17 -33 31 -48 31 -34 0 14 9 25
19 25 11 0 14 -15 7 -33 -8 -22 -5 -29 9 -20 14 8 25 -7 29 -42 3 -30 16 -53
29 -51 13 3 28 -9 35 -26 8 -20 3 -25 -13 -16 -14 8 -2 -9 25 -37 265 -272
349 -352 363 -343 27 16 20 72 -8 63 -24 -8 -52 28 -94 120 -11 25 -32 45 -47
45 -32 0 -95 68 -133 145 -15 30 -44 72 -64 94 -20 22 -37 45 -37 51 0 6 -19
32 -42 56 -87 93 -80 119 9 30 51 -52 93 -88 93 -81 0 7 16 -5 37 -26 40 -44
68 -65 283 -215 150 -104 316 -208 474 -294 46 -26 80 -54 74 -63 -5 -9 2 -12
17 -6 15 6 79 -13 142 -40 63 -28 125 -51 139 -51 14 0 98 -30 187 -67 220
-91 541 -153 796 -153 57 0 113 -10 124 -21 26 -26 157 -18 157 9 0 22 -31 28
-240 51 -461 51 -557 70 -826 163 -87 31 -118 50 -100 62 16 11 7 13 -25 5
-47 -10 -257 52 -309 92 -11 8 -92 53 -180 100 -88 47 -193 111 -233 142 -40
31 -79 57 -87 57 -13 0 -232 164 -286 214 -14 14 -52 40 -85 60 -63 37 -81 73
-26 52 23 -9 29 -5 19 11 -9 15 -33 19 -57 12 -33 -11 -38 -7 -28 20 8 20 5
28 -8 20 -12 -7 -44 11 -73 39 -28 29 -59 52 -69 52 -9 0 -17 12 -17 27 0 14
-20 38 -45 52 -25 13 -85 79 -135 144 -49 66 -109 139 -131 163 -46 49 -149
206 -149 226 0 8 -27 57 -60 110 -32 54 -54 110 -48 126 6 15 1 34 -10 41 -13
8 -17 -1 -11 -23 7 -20 -6 -5 -28 34 -51 91 -32 129 161 324 121 122 146 139
153 106 4 -22 22 -57 40 -78 31 -36 31 -38 -2 -26 -30 11 -35 0 -35 -69 0 -64
6 -79 30 -70 16 7 30 3 30 -8 0 -10 -10 -19 -21 -19 -12 0 -3 -26 20 -58 22
-32 41 -68 41 -80 0 -12 9 -22 19 -22 10 0 5 33 -12 73 -16 40 -26 89 -21 109
6 21 0 35 -13 32 -12 -2 -24 19 -26 46 -3 28 0 35 6 15 5 -19 17 -35 25 -35
18 0 122 -156 122 -184 0 -11 -18 1 -39 27 -44 52 -53 26 -18 -51 13 -28 31
-46 40 -40 9 6 17 -4 17 -21 0 -17 8 -31 18 -31 10 0 27 -25 38 -55 26 -70
110 -165 146 -165 16 1 7 17 -22 39 -97 75 -27 58 121 -29 82 -49 163 -89 179
-89 17 -1 44 -10 60 -21 24 -15 19 -19 -20 -18 -27 1 -85 -4 -128 -10 -67 -11
-74 -9 -52 18 21 25 18 30 -16 30 -23 0 -56 15 -74 32 -17 18 -37 28 -43 22
-21 -21 123 -133 173 -134 34 0 42 -6 24 -17 -18 -12 17 -40 115 -91 78 -41
149 -69 159 -63 22 14 4 91 -21 91 -10 0 -12 23 -5 50 11 43 7 48 -25 36 -31
-11 -33 -9 -12 18 21 25 20 35 -5 56 -16 14 -30 57 -30 97 0 40 -7 96 -15 123
l-13 50 -14 -60 c-13 -59 -13 -59 -16 13 -1 41 -8 89 -15 109 -8 20 -6 30 6
22 13 -8 13 23 -1 87 -13 64 -26 90 -37 74 -11 -17 -16 -12 -13 15 2 22 -3 58
-12 80 -9 22 -33 85 -54 140 -20 55 -46 120 -57 145 -10 25 -27 65 -37 90 -10
25 -50 122 -89 215 -39 94 -73 193 -77 220 -4 28 -13 59 -19 70 -7 11 -23 58
-36 105 -12 47 -31 85 -42 85 -23 0 -22 6 -28 -180 -3 -87 -27 -226 -57 -331
-49 -168 -50 -187 -25 -280 15 -54 28 -88 29 -74 3 42 42 28 42 -15 0 -22 -9
-40 -20 -40 -11 0 -20 -9 -20 -19 0 -35 54 0 76 49 12 26 42 51 68 55 43 7 44
9 7 25 -25 11 -41 9 -46 -6 -22 -66 -65 -20 -60 64 3 48 12 84 20 79 8 -5 15
27 15 72 0 44 -9 81 -20 81 -11 0 -20 18 -20 40 0 27 13 40 40 40 49 0 54 59
5 62 -28 1 -29 3 -5 13 17 6 36 20 43 31 7 10 19 -9 26 -43 8 -35 24 -63 35
-63 11 0 16 -18 10 -40 -6 -22 -2 -35 8 -29 10 6 18 -1 18 -16 0 -16 23 -72
50 -127 31 -59 47 -116 40 -143 -7 -29 -2 -45 15 -45 36 -1 162 -408 146 -476
-8 -35 -6 -45 6 -27 12 18 22 -10 32 -88 8 -63 20 -129 26 -145 16 -42 -56
-22 -202 58 -122 66 -287 273 -264 332 5 14 -1 23 -13 21 -25 -5 -132 191
-196 361 -48 126 -50 246 -10 457 16 86 30 182 30 213 0 90 35 44 50 -66 8
-55 22 -105 32 -111 22 -14 23 -32 -12 202 -56 377 -76 954 -39 1142 39 195
29 259 -17 117z"/>
<path d="M2160 5612 c0 -48 57 -82 73 -42 7 20 1 41 -15 52 -40 25 -58 22 -58
-10z"/>
<path d="M1213 5307 c-23 -23 -14 -44 22 -53 26 -7 24 -10 -10 -12 -60 -3 -58
-42 2 -42 60 0 69 11 58 70 -9 48 -43 65 -72 37z"/>
<path d="M326 4922 c-6 -25 -22 -34 -48 -27 -21 5 -38 0 -38 -13 0 -12 14 -22
30 -22 17 0 30 -9 30 -20 0 -11 -13 -20 -30 -20 -20 0 -30 -19 -29 -55 1 -53
2 -53 20 -10 28 69 45 53 32 -30 -6 -41 -7 -64 -1 -50 9 19 19 17 42 -6 42
-43 58 -19 27 40 -16 30 -23 87 -17 150 10 101 1 134 -18 63z"/>
<path d="M2246 4830 c0 -66 4 -91 8 -55 5 36 5 90 0 120 -4 30 -8 1 -8 -65z"/>
<path d="M5160 4770 c0 -84 7 -110 30 -110 31 0 43 123 18 188 -25 66 -48 28
-48 -78z"/>
<path d="M5941 4651 c-13 -16 -36 -24 -51 -18 -31 12 -112 -27 -105 -50 6 -20
-69 -169 -95 -187 -26 -19 35 -128 67 -121 13 3 23 -4 23 -15 0 -11 -19 -20
-41 -20 -23 0 -36 -8 -30 -18 6 -10 28 -14 49 -8 37 9 97 -61 86 -100 -6 -21
78 -106 121 -121 58 -20 45 110 -21 211 -68 103 -114 240 -97 286 20 52 59 26
108 -70 l45 -88 0 174 c0 172 -12 202 -59 145z"/>
<path d="M1438 4631 c-5 -4 -33 -12 -63 -16 -92 -12 -89 -38 4 -31 48 3 92 17
96 31 8 24 -18 35 -37 16z"/>
<path d="M1380 4538 c-22 -16 -11 -18 45 -9 89 15 103 -20 15 -39 -74 -16 -99
-50 -36 -50 115 1 196 26 196 60 0 59 -154 85 -220 38z"/>
<path d="M5484 4415 c0 -58 10 -117 22 -132 12 -15 20 -62 17 -105 -4 -43 3
-78 14 -78 27 0 50 112 45 215 -3 53 4 85 18 85 12 0 17 9 10 20 -7 12 -20 16
-28 11 -9 -5 -26 12 -39 40 -36 79 -58 57 -59 -56z"/>
<path d="M1257 4433 c-13 -63 -1 -133 23 -133 9 0 12 17 6 38 -8 31 2 41 47
47 l57 9 -54 3 c-39 2 -55 15 -60 48 -6 40 -8 39 -19 -12z"/>
<path d="M1580 4419 c-26 -17 -23 -25 16 -58 25 -22 44 -46 42 -55 -2 -9 18
-27 44 -41 29 -15 36 -25 17 -25 -20 0 -32 -22 -35 -63 -5 -57 -2 -60 29 -35
18 15 39 24 45 18 7 -5 15 39 18 98 6 97 3 106 -25 83 -19 -16 -31 -18 -31 -4
0 11 15 29 33 40 35 19 30 21 -93 54 -16 5 -43 -1 -60 -12z"/>
<path d="M4973 4247 c-21 -22 -15 -167 7 -167 11 0 20 41 20 90 0 92 -3 100
-27 77z"/>
<path d="M1292 4208 c-16 -42 2 -68 49 -68 44 0 51 40 15 76 -32 32 -49 30
-64 -8z"/>
<path d="M1423 4018 c-14 -23 -16 -38 -3 -38 11 0 20 9 20 20 0 11 36 20 80
20 102 0 105 32 3 34 -54 1 -83 -9 -100 -36z"/>
<path d="M1618 3850 c-139 -215 -148 -244 -146 -480 1 -138 -6 -225 -20 -235
-15 -10 -13 -14 4 -15 67 0 83 48 114 340 20 185 35 252 74 315 64 106 39 177
-26 75z"/>
<path d="M5700 3650 c0 -33 11 -50 32 -50 21 0 28 11 20 32 -7 17 -12 40 -12
50 0 10 -9 18 -20 18 -11 0 -20 -22 -20 -50z"/>
<path d="M4689 3379 c-6 -10 -6 -28 1 -39 18 -30 70 -24 70 8 0 34 -54 58 -71
31z"/>
<path d="M1515 3025 c-39 -9 -49 -68 -10 -60 15 3 28 -21 31 -60 10 -97 44
-78 44 24 0 94 -10 109 -65 96z"/>
<path d="M140 2891 c0 -18 -12 -25 -30 -18 -16 6 -30 1 -30 -11 0 -12 -16 -22
-35 -22 -29 -1 -30 -4 -6 -19 18 -11 29 -58 32 -134 2 -65 14 -155 27 -202 23
-84 17 -125 -17 -125 -10 0 -12 19 -6 43 8 30 4 39 -12 29 -48 -30 43 -273 95
-256 18 6 22 0 13 -15 -15 -24 46 -161 71 -161 6 0 28 -36 48 -79 19 -44 42
-76 50 -71 7 5 34 -32 58 -81 25 -49 53 -89 62 -89 33 0 44 42 19 71 -14 17
-20 35 -14 40 5 6 28 -20 50 -57 22 -37 55 -94 75 -126 34 -57 34 -57 -3 -15
-20 23 -47 59 -58 78 -17 28 -26 31 -38 11 -10 -16 19 -57 82 -118 53 -51 94
-102 90 -114 -3 -11 0 -14 8 -6 21 21 74 -40 57 -67 -8 -13 -6 -18 6 -10 12 7
45 -10 75 -37 53 -50 131 -68 131 -30 0 11 -9 20 -21 20 -82 0 -390 450 -685
1000 -131 247 -139 289 -84 447 25 72 40 136 34 142 -20 21 -44 11 -44 -18z
m60 -603 c0 -20 -38 -5 -46 17 -4 14 -6 9 -3 -10 6 -43 -22 -46 -39 -4 -24 63
32 113 62 55 14 -28 26 -54 26 -58z m30 -73 c8 -25 13 -58 10 -75 -2 -16 3
-23 11 -15 19 18 108 -122 108 -171 1 -22 10 -31 24 -22 15 9 18 5 9 -9 -18
-30 -52 -11 -52 29 0 17 -9 25 -20 18 -11 -7 -20 7 -20 30 0 23 -18 61 -40 85
-22 23 -40 59 -40 79 0 20 -9 36 -20 36 -11 0 -20 14 -20 30 0 46 33 36 50
-15z"/>
<path d="M5266 2876 c1 -19 6 -30 11 -25 5 5 20 -1 34 -12 14 -11 37 -18 51
-15 14 3 27 -4 27 -17 1 -13 9 -31 19 -40 11 -10 12 -5 2 11 -13 22 -8 26 18
15 20 -7 41 -13 49 -13 7 0 0 -9 -16 -19 -33 -21 22 -101 70 -101 14 0 30 -13
36 -30 14 -35 50 -38 124 -10 44 17 49 26 29 50 -21 26 -16 28 35 18 98 -20
150 100 64 148 -32 19 -59 41 -59 50 0 9 -9 11 -19 5 -10 -7 -60 -2 -110 11
-70 17 -98 17 -120 -1 -18 -15 -47 -18 -75 -9 -87 30 -173 21 -170 -16z"/>
<path d="M1260 2570 c0 -40 7 -68 16 -62 9 5 13 -18 8 -52 -8 -54 -4 -61 30
-52 22 6 55 3 72 -7 24 -13 50 -2 98 43 l66 60 -88 -13 c-66 -10 -84 -7 -73
11 8 13 32 18 55 11 27 -9 36 -6 27 9 -7 12 -54 22 -104 22 -79 0 -88 4 -78
38 7 21 3 44 -8 51 -13 9 -21 -14 -21 -59z"/>
<path d="M321 2367 c0 -24 6 -47 14 -50 8 -4 46 -68 84 -143 38 -75 81 -146
95 -158 14 -11 26 -29 26 -39 0 -19 20 -47 83 -117 19 -20 29 -41 23 -47 -6
-6 4 -26 22 -43 17 -18 32 -27 32 -21 0 7 13 1 28 -13 20 -19 21 -30 5 -41
-15 -9 -10 -14 12 -15 19 0 35 -11 36 -25 1 -41 94 -135 134 -135 45 0 273
-210 257 -237 -18 -29 39 -65 79 -50 24 9 31 6 21 -10 -9 -15 2 -23 32 -23 25
0 60 -10 76 -22 23 -16 18 -18 -20 -8 -43 11 -40 6 18 -32 38 -26 103 -47 150
-49 117 -5 125 -8 94 -27 -19 -13 8 -25 90 -42 65 -14 126 -29 136 -35 10 -6
11 1 2 17 -9 15 6 8 33 -17 30 -27 73 -44 108 -42 58 2 58 3 -11 18 -81 19 17
10 160 -14 124 -21 680 -30 680 -11 0 10 -128 24 -285 31 -262 11 -542 54
-715 109 -453 144 -504 174 -819 476 -182 175 -206 208 -151 208 17 0 30 -14
30 -32 0 -21 11 -28 31 -20 17 6 26 4 20 -6 -6 -10 15 -21 47 -26 42 -6 55 -1
48 18 -6 14 -18 26 -28 26 -10 0 -35 16 -57 35 -100 91 -151 113 -129 57 14
-36 -16 -54 -53 -31 -24 15 -22 22 11 47 40 30 40 30 -4 62 -25 17 -95 92
-157 166 -62 74 -141 166 -176 205 -34 40 -74 89 -87 110 -23 38 -24 37 -25
-4z"/>
<path d="M4506 2295 c-1 -14 -4 -35 -8 -48 -5 -13 1 -24 12 -26 11 -1 23 21
26 48 4 28 -1 51 -11 51 -10 0 -19 -11 -19 -25z"/>
<path d="M1070 2166 c33 -32 89 -75 125 -96 36 -21 65 -49 65 -62 0 -30 51
-50 90 -35 22 8 27 2 18 -21 -10 -27 15 -44 39 -27 4 3 23 -8 43 -25 20 -16
59 -41 88 -55 l52 -25 -50 13 c-57 14 -51 4 17 -32 31 -16 43 -17 34 -3 -8 13
1 22 19 22 18 0 27 -9 20 -20 -7 -11 10 -20 40 -20 35 0 48 -8 38 -23 -10 -16
-4 -20 16 -12 21 8 30 1 29 -22 -2 -25 12 -32 56 -29 32 3 109 -17 170 -43 61
-26 135 -53 165 -59 29 -7 67 -26 84 -43 21 -21 73 -31 166 -33 99 -1 122 -6
86 -18 -37 -12 -25 -14 46 -10 52 3 101 -3 107 -13 6 -10 28 -14 48 -9 21 5
40 2 43 -7 3 -9 47 -20 96 -25 63 -5 92 -18 96 -41 7 -32 27 -41 79 -34 14 1
25 -11 25 -28 0 -40 67 -40 100 -1 19 22 19 30 1 30 -13 0 -18 8 -12 18 6 10
0 23 -14 29 -18 8 -15 17 10 33 87 55 39 74 -230 87 -423 21 -875 113 -955
193 -10 10 -85 40 -230 93 -44 16 -135 65 -202 109 -83 54 -134 74 -158 65
-24 -9 -32 -6 -23 8 8 12 -40 59 -112 109 -168 118 -196 132 -125 62z"/>
<path d="M2180 2163 c0 -29 79 -90 95 -73 8 8 4 19 -10 24 -14 5 -25 22 -25
38 0 15 -13 28 -30 28 -16 0 -30 -8 -30 -17z"/>
<path d="M5098 1943 c-231 -233 -304 -281 -668 -443 -55 -25 -146 -66 -202
-92 -56 -25 -209 -65 -340 -88 -131 -23 -247 -51 -257 -61 -30 -30 99 -22 309
20 105 20 193 34 196 31 10 -9 -446 -290 -471 -290 -12 0 -25 -7 -28 -16 -6
-14 -245 -136 -367 -187 -95 -40 -461 -160 -580 -190 -89 -22 -500 -30 -470
-9 17 12 47 22 68 22 21 0 34 5 28 10 -5 6 -76 1 -158 -10 -96 -13 -180 -13
-238 -1 l-90 19 120 -6 c66 -4 100 -3 75 2 -25 5 -45 17 -45 28 0 10 23 13 53
5 41 -10 49 -7 37 13 -11 17 -8 21 7 12 13 -8 18 -23 12 -33 -6 -11 26 -18 75
-17 82 3 83 4 26 19 -45 13 -36 15 37 7 67 -8 93 -4 84 10 -8 14 8 22 43 22
43 -1 49 -5 26 -20 -22 -14 -23 -19 -4 -20 15 0 20 -10 12 -23 -9 -14 -5 -18
9 -9 13 8 23 26 23 40 0 16 30 27 80 29 44 1 132 24 195 51 63 26 144 54 180
61 62 13 111 51 66 51 -12 0 -87 -17 -166 -38 -80 -21 -190 -45 -245 -53 -55
-9 -113 -18 -130 -22 -212 -44 -808 -37 -926 10 -87 35 -156 32 -103 -5 57
-40 269 -126 339 -138 33 -6 123 -24 200 -41 194 -42 953 -54 891 -14 -26 17
-26 20 0 27 237 70 534 177 713 256 46 21 100 32 120 26 23 -8 28 -6 12 6 -17
12 5 33 70 66 114 60 252 139 313 180 24 17 111 74 193 128 81 54 200 133 264
175 65 42 125 77 135 77 11 0 19 9 19 20 0 11 12 20 26 20 14 0 57 27 95 59
38 33 75 60 82 60 13 1 108 83 275 236 50 47 99 85 107 85 8 0 15 14 15 30 0
47 -22 34 -142 -87z"/>
<path d="M3275 2006 c-19 -5 -35 -22 -35 -39 0 -42 65 -25 71 18 3 19 4 34 2
33 -2 -2 -19 -7 -38 -12z"/>
<path d="M3080 1970 c0 -16 -9 -30 -20 -30 -11 0 -20 -13 -20 -30 0 -45 31
-36 68 19 40 61 40 71 2 71 -16 0 -30 -13 -30 -30z"/>
<path d="M3540 1948 c0 -42 -6 -48 -27 -31 -15 13 -33 17 -40 9 -23 -22 -14
-46 17 -46 17 0 30 -10 30 -22 0 -12 -13 -17 -30 -11 -38 15 -38 4 1 -35 68
-68 106 7 90 173 -4 42 -41 8 -41 -37z"/>
<path d="M2936 1913 c-31 -23 -30 -27 5 -49 31 -20 41 -17 58 14 32 59 -4 80
-63 35z"/>
<path d="M2854 1815 c-17 -49 26 -95 89 -95 48 0 59 7 49 32 -7 17 -12 35 -12
40 0 5 -19 -1 -42 -13 -51 -27 -73 -11 -38 31 20 25 19 30 -6 30 -17 0 -35
-11 -40 -25z"/>
<path d="M1060 1649 c0 -19 47 -60 85 -74 46 -18 45 10 -2 52 -35 32 -83 45
-83 22z"/>
<path d="M992 1415 c40 -52 148 -144 148 -126 0 15 -157 171 -172 171 -5 0 6
-20 24 -45z"/>
<path d="M5669 1424 c-36 -26 -29 -64 11 -64 42 0 49 15 24 54 -8 13 -24 18
-35 10z"/>
<path d="M5820 1410 c0 -30 23 -39 79 -31 24 4 24 -1 3 -26 -27 -33 -12 -82
20 -62 10 6 14 20 7 30 -6 10 3 13 20 7 50 -19 36 25 -22 71 -62 48 -107 53
-107 11z"/>
<path d="M0 1351 c0 -48 13 -78 44 -100 39 -27 40 -31 9 -31 -33 0 -33 -3 -4
-32 30 -30 36 -30 72 3 46 41 51 26 11 -37 -16 -24 -34 -71 -40 -104 -6 -33
-29 -127 -51 -209 -58 -212 -50 -286 12 -111 27 77 52 151 55 164 2 14 10 31
18 39 8 7 14 39 14 70 0 32 9 57 19 57 11 0 15 14 8 30 -6 17 -2 30 8 30 26 0
68 -50 54 -64 -5 -6 3 -21 19 -35 16 -13 25 -37 19 -52 -7 -18 1 -29 21 -29
19 0 38 -13 45 -30 6 -16 19 -25 29 -19 10 6 12 -4 5 -22 -12 -31 -14 -31 -31
-1 -14 25 -27 28 -57 11 -51 -27 -50 -59 1 -59 24 0 41 -14 43 -35 2 -19 5
-44 8 -55 2 -11 6 -29 7 -40 1 -11 12 -6 24 10 15 22 17 13 7 -36 -8 -42 -3
-77 13 -96 18 -22 26 -112 27 -297 l1 -266 87 -2 88 -2 -14 65 c-7 35 -26 154
-41 264 -31 226 -109 562 -158 678 -18 43 -29 81 -25 86 13 12 73 -17 73 -36
0 -10 9 -18 20 -18 23 0 222 -151 320 -243 39 -36 75 -64 82 -63 21 6 162
-456 208 -679 6 -31 24 -55 41 -55 34 0 33 4 -43 292 -27 100 -70 236 -96 303
l-47 120 142 -86 c79 -48 192 -115 251 -150 60 -35 191 -148 291 -251 187
-194 219 -215 236 -151 7 26 -9 48 -53 73 -81 47 -171 133 -171 165 -1 14 -17
26 -36 27 -22 1 -25 5 -9 11 14 6 68 -11 120 -38 51 -27 128 -61 170 -74 50
-16 73 -34 66 -52 -6 -17 0 -23 19 -16 46 18 158 -34 125 -58 -19 -13 -16 -15
11 -7 48 16 254 -48 267 -82 12 -30 166 -36 166 -7 0 10 -52 33 -115 51 -63
18 -162 54 -221 81 -58 27 -108 49 -112 49 -48 0 -154 66 -130 81 22 14 18 18
-15 19 -98 0 -966 417 -1025 492 -21 26 -47 48 -59 48 -12 0 -82 46 -157 102
-75 56 -221 158 -326 227 -104 70 -217 154 -250 188 -77 79 -90 78 -90 -6z"/>
<path d="M4822 1292 c-15 -18 -14 -36 5 -62 31 -42 73 -25 73 29 0 46 -50 67
-78 33z"/>
<path d="M4622 1255 c-2 -40 -119 -50 -156 -13 -44 44 -106 -23 -106 -117 0
-47 9 -85 21 -85 12 0 19 35 16 79 -8 141 34 139 61 -1 10 -49 19 -77 20 -63
2 26 85 35 108 12 7 -7 4 -29 -7 -49 -15 -28 -10 -41 22 -59 24 -12 37 -34 31
-50 -5 -15 -2 -33 9 -40 11 -6 27 9 36 33 11 31 21 37 32 20 11 -18 22 -15 41
12 15 20 20 45 11 56 -27 35 -36 103 -19 135 12 21 8 35 -12 42 -17 7 -30 26
-30 42 0 37 -39 42 -42 6 -1 -14 -9 -2 -18 25 -11 33 -17 38 -18 15z"/>
<path d="M2161 1221 c-48 -30 57 -46 149 -22 l80 20 -75 -8 c-41 -5 -75 0 -75
10 0 24 -41 24 -79 0z"/>
<path d="M3027 1205 c55 -5 73 -15 66 -36 -6 -15 -3 -33 8 -40 10 -6 19 -29
19 -50 0 -30 14 -39 63 -39 55 0 67 -25 15 -32 -10 -2 -24 -4 -32 -5 -7 -2 3
-15 24 -31 38 -27 51 -26 152 11 47 17 74 77 35 77 -9 0 -18 20 -19 45 -2 33
-5 36 -12 11 -11 -44 -146 -45 -146 -2 0 16 -9 23 -19 16 -11 -6 -26 11 -33
39 -11 46 -21 51 -105 48 -90 -4 -90 -4 -16 -12z"/>
<path d="M2994 1062 c20 -76 63 -109 111 -87 45 22 45 22 -8 24 -29 0 -58 14
-64 30 -7 19 -1 25 18 18 16 -6 29 -2 29 9 0 10 -21 23 -47 28 -36 7 -45 2
-39 -22z"/>
<path d="M5783 1056 c17 -12 -32 -15 -140 -7 -155 11 -167 10 -177 -28 -6 -22
-19 -36 -28 -30 -10 6 -18 1 -18 -11 0 -13 -11 -16 -25 -7 -34 21 -95 24 -95
4 0 -10 -18 -17 -40 -17 -22 0 -40 -13 -40 -30 0 -16 -11 -30 -25 -30 -25 0
-44 -37 -91 -179 -25 -72 0 -117 45 -84 12 9 44 14 71 11 28 -2 61 5 75 16 18
15 30 6 44 -32 29 -76 46 -64 38 28 -7 66 -2 80 27 80 30 0 35 -16 31 -110 -3
-60 -12 -110 -20 -110 -8 0 -15 -17 -15 -39 0 -78 -225 -91 -416 -24 -69 24
-193 49 -275 56 -125 11 -217 47 -118 47 17 0 42 9 55 20 109 92 122 99 170
87 41 -10 48 -7 39 18 -8 19 0 37 20 44 36 14 66 -22 51 -62 -7 -17 5 -27 32
-27 23 0 42 10 42 21 0 12 -8 16 -19 10 -10 -7 -17 6 -16 27 2 28 17 38 52 35
57 -4 77 57 28 84 -34 20 -18 63 24 63 15 0 32 15 39 33 12 30 9 30 -37 0 -27
-18 -54 -24 -60 -14 -6 9 0 22 14 27 14 4 18 16 10 25 -16 16 -146 -68 -285
-186 -44 -37 -89 -74 -100 -82 -11 -8 -72 -57 -136 -109 -63 -52 -123 -94
-133 -94 -9 0 -163 -82 -340 -181 -300 -169 -501 -257 -586 -259 -19 0 -35 -9
-35 -20 0 -26 353 -27 369 -1 7 10 27 19 46 19 166 0 369 30 311 46 l-64 17
34 58 c22 39 38 51 48 35 12 -18 15 -18 16 1 0 14 18 25 40 25 44 0 54 31 15
47 -14 5 4 11 39 11 35 1 69 11 76 22 21 34 88 22 133 -23 l42 -42 -15 77
c-23 118 -22 133 5 143 14 5 25 -8 25 -31 0 -21 14 -50 30 -64 17 -14 30 -42
30 -62 0 -21 9 -38 20 -38 11 0 20 22 20 48 0 27 11 53 25 58 14 5 18 16 10
24 -8 9 -28 4 -45 -10 -25 -20 -30 -19 -30 5 0 35 41 55 112 55 31 0 48 -11
48 -32 0 -20 11 -28 29 -21 15 6 32 0 37 -13 6 -17 21 -12 50 13 47 42 84 29
84 -28 0 -22 9 -39 20 -39 11 0 20 9 20 21 0 13 12 14 36 1 22 -12 48 -12 69
1 22 12 48 11 73 -2 22 -12 52 -16 67 -10 55 21 109 -95 64 -139 -16 -16 -29
-34 -29 -41 0 -21 106 7 122 33 24 39 44 4 21 -37 -30 -57 -6 -147 39 -147 25
0 38 14 38 40 0 22 9 40 20 40 11 0 20 -18 20 -40 0 -37 13 -40 160 -40 167 0
194 15 110 60 -27 15 -50 43 -50 63 0 21 -9 37 -20 37 -11 0 -20 32 -20 72 0
55 -9 74 -40 82 -25 7 -40 27 -40 56 0 53 -59 175 -62 130 -2 -16 -2 -37 0
-45 1 -8 -5 -15 -13 -15 -28 0 -2 345 28 376 40 40 228 22 256 -25 12 -19 41
-58 66 -88 26 -31 45 -80 45 -117 0 -35 9 -69 20 -76 13 -8 20 69 20 215 0
248 -31 315 -145 315 -33 1 -38 5 -18 18 19 12 11 17 -27 17 -40 0 -47 -5 -27
-19z"/>
<path d="M4480 872 c0 -29 4 -52 8 -52 5 0 25 -6 45 -14 32 -12 33 -9 11 18
-14 18 -23 43 -20 56 3 14 -5 29 -19 34 -16 6 -25 -9 -25 -42z"/>
<path d="M740 730 c0 -55 50 -236 81 -295 11 -19 20 -50 20 -70 1 -19 27 -111
58 -205 56 -166 58 -169 80 -112 17 45 16 64 -6 90 -32 37 -83 238 -65 256 6
7 12 -4 12 -24 0 -20 5 -31 12 -25 6 7 5 41 -2 77 l-15 65 -28 -48 c-27 -49
-27 -49 -16 11 9 46 7 53 -9 30 -13 -18 -22 -20 -22 -7 0 41 24 87 40 77 9 -6
12 8 6 30 -6 22 -18 35 -27 29 -21 -12 -86 83 -73 105 5 9 -3 28 -18 42 -23
21 -28 17 -28 -26z"/>
<path d="M2330 519 c132 -21 250 -23 250 -4 0 8 -79 16 -175 18 -151 2 -161 0
-75 -14z"/>
<path d="M5280 509 c0 -22 -12 -28 -38 -20 -21 7 -44 3 -51 -8 -9 -13 17 -21
68 -21 68 0 81 7 81 40 0 22 -13 40 -30 40 -16 0 -30 -14 -30 -31z"/>
<path d="M2740 404 c-16 -8 -52 -29 -80 -48 -101 -69 -554 -154 -583 -110 -7
10 -24 12 -38 3 -40 -24 37 -48 114 -36 34 6 83 0 107 -13 36 -19 57 -17 111
12 62 34 70 34 103 3 37 -33 103 -18 80 18 -5 9 32 15 83 14 51 -2 73 0 48 6
-25 5 -40 18 -34 29 7 10 20 14 30 8 14 -10 139 101 139 123 0 11 -47 6 -80
-9z"/>
<path d="M4631 197 c8 -24 31 -62 51 -84 21 -22 38 -49 38 -60 0 -11 5 -15 10
-10 15 16 -31 137 -52 137 -10 0 -18 14 -18 30 0 17 -10 30 -21 30 -13 0 -16
-17 -8 -43z"/>
<path d="M25 106 c20 -5 35 -28 35 -55 0 -43 8 -46 152 -49 100 -2 147 3 138
17 -7 12 -28 21 -47 21 -19 0 -45 10 -58 23 -13 13 -50 22 -84 21 -33 -1 -65
7 -72 17 -6 11 -31 18 -55 17 -34 -2 -36 -5 -9 -12z"/>
</g>
</svg>
