<?xml version="1.0" standalone="no"?>
<!DOCTYPE svg PUBLIC "-//W3C//DTD SVG 20010904//EN"
 "http://www.w3.org/TR/2001/REC-SVG-20010904/DTD/svg10.dtd">
<svg version="1.0" xmlns="http://www.w3.org/2000/svg"
 width="300.000000pt" height="300.000000pt" viewBox="0 0 300.000000 300.000000"
 preserveAspectRatio="xMidYMid meet">
<metadata>
Created by potrace 1.10, written by Peter Selinger 2001-2011
</metadata>
<g class="docs-svg-primary-fill" transform="translate(0.000000,300.000000) scale(0.050000,-0.050000)"
fill="#ffffff" stroke="none">
<path d="M4960 5985 c0 -8 34 -44 75 -79 84 -72 60 -85 -70 -39 -334 121 -439
117 -725 -22 -166 -81 -320 -202 -618 -485 -225 -213 -270 -248 -486 -372 -21
-13 -40 -31 -42 -40 -2 -10 -11 -16 -19 -13 -8 3 -15 -3 -15 -12 0 -9 -31 -34
-70 -54 -38 -21 -70 -45 -70 -54 0 -8 -8 -13 -18 -10 -9 3 -45 -20 -80 -50
-34 -30 -62 -51 -62 -45 0 5 -16 -3 -35 -19 -19 -16 -75 -62 -125 -102 -406
-331 -618 -575 -693 -794 -6 -19 -20 -35 -29 -35 -10 0 -18 -11 -18 -25 0 -14
-30 -70 -67 -125 -100 -149 -201 -461 -174 -538 9 -24 36 -39 78 -42 36 -3 68
-9 70 -13 57 -79 111 -261 89 -296 -27 -44 -68 -58 -44 -16 10 19 8 19 -11 3
-18 -17 -44 -13 -102 15 -111 53 -149 51 -110 -8 29 -46 31 -87 6 -127 -27
-44 241 -186 415 -220 22 -4 64 -17 93 -29 74 -31 148 -18 144 26 -2 26 12 35
55 35 65 0 138 -61 138 -116 0 -102 92 -114 880 -115 402 0 741 -3 755 -5 59
-10 4 -86 -140 -196 -196 -150 -275 -248 -234 -289 21 -21 39 -52 39 -68 0
-16 12 -36 26 -45 26 -16 74 -154 74 -213 0 -18 -29 -46 -65 -61 l-65 -29 77
-1 c65 -2 74 -7 55 -30 -18 -22 -18 -31 2 -38 20 -8 20 -11 1 -12 -14 -1 -25
-18 -25 -37 0 -55 -294 -219 -329 -184 -10 10 -41 19 -67 19 -89 0 -323 168
-304 218 2 4 -9 15 -23 24 -18 12 -8 18 33 19 l60 2 -70 29 c-38 15 -87 34
-107 41 -27 9 -30 17 -11 28 19 12 20 23 4 42 -12 15 -25 50 -29 77 -7 47 -16
51 -167 66 -204 19 -545 74 -599 95 -23 9 -131 50 -241 91 -280 104 -563 251
-745 384 -85 63 -180 127 -210 143 -31 15 -83 51 -116 80 -33 28 -88 74 -124
101 -140 110 -319 301 -308 330 6 16 1 35 -11 42 -13 9 -17 5 -8 -9 8 -13 7
-23 -2 -23 -22 0 -133 178 -133 212 0 16 -7 28 -17 28 -9 0 -23 16 -31 35 -7
19 -25 48 -40 63 -17 17 -23 47 -15 78 10 42 8 47 -16 28 -43 -37 -108 118
-81 192 11 30 31 52 45 49 14 -4 20 3 13 13 -13 21 212 262 245 262 27 0 43
-70 22 -103 -68 -107 36 -286 376 -643 117 -123 230 -200 354 -242 91 -31 150
-28 98 5 -13 7 -24 50 -25 93 -5 229 -37 409 -123 690 -32 105 -58 200 -58
213 0 12 -11 27 -25 32 -14 6 -37 45 -53 87 -24 69 -52 138 -126 308 -53 123
-74 177 -106 283 -64 206 -111 205 -108 -3 0 -60 -18 -186 -42 -280 -71 -278
-71 -328 -10 -600 7 -27 -15 4 -47 70 -135 278 -145 350 -93 623 16 86 30 184
31 217 0 80 30 30 48 -85 8 -47 24 -91 35 -98 15 -9 16 18 6 85 -9 54 -18 130
-21 168 -3 39 -10 84 -16 100 -15 38 -55 849 -44 884 27 88 30 245 3 196 -51
-94 -77 -373 -62 -670 22 -446 18 -566 -29 -808 -39 -200 -44 -304 -18 -425 4
-19 -43 -87 -113 -161 -216 -230 -284 -350 -214 -379 21 -9 124 -196 124 -225
0 -13 -38 -38 -85 -55 -48 -17 -88 -46 -92 -65 -6 -33 -4 -33 45 -1 28 18 65
28 82 22 16 -7 30 -4 30 5 0 52 61 33 99 -30 50 -85 52 -102 8 -65 -31 25 -31
23 -6 -17 15 -25 33 -36 40 -24 14 23 77 -66 199 -282 47 -82 106 -172 131
-200 25 -27 52 -75 60 -105 7 -31 24 -62 37 -70 13 -8 46 -46 72 -85 48 -71
168 -206 305 -342 136 -136 64 -112 -191 63 -180 124 -199 141 -333 298 -61
71 -128 147 -150 170 -23 22 -56 64 -75 91 -25 37 -34 42 -35 17 -1 -46 193
-416 239 -457 7 -5 35 -50 64 -100 135 -233 599 -660 717 -660 10 0 19 -8 19
-17 0 -20 298 -123 357 -123 24 0 43 -7 43 -16 0 -41 326 -84 696 -92 213 -4
392 -14 399 -20 6 -7 3 -12 -7 -12 -10 -1 -85 -19 -168 -42 -285 -77 -1027
-120 -1215 -70 -119 31 -67 -17 80 -75 204 -80 658 -175 965 -201 296 -25 298
-27 152 -121 -201 -129 -664 -157 -791 -47 -10 9 -36 16 -58 16 -21 0 -93 26
-161 59 -67 32 -198 91 -292 131 -224 96 -399 194 -458 258 -27 29 -60 52 -73
52 -13 0 -81 43 -152 95 -201 147 -256 186 -410 288 -79 53 -156 111 -170 131
-99 133 -97 149 -97 -632 l0 -722 315 0 c173 0 305 7 293 15 -29 20 -44 87
-68 308 -17 159 -51 311 -158 709 l-17 63 133 -91 c197 -135 222 -162 222
-237 0 -36 17 -113 38 -171 21 -58 72 -216 113 -351 l76 -245 87 0 88 0 -14
73 c-7 40 -44 173 -82 295 -37 122 -70 236 -72 252 -2 17 -13 36 -23 44 -69
49 21 22 110 -33 60 -38 157 -96 215 -130 149 -88 228 -157 439 -387 l105
-114 1980 0 c1324 0 1980 7 1980 20 0 11 -9 36 -19 55 -72 128 -181 463 -181
556 0 205 173 275 349 141 92 -70 91 -71 91 78 0 124 -3 132 -55 153 -58 23
-443 36 -456 15 -5 -7 -51 -24 -103 -37 -53 -13 -129 -38 -170 -55 -49 -21
-107 -28 -169 -21 -52 6 -116 1 -144 -12 -38 -17 -52 -17 -58 2 -5 14 -16 20
-26 15 -9 -6 -54 42 -100 107 -46 65 -123 143 -173 174 -158 100 -177 141
-106 222 71 81 71 78 18 82 -54 4 -102 45 -90 77 5 13 -3 30 -19 36 -69 26 15
332 91 332 7 0 36 19 62 43 l48 43 -55 -14 c-70 -16 -69 2 5 104 51 71 69 82
129 80 56 -2 66 -8 49 -29 -13 -15 -32 -21 -43 -14 -12 7 -16 4 -9 -7 7 -11
-5 -39 -27 -63 -51 -54 -41 -54 61 -1 45 24 84 40 87 35 3 -4 16 -32 29 -62
24 -56 73 -68 149 -38 46 18 375 339 375 366 0 11 8 14 19 8 10 -7 28 4 40 24
17 27 19 17 9 -45 -8 -53 -6 -73 7 -60 25 25 85 205 85 254 0 20 10 36 22 36
12 0 17 14 11 30 -8 21 1 30 30 30 28 0 38 9 30 30 -8 20 1 30 28 30 21 0 39
9 39 20 0 29 -177 25 -209 -5 -23 -21 -21 -33 16 -75 l43 -50 -54 48 c-30 26
-49 57 -42 68 7 11 -4 32 -25 47 -24 18 -28 27 -9 27 51 0 -2 29 -56 30 -30 1
-52 12 -49 25 2 13 -8 19 -24 13 -17 -7 -40 11 -59 45 -23 43 -31 48 -31 20
-1 -20 -19 -60 -41 -88 -44 -55 -51 -38 -20 49 20 55 19 54 -41 -14 -155 -178
-200 -215 -340 -284 -177 -88 -422 -157 -489 -139 l-48 13 51 115 c29 63 60
109 70 103 9 -6 17 -1 17 11 0 18 80 116 135 165 221 198 605 480 605 444 0
-9 11 -5 24 8 36 36 156 31 156 -7 0 -17 9 -26 20 -19 11 7 20 34 20 61 0 35
11 49 39 49 22 0 44 18 52 43 9 29 18 35 28 18 17 -27 83 -22 105 9 9 12 23
11 39 -5 28 -28 97 -34 97 -8 0 10 77 24 171 31 249 21 229 -10 229 341 0 278
-3 308 -40 341 -42 38 -120 226 -120 290 0 92 84 60 132 -50 22 -51 27 68 27
765 l1 825 -520 0 c-286 0 -520 -7 -520 -15z m-514 -270 c37 -47 97 -136 132
-199 35 -63 102 -166 149 -230 131 -179 307 -498 287 -519 -5 -4 -61 28 -126
71 -144 97 -133 123 -98 -227 28 -279 22 -655 -9 -617 -8 9 -36 73 -62 142
l-49 127 -12 -197 c-6 -108 -23 -250 -38 -316 l-26 -120 -25 70 c-14 39 -27
58 -27 43 -1 -15 -18 -78 -37 -140 l-34 -113 -11 90 -11 90 -35 -100 c-20 -55
-57 -126 -83 -158 l-48 -59 -14 78 c-8 42 -6 111 5 153 29 108 18 95 -55 -64
-36 -77 -79 -151 -95 -165 -27 -22 -27 -19 -6 22 14 25 21 51 16 56 -5 5 -25
-30 -45 -77 l-36 -86 -18 105 c-20 118 -37 130 -74 50 -29 -61 -28 -61 -83 85
-20 53 -24 55 -37 21 -13 -35 -15 -36 -28 -3 -20 53 -16 170 8 214 12 22 19
58 15 81 -3 23 -28 -29 -57 -120 -28 -88 -44 -156 -36 -151 17 11 24 -30 67
-381 17 -142 35 -263 41 -268 15 -16 10 116 -11 297 -12 95 -13 196 -4 230
l17 59 37 -104 37 -104 34 75 34 74 17 -100 c10 -55 15 -116 13 -135 -7 -53
29 -42 43 14 7 27 34 73 61 102 27 29 61 80 75 112 l26 59 10 -92 c12 -111 36
-119 95 -31 56 83 56 59 3 -179 -105 -470 -221 -731 -332 -747 -352 -53 -1123
-54 -1206 -3 -8 5 -115 18 -238 29 -243 21 -496 86 -537 138 -78 98 -186 351
-196 457 -13 139 60 400 103 365 17 -14 27 -13 34 5 6 14 12 6 12 -19 3 -82
39 -47 72 70 17 63 35 124 38 135 3 11 23 -55 43 -146 43 -190 56 -187 134 24
23 65 47 106 52 90 37 -116 103 -130 103 -21 l0 70 45 -42 c65 -61 260 -96
385 -70 l100 20 -164 3 c-90 1 -184 10 -210 20 -129 50 -193 196 -71 161 36
-11 101 -19 146 -19 67 0 89 -10 126 -60 53 -72 138 -80 193 -20 47 52 67 50
90 -5 19 -45 20 -45 15 4 -7 67 -79 100 -221 101 -197 0 -394 40 -394 80 0 56
240 687 276 727 81 89 97 82 154 -72 30 -80 75 -201 102 -270 26 -69 48 -130
48 -135 0 -6 -51 -10 -113 -10 -63 0 -107 -7 -99 -15 8 -8 61 -14 118 -15 115
0 144 -32 168 -184 12 -69 10 -72 -36 -58 -26 8 -102 18 -168 23 -135 10 -74
-17 90 -40 126 -17 139 -30 154 -151 9 -77 17 -96 27 -68 14 37 -44 364 -72
410 -7 11 -2 33 12 49 13 16 15 29 5 29 -10 0 -30 57 -44 126 -27 136 -61 216
-62 144 0 -22 9 -71 20 -109 45 -158 0 -65 -80 164 -47 135 -89 254 -93 266
-8 22 414 349 451 349 12 0 22 7 22 17 0 9 25 29 55 44 83 42 267 198 537 453
368 348 411 369 514 241z m909 -1095 c3 0 5 -42 5 -94 0 -87 2 -91 29 -55 28
37 30 36 32 -21 3 -58 3 -58 17 -10 16 58 43 29 52 -56 3 -30 12 -84 20 -120
13 -57 10 -68 -27 -77 -24 -7 -43 -25 -43 -42 0 -24 -6 -25 -29 -6 -16 14 -39
19 -50 12 -13 -8 -21 11 -21 50 0 55 -4 60 -31 38 -37 -31 -48 -20 -117 111
-92 176 -43 327 95 288 34 -10 65 -18 68 -18z m-2730 -264 c-22 -47 -74 -185
-115 -306 -42 -121 -89 -230 -104 -243 -17 -14 -20 -28 -9 -35 11 -7 16 -28
12 -47 -4 -19 -13 -71 -20 -115 l-13 -80 -36 70 -36 70 -22 -50 c-12 -27 -39
-95 -60 -150 -41 -108 -44 -105 -82 76 -28 139 -58 140 -98 2 -29 -96 -30 -97
-43 -38 -12 58 -17 55 -46 -30 -6 -19 -10 -14 -11 14 -3 59 218 506 249 506
18 0 20 -20 7 -75 -9 -41 -16 -106 -15 -145 1 -47 10 -23 28 75 40 221 41 222
244 421 206 200 232 212 170 80z m2764 -748 c28 -114 -78 -113 -118 0 -15 41
-13 59 9 72 40 25 93 -10 109 -72z"/>
<path d="M4376 5164 c52 -87 97 -156 101 -152 12 10 -132 259 -165 286 -16 14
13 -47 64 -134z"/>
<path d="M4251 5070 c7 -22 34 -101 60 -176 67 -194 129 -492 131 -639 4 -184
33 -283 36 -121 5 257 -111 767 -210 926 -21 34 -27 38 -17 10z"/>
<path d="M3322 4930 c0 -11 20 -104 47 -207 49 -191 87 -275 62 -134 -16 89
-106 372 -109 341z"/>
<path d="M3460 4855 c0 -3 23 -95 50 -203 35 -136 51 -257 52 -390 2 -154 6
-176 19 -112 22 111 -10 413 -60 575 -34 109 -61 166 -61 130z"/>
<path d="M4223 4330 c-1 -77 6 -153 17 -170 24 -38 25 114 1 230 -15 73 -17
67 -18 -60z"/>
<path d="M3970 4024 c0 -216 7 -344 17 -318 20 52 18 491 -3 602 -8 45 -14
-76 -14 -284z"/>
<path d="M3678 3645 c-1 -8 -4 -35 -6 -59 -3 -25 2 -56 11 -70 11 -17 16 -8
17 27 0 30 5 68 12 85 7 18 2 32 -10 32 -12 0 -23 -7 -24 -15z"/>
<path d="M3362 3628 c-1 -12 -31 -62 -66 -110 -63 -87 -64 -87 -78 -38 -11 39
-14 41 -15 10 -1 -111 28 -123 89 -35 68 98 88 105 88 30 1 -79 33 -125 60
-85 11 17 19 39 19 50 0 11 -8 7 -18 -9 -14 -22 -21 -16 -32 30 -25 113 -45
179 -47 157z"/>
<path d="M3485 3533 c-14 -30 -17 -50 -7 -44 11 6 22 -12 26 -42 6 -51 7 -52
36 -17 17 21 19 31 6 23 -16 -9 -25 10 -30 61 l-6 75 -25 -56z"/>
<path d="M3790 2760 c-7 -22 -46 -63 -86 -90 -40 -28 -60 -50 -44 -50 17 1 49
16 71 35 53 45 116 145 91 145 -11 0 -25 -18 -32 -40z"/>
<path d="M905 5460 c-13 -38 -34 -136 -45 -217 -11 -81 -25 -155 -31 -164 -21
-34 -25 -375 -6 -509 26 -181 109 -438 226 -700 14 -33 43 -109 63 -170 34
-101 38 -105 45 -50 14 113 -40 700 -88 940 -43 221 -84 485 -124 810 l-16
130 -24 -70z"/>
<path d="M1564 3749 c-106 -178 -138 -327 -98 -462 52 -180 77 -118 124 311 7
60 26 134 42 166 69 134 14 121 -68 -15z"/>
<path d="M182 2952 c-13 -15 -46 -34 -73 -40 -27 -7 -49 -22 -49 -32 0 -11
-13 -20 -30 -20 -78 0 -40 -429 55 -619 47 -94 92 -174 100 -178 8 -3 15 -19
15 -35 0 -15 8 -28 18 -28 9 0 28 -27 42 -61 14 -33 43 -73 65 -88 24 -17 33
-38 24 -52 -9 -16 -7 -20 6 -12 12 8 28 -4 35 -26 6 -21 68 -96 137 -166 69
-70 132 -144 140 -163 8 -23 25 -32 45 -24 25 9 29 4 19 -22 -7 -19 -7 -29 0
-21 8 7 43 -9 78 -36 64 -49 145 -68 121 -29 -7 12 -21 15 -31 9 -11 -6 -19
-1 -19 11 0 13 -41 64 -91 114 -54 54 -87 103 -80 120 6 15 3 23 -7 17 -24
-15 -227 327 -214 360 6 15 0 23 -14 18 -36 -14 -96 106 -84 168 9 43 7 46 -7
13 -17 -37 -20 -36 -45 20 -15 33 -33 65 -40 70 -26 21 -66 111 -61 137 3 15
-4 21 -16 14 -19 -12 -29 18 -26 84 0 13 -6 21 -14 16 -62 -39 -64 190 -2 365
45 128 46 169 3 116z"/>
</g>
</svg>
