<?xml version="1.0" standalone="no"?>
<!DOCTYPE svg PUBLIC "-//W3C//DTD SVG 20010904//EN"
 "http://www.w3.org/TR/2001/REC-SVG-20010904/DTD/svg10.dtd">
<svg version="1.0" xmlns="http://www.w3.org/2000/svg"
 width="900.000000pt" height="900.000000pt" viewBox="0 0 900.000000 900.000000"
 preserveAspectRatio="xMidYMid meet">
<metadata>
Created by potrace 1.10, written by Peter Selinger 2001-2011
</metadata>
<g  class="docs-svg-primary-fill" transform="translate(0.000000,900.000000) scale(0.100000,-0.100000)"
fill="#ffffff" stroke="none">
<path d="M894 8978 c3 -13 6 -26 6 -30 0 -19 32 -5 40 18 14 35 14 34 -21 34
-28 0 -31 -3 -25 -22z"/>
<path d="M7436 8992 c-9 -14 12 -35 28 -29 23 9 20 37 -3 37 -11 0 -22 -4 -25
-8z"/>
<path d="M7830 8982 c0 -10 -5 -23 -11 -29 -9 -9 -2 -13 25 -18 20 -4 36 -11
36 -17 0 -10 121 -128 132 -128 13 0 36 -65 92 -255 24 -83 38 -314 31 -505
-9 -238 -31 -536 -41 -551 -4 -7 -8 -94 -10 -193 -1 -139 -7 -204 -23 -281
-11 -55 -25 -155 -31 -222 -21 -256 27 -239 60 22 6 44 15 95 21 112 6 18 12
124 14 235 3 112 9 230 14 263 6 33 15 107 21 165 5 58 15 146 21 195 16 136
6 651 -15 735 -27 107 -67 233 -84 269 -22 44 -84 111 -103 111 -22 0 -69 59
-69 86 0 21 -4 24 -40 24 -32 0 -40 -4 -40 -18z"/>
<path d="M8090 8886 c0 -8 5 -18 10 -21 6 -3 10 3 10 14 0 12 -4 21 -10 21 -5
0 -10 -6 -10 -14z"/>
<path d="M6695 8878 c-70 -24 -72 -25 -52 -33 27 -11 127 4 127 20 0 7 -7 16
-16 19 -18 7 -20 7 -59 -6z"/>
<path d="M6953 8883 c4 -3 26 -9 49 -13 24 -4 55 -11 71 -15 35 -9 37 12 1 25
-28 11 -131 14 -121 3z"/>
<path d="M7576 8866 c4 -10 19 -16 41 -16 47 0 38 24 -10 28 -30 3 -36 0 -31
-12z"/>
<path d="M7730 8805 c0 -8 7 -15 15 -15 8 0 15 4 15 9 0 5 -7 11 -15 15 -9 3
-15 0 -15 -9z"/>
<path d="M6440 8788 l-21 -23 35 -8 c20 -5 36 -12 36 -16 0 -14 -71 -32 -100
-26 -19 4 -30 3 -30 -4 0 -6 7 -11 16 -11 23 0 11 -24 -14 -28 -11 -2 -26 -10
-32 -18 -19 -22 -37 -17 -52 16 -15 35 -33 38 -50 10 -8 -12 -20 -18 -33 -15
-25 6 -40 -4 -50 -33 -7 -25 -10 -25 53 -7 12 3 22 13 22 21 0 8 10 14 25 14
39 0 34 -36 -7 -44 -31 -6 -44 -18 -201 -188 -34 -36 -67 -67 -74 -67 -7 -1
-17 -10 -23 -21 -6 -12 -21 -20 -36 -20 -15 0 -23 -4 -19 -11 10 -15 -148
-159 -174 -159 -5 0 -13 -9 -16 -21 -7 -22 -147 -163 -218 -219 -25 -19 -79
-66 -121 -104 -64 -57 -78 -66 -91 -56 -13 11 -14 8 -9 -19 7 -34 3 -37 -26
-19 -10 7 -23 9 -27 5 -4 -5 -1 -12 6 -16 11 -7 6 -16 -20 -40 -19 -17 -39
-31 -45 -31 -7 0 -15 -7 -18 -16 -4 -12 -13 -14 -31 -10 -21 5 -27 2 -35 -19
-5 -14 -16 -25 -24 -25 -9 0 -31 -13 -49 -30 -19 -16 -40 -30 -46 -30 -6 0
-11 -5 -11 -10 0 -6 -11 -15 -25 -20 -14 -5 -25 -14 -25 -20 0 -5 -10 -10 -22
-10 -13 0 -48 -22 -79 -48 -31 -26 -75 -58 -98 -72 -23 -14 -67 -49 -99 -78
-48 -45 -58 -51 -68 -37 -16 21 -27 19 -21 -5 3 -13 -4 -26 -27 -44 -17 -13
-40 -32 -51 -43 -11 -10 -36 -29 -57 -41 -20 -12 -39 -29 -42 -37 -3 -8 -21
-23 -41 -32 -19 -9 -35 -23 -35 -30 0 -7 -7 -13 -15 -13 -8 0 -22 -11 -31 -25
-9 -13 -25 -27 -36 -31 -22 -7 -92 -73 -101 -95 -4 -11 -9 -10 -23 6 -16 20
-16 19 -10 -7 4 -19 2 -28 -6 -28 -7 0 -19 -9 -26 -20 -7 -11 -16 -20 -22 -20
-5 0 -23 -12 -39 -27 -16 -16 -48 -41 -70 -57 -23 -17 -41 -36 -41 -43 0 -7
-10 -13 -22 -13 -14 0 -31 -12 -43 -30 -11 -17 -28 -33 -37 -36 -10 -3 -18
-11 -18 -18 0 -13 -86 -86 -102 -86 -4 0 -8 -9 -8 -20 0 -24 -26 -26 -54 -5
-25 19 -46 19 -46 0 0 -8 11 -17 25 -21 33 -8 32 -17 -7 -49 -18 -15 -45 -44
-60 -64 -14 -20 -31 -36 -37 -36 -15 0 -248 -265 -266 -302 -9 -18 -20 -33
-25 -33 -6 0 -10 -8 -10 -17 -1 -10 -9 -36 -20 -58 -11 -22 -19 -45 -20 -51 0
-6 -7 -17 -15 -24 -8 -7 -15 -21 -15 -31 0 -10 -8 -23 -19 -28 -10 -6 -21 -24
-25 -41 -3 -18 -15 -43 -26 -57 -11 -14 -20 -36 -20 -48 0 -12 -7 -28 -14 -35
-8 -6 -23 -33 -32 -58 -10 -26 -23 -54 -31 -63 -7 -8 -13 -23 -13 -32 0 -26
-33 -127 -42 -127 -4 0 -8 -10 -8 -23 0 -22 -29 -72 -30 -52 -1 21 -62 -163
-69 -210 -4 -27 -20 -75 -35 -106 -23 -50 -27 -70 -28 -170 -2 -132 14 -200
83 -358 23 -53 50 -114 60 -136 64 -146 83 -182 124 -235 25 -33 45 -65 45
-71 0 -19 -63 -3 -105 25 -21 14 -45 26 -54 26 -10 0 -26 7 -37 15 -10 8 -29
15 -42 15 -14 0 -27 9 -34 25 -8 18 -19 25 -41 25 -16 0 -42 11 -59 25 -16 14
-35 25 -42 25 -7 0 -23 11 -36 25 -13 14 -28 25 -33 25 -5 0 -31 11 -58 25
-27 13 -72 27 -99 31 -28 4 -53 11 -56 15 -3 5 -20 9 -37 8 l-32 -1 25 -11
c14 -7 37 -24 52 -39 15 -16 32 -28 38 -28 6 0 32 -16 57 -35 25 -19 52 -35
59 -35 7 0 25 -10 41 -23 15 -13 57 -34 93 -46 36 -13 77 -29 92 -37 14 -8 37
-14 51 -14 15 0 33 -10 44 -24 23 -30 124 -86 156 -86 14 0 30 -7 37 -15 7 -8
24 -15 39 -15 14 0 35 -7 45 -15 11 -8 26 -15 33 -15 8 0 27 -14 43 -32 26
-29 32 -30 55 -20 38 17 68 15 151 -13 41 -14 93 -25 117 -25 23 0 87 -7 142
-16 55 -8 183 -19 285 -24 102 -4 198 -13 213 -19 16 -6 75 -11 132 -11 103 0
139 -11 93 -29 -15 -6 1 -8 49 -4 39 3 106 0 150 -6 43 -6 166 -16 273 -21
107 -6 220 -14 250 -19 85 -15 224 -13 351 5 63 8 177 19 254 24 77 5 187 17
245 26 58 9 143 19 190 22 68 6 91 12 117 31 24 18 31 30 27 46 -3 14 13 60
45 128 28 58 51 109 51 112 0 3 8 25 18 48 10 23 27 62 37 87 10 25 27 65 37
90 34 78 36 84 41 110 5 27 22 76 44 127 7 17 13 40 13 52 0 12 5 21 10 21 6
0 10 12 10 28 0 15 10 61 21 102 21 79 54 233 70 335 6 33 15 74 20 91 5 17 9
50 9 75 0 64 9 89 32 89 17 0 19 -5 13 -39 -8 -46 12 -121 32 -121 10 0 13 22
15 88 2 123 2 128 -21 151 -17 17 -21 33 -21 84 1 34 7 80 15 102 21 58 20 95
-4 95 -20 0 -39 -42 -65 -145 -18 -76 -32 -111 -45 -120 -6 -3 -11 -13 -11
-21 0 -8 -27 -51 -60 -96 -33 -44 -60 -84 -60 -89 0 -5 -9 -9 -19 -9 -17 0
-20 9 -24 68 -3 37 -9 90 -15 117 -8 39 -7 59 5 90 8 22 19 54 24 72 5 18 16
45 24 60 8 15 15 35 15 44 0 9 7 33 15 52 8 20 12 43 9 51 -10 26 -32 18 -39
-13 -3 -16 -12 -35 -20 -41 -7 -6 -21 -41 -31 -78 -9 -37 -23 -74 -31 -83 -7
-8 -13 -21 -13 -27 0 -21 -147 -317 -164 -331 -11 -9 -20 -11 -27 -4 -7 7 -5
14 6 23 8 7 15 20 15 30 0 10 7 23 16 30 16 14 16 61 -1 67 -13 4 -43 -51 -51
-95 -4 -18 -11 -35 -15 -38 -5 -3 -9 -17 -9 -31 0 -31 -30 -83 -47 -83 -10 0
-13 23 -13 90 0 67 -4 97 -16 115 -10 16 -14 36 -11 54 15 73 -32 100 -59 34
-8 -21 -19 -46 -24 -55 -6 -10 -10 -23 -10 -30 -1 -16 -35 -58 -47 -58 -9 0
-18 23 -64 177 -26 87 -44 115 -59 93 -14 -22 -12 -81 4 -99 14 -17 46 -105
46 -128 0 -7 11 -30 23 -51 13 -20 26 -57 30 -81 9 -74 47 -83 47 -11 0 36 49
147 67 153 4 1 11 -23 15 -53 12 -91 33 -198 41 -206 10 -11 9 -62 -3 -69 -13
-8 -13 -52 1 -61 27 -16 61 48 76 143 3 20 15 39 31 49 60 39 114 110 163 211
19 40 37 72 42 73 4 0 7 -38 7 -84 0 -50 4 -88 11 -92 6 -3 8 -17 4 -31 -8
-32 12 -93 30 -93 8 0 20 11 27 24 7 13 32 51 56 85 23 33 45 68 49 77 7 20
47 64 58 64 4 0 5 -10 2 -22 -3 -13 -15 -61 -27 -108 -12 -47 -24 -96 -26
-110 -11 -52 -36 -156 -45 -180 -5 -14 -20 -86 -34 -160 -28 -153 -41 -200
-85 -320 -18 -47 -39 -103 -47 -124 -16 -44 -49 -118 -93 -211 -15 -33 -41
-89 -56 -125 -15 -36 -34 -72 -41 -81 -7 -9 -11 -23 -8 -32 9 -21 -10 -30 -80
-38 -33 -4 -112 -14 -175 -23 -63 -9 -189 -20 -280 -26 -91 -5 -224 -17 -295
-25 -120 -15 -142 -15 -260 1 -72 9 -222 20 -335 24 -113 4 -236 13 -275 18
-274 42 -488 66 -595 69 -152 3 -415 47 -482 80 -15 7 -39 13 -53 13 -15 0
-48 10 -75 21 -27 12 -57 18 -66 15 -9 -4 -23 -1 -30 5 -8 6 -28 14 -45 18
-22 4 -37 17 -50 40 -10 19 -30 46 -44 61 -14 14 -25 33 -25 42 0 9 -4 20 -10
23 -10 6 -140 269 -140 284 0 5 -8 24 -17 43 -9 18 -21 41 -26 52 -23 48 -36
122 -43 246 -7 137 4 215 41 290 26 51 44 107 56 165 13 71 28 115 39 115 5 0
14 -19 22 -42 16 -50 34 -59 48 -24 15 42 27 30 34 -33 7 -57 28 -94 45 -75 4
5 18 47 31 94 12 47 27 89 31 95 5 5 9 18 9 29 0 10 7 42 15 70 8 28 17 64 20
80 12 59 32 7 52 -134 3 -25 12 -54 19 -65 8 -11 14 -34 14 -53 0 -18 9 -50
20 -71 16 -32 17 -45 9 -75 -5 -20 -7 -41 -4 -46 10 -17 33 -11 40 10 3 11 11
20 16 20 5 0 9 7 9 16 0 17 35 79 57 102 7 7 13 26 13 42 0 16 4 31 9 34 5 3
11 18 14 33 8 44 62 188 71 188 4 0 16 -23 26 -51 10 -29 28 -62 40 -74 12
-12 28 -36 35 -54 15 -36 40 -60 53 -53 4 3 7 58 6 121 -1 79 3 122 11 133 11
15 18 11 65 -40 38 -41 63 -60 93 -68 23 -6 53 -17 67 -24 14 -7 52 -18 84
-24 77 -14 338 -15 353 0 5 5 36 13 67 16 51 5 76 17 63 29 -2 3 -120 6 -260
7 -189 1 -259 5 -269 15 -6 6 -19 12 -27 12 -30 1 -88 35 -115 68 -15 17 -33
32 -40 32 -33 0 -75 105 -61 150 7 23 30 26 38 6 5 -13 39 -21 197 -46 30 -4
94 -9 141 -9 92 -1 103 -7 92 -50 -4 -15 1 -23 18 -30 13 -5 41 -28 61 -50 45
-48 98 -66 157 -52 49 11 140 87 141 117 1 71 80 -2 80 -74 0 -16 7 -35 15
-42 26 -22 46 15 38 70 -10 74 -65 130 -128 130 -15 0 -34 4 -44 10 -10 5 -89
11 -177 13 -180 6 -415 29 -457 46 -16 6 -43 11 -60 11 -44 0 -75 10 -80 24
-6 16 14 104 31 133 6 12 12 33 12 47 0 14 4 26 10 26 5 0 13 12 16 28 4 15
10 32 14 37 4 6 11 25 15 43 4 18 13 45 21 60 8 15 14 33 14 40 0 22 32 112
41 118 5 3 9 13 9 22 0 9 6 29 14 44 8 15 17 41 21 58 4 17 13 43 21 58 8 15
14 34 14 43 0 8 4 19 8 25 5 5 17 32 27 59 10 28 26 70 37 93 20 45 18 77 -4
70 -7 -3 -15 -13 -18 -24 -3 -10 -16 -37 -30 -59 -25 -38 -44 -82 -77 -170 -8
-22 -21 -54 -28 -70 -7 -17 -16 -45 -19 -62 -4 -18 -12 -35 -17 -38 -5 -4 -9
-14 -9 -24 0 -9 -11 -32 -25 -51 -15 -20 -23 -41 -20 -52 4 -9 -5 -45 -18 -80
-24 -60 -39 -103 -96 -268 l-26 -75 -74 0 c-55 0 -76 -4 -79 -14 -4 -11 2 -13
28 -8 42 9 125 -36 114 -62 -8 -18 -9 -25 -24 -166 -13 -113 -18 -135 -30
-135 -10 0 -39 63 -60 130 -14 46 -27 70 -39 70 -8 0 -41 -71 -41 -87 0 -6 -7
-16 -15 -23 -8 -7 -15 -22 -15 -34 0 -11 -6 -32 -13 -46 -7 -14 -21 -50 -31
-80 -10 -30 -25 -70 -32 -88 -8 -18 -14 -41 -14 -52 0 -24 -20 -37 -30 -19 -5
7 -14 51 -20 98 -7 47 -18 103 -26 124 -8 20 -14 50 -14 65 0 15 -4 32 -9 38
-5 5 -13 29 -18 54 -7 35 -13 46 -29 48 -24 3 -64 -54 -64 -92 0 -12 -7 -31
-15 -42 -8 -10 -14 -30 -15 -44 0 -50 -32 -160 -46 -160 -11 0 -14 19 -14 80
0 62 -3 80 -14 80 -17 0 -36 -50 -36 -94 0 -41 -14 -61 -35 -52 -15 5 -16 15
-10 74 4 37 13 74 21 83 8 8 14 23 14 31 0 9 7 21 15 28 8 7 15 18 15 25 0 12
49 122 70 155 5 8 21 38 35 67 14 28 30 55 35 58 6 3 10 12 10 20 0 17 56 137
103 220 32 56 70 90 89 79 11 -7 10 -48 -2 -60 -9 -9 -15 -41 -40 -194 -10
-66 -12 -172 -4 -194 5 -13 32 -23 35 -13 0 1 5 43 9 92 5 50 15 126 23 170 8
44 12 85 10 91 -2 7 0 15 6 19 6 3 11 29 11 56 0 46 21 116 38 129 4 3 35 39
69 81 34 41 103 113 155 159 51 46 129 118 173 161 212 205 208 202 221 184
14 -19 34 -12 34 11 0 20 41 74 56 74 7 0 17 6 21 14 15 27 122 108 133 101 6
-4 10 -17 9 -28 -2 -21 2 -36 23 -87 6 -14 21 -58 35 -97 13 -40 31 -85 38
-100 8 -16 15 -33 15 -39 0 -7 7 -25 15 -40 8 -16 15 -41 15 -55 0 -15 7 -32
15 -39 8 -7 15 -18 15 -25 0 -7 7 -26 15 -41 8 -16 15 -38 15 -49 0 -11 7 -29
15 -39 8 -11 15 -30 15 -42 0 -12 7 -27 15 -34 8 -7 15 -24 15 -37 0 -14 9
-36 20 -50 16 -20 18 -29 8 -40 -6 -8 -18 -11 -27 -8 -8 3 -89 6 -179 6 -130
-1 -176 -5 -218 -18 -30 -10 -54 -24 -54 -31 0 -12 44 -13 244 -9 177 4 249 2
260 -6 9 -7 23 -41 31 -77 9 -36 24 -92 35 -125 33 -107 40 -139 31 -148 -9
-9 -122 20 -181 45 -14 6 -81 12 -150 14 -84 2 -139 9 -169 20 -43 16 -43 16
-69 -9 -14 -15 -22 -30 -18 -34 5 -4 11 -2 13 5 6 16 43 15 62 -2 23 -20 162
-45 254 -46 49 0 89 -6 107 -15 16 -8 43 -15 59 -15 25 0 88 -22 111 -38 2 -2
8 -40 12 -85 16 -166 24 -226 32 -234 11 -11 48 37 42 53 -6 17 18 77 27 67
11 -11 8 -83 -4 -83 -17 0 -6 -220 12 -231 21 -13 27 -11 34 11 4 11 26 39 50
62 25 22 47 50 51 62 3 12 14 30 24 41 10 11 23 32 29 48 10 26 34 36 45 19 3
-5 8 -44 12 -88 4 -43 12 -85 18 -93 6 -8 15 -28 21 -45 6 -19 18 -32 30 -34
17 -2 24 7 38 45 9 26 17 59 17 73 1 33 37 77 52 62 7 -7 7 -20 -1 -43 -17
-48 -14 -77 9 -84 25 -8 82 34 112 84 12 20 32 44 44 53 12 10 27 32 34 50 24
62 54 118 62 118 11 0 10 -41 -1 -59 -5 -8 -5 -26 -1 -40 5 -14 11 -38 14 -53
4 -19 13 -28 26 -28 25 0 37 43 20 75 -13 25 -8 91 11 153 25 77 -23 114 -55
43 -10 -21 -30 -52 -45 -68 -37 -40 -59 -75 -119 -182 -12 -23 -27 -41 -32
-41 -5 0 -12 -10 -15 -21 -5 -15 -10 -18 -15 -9 -10 17 -4 159 10 194 13 35 7
44 -15 22 -9 -9 -20 -16 -24 -16 -15 0 -101 -186 -101 -218 0 -25 -18 -39 -26
-19 -7 19 -44 208 -53 274 -4 29 -10 55 -14 59 -14 14 -37 -7 -37 -34 0 -16
-14 -50 -32 -76 -18 -26 -37 -55 -43 -64 -31 -52 -76 -110 -90 -116 -29 -11
-36 -7 -26 12 15 29 34 343 21 356 -17 16 -36 -15 -45 -71 -4 -25 -9 -52 -12
-59 -5 -15 -32 -20 -34 -6 0 4 -2 41 -5 83 -2 42 -8 88 -14 103 -5 15 -10 44
-10 64 0 40 -25 139 -59 237 -19 55 -19 61 -4 72 9 7 27 10 39 7 35 -9 46 3
28 31 -11 17 -27 25 -52 27 l-37 3 -6 75 c-6 81 -23 173 -38 205 -5 11 -14 40
-21 65 -29 115 -36 133 -59 149 l-24 16 7 -40 c4 -22 11 -67 15 -101 5 -34 14
-70 20 -82 6 -11 11 -34 11 -51 0 -16 5 -33 10 -36 6 -3 10 -25 9 -48 l-1 -42
-10 34 c-5 18 -16 40 -24 48 -8 8 -14 25 -14 38 0 13 -6 36 -14 52 -8 15 -27
69 -41 118 -35 117 -60 186 -110 300 -18 42 -36 96 -42 125 -3 14 -12 30 -20
37 -30 24 -6 52 140 161 170 128 158 119 217 173 25 22 61 49 80 60 19 11 55
35 80 54 94 72 132 95 156 95 14 0 24 6 24 15 0 17 114 95 139 95 10 0 49 29
87 65 38 36 72 65 77 65 9 0 136 103 197 160 25 23 71 63 103 88 31 25 57 49
57 53 0 5 13 15 30 24 16 8 32 26 36 39 5 22 85 101 223 222 102 89 160 144
231 218 52 54 95 87 140 110 36 18 92 47 125 66 99 54 107 54 146 7 19 -22 41
-48 50 -56 29 -30 107 -136 129 -176 12 -22 30 -53 41 -70 10 -16 24 -41 30
-55 5 -14 21 -38 33 -55 12 -16 25 -37 28 -45 8 -21 170 -261 237 -350 54 -72
69 -93 91 -135 6 -11 19 -33 30 -50 11 -16 29 -48 41 -69 12 -22 28 -46 35
-54 8 -7 14 -17 14 -22 0 -5 20 -43 45 -83 25 -41 45 -81 45 -89 0 -8 11 -35
25 -59 13 -24 31 -58 39 -75 8 -17 19 -35 25 -38 6 -4 11 -16 11 -27 0 -10 4
-19 10 -19 12 0 24 45 16 58 -3 5 1 24 10 41 13 26 19 30 41 25 19 -5 24 -3
21 7 -8 23 -48 23 -65 0 -17 -25 -33 -27 -33 -6 0 9 -7 18 -15 21 -18 7 -20
44 -3 44 7 0 5 6 -4 18 -9 9 -19 27 -22 40 -4 12 -16 27 -27 32 -12 7 -19 21
-19 40 0 17 -4 30 -10 30 -14 0 -42 59 -36 76 3 8 -1 17 -9 20 -8 3 -17 15
-21 27 -4 11 -28 48 -53 81 -26 34 -54 76 -61 95 -8 19 -32 52 -54 75 -43 43
-96 115 -96 130 0 5 -11 24 -25 42 -14 18 -25 35 -25 39 0 3 -16 27 -35 52
-19 25 -35 51 -35 58 0 7 -6 15 -13 18 -7 2 -26 31 -42 63 -16 33 -35 63 -42
67 -7 4 -13 16 -13 26 0 10 -7 24 -15 31 -8 7 -15 21 -15 31 0 11 -4 19 -10
19 -17 0 -33 41 -21 53 6 6 11 16 11 22 0 5 -7 1 -15 -9 -14 -18 -15 -18 -24
5 -5 13 -21 35 -35 48 -14 14 -26 30 -26 38 0 7 -6 13 -14 13 -8 0 -23 14 -33
30 -9 17 -23 30 -29 30 -10 0 -44 41 -44 52 0 4 41 5 270 7 121 1 205 -7 250
-23 8 -3 49 -10 90 -16 187 -26 450 -97 450 -121 0 -6 11 -21 25 -35 45 -45
93 -188 106 -314 4 -47 14 -110 22 -142 8 -31 12 -77 10 -101 -3 -25 -2 -75 2
-111 5 -55 10 -66 25 -66 15 0 19 12 25 90 4 53 3 109 -3 137 -6 27 -14 77
-17 113 -11 106 -65 342 -89 388 -20 37 -115 134 -126 127 -4 -3 -47 6 -94 20
-48 14 -96 25 -109 25 -12 0 -42 6 -67 14 -87 28 -326 62 -514 73 -55 3 -92 0
-126 -11 -86 -28 -229 -15 -201 18 9 10 8 15 -5 20 -31 12 -64 6 -84 -16z
m-2156 -3271 c27 -27 38 -57 25 -73 -9 -11 -8 -14 5 -14 9 0 16 6 16 13 0 8 9
24 20 37 11 13 20 27 20 31 0 17 44 21 55 5 11 -14 6 -24 -29 -60 -51 -54 -76
-63 -123 -41 -26 12 -34 22 -30 35 4 14 -1 20 -22 22 -35 4 -36 39 -1 49 38
11 50 10 64 -4z"/>
<path d="M7460 8760 c0 -10 32 -30 49 -30 20 0 11 17 -14 28 -31 14 -35 15
-35 2z"/>
<path d="M7790 8740 c0 -5 7 -10 15 -10 8 0 15 5 15 10 0 6 -7 10 -15 10 -8 0
-15 -4 -15 -10z"/>
<path d="M780 8727 c0 -8 -7 -20 -15 -27 -8 -7 -17 -28 -20 -49 -4 -20 -12
-52 -19 -71 -33 -88 -63 -244 -85 -445 -9 -79 -27 -618 -24 -700 6 -156 18
-226 51 -309 20 -48 18 -236 -3 -341 -8 -38 -19 -110 -25 -160 -13 -107 -23
-173 -44 -275 -9 -41 -20 -97 -25 -125 -5 -27 -15 -75 -21 -105 -17 -84 -26
-310 -12 -310 7 0 12 -11 12 -23 0 -13 9 -35 21 -48 39 -44 47 -89 15 -89 -6
0 -37 -24 -68 -52 -31 -29 -73 -66 -93 -83 -21 -16 -42 -42 -47 -57 -6 -15
-14 -28 -18 -28 -14 0 -64 -51 -105 -105 -21 -27 -48 -60 -61 -72 -13 -12 -24
-26 -24 -30 0 -5 -20 -31 -44 -59 -58 -66 -80 -121 -73 -182 4 -34 12 -52 31
-67 14 -11 26 -26 26 -32 0 -6 4 -13 9 -15 5 -1 27 -41 49 -88 22 -47 52 -100
66 -119 14 -19 26 -39 26 -45 0 -5 7 -17 16 -27 20 -22 12 -46 -18 -58 -13 -5
-59 -24 -103 -41 -149 -59 -154 -62 -155 -92 0 -16 2 -28 4 -28 3 0 44 18 91
40 47 22 91 40 98 40 6 0 36 12 65 27 63 32 63 32 117 -72 21 -38 43 -77 50
-85 7 -8 20 -31 30 -50 10 -19 50 -76 91 -125 40 -50 76 -104 80 -120 4 -17
13 -34 20 -40 17 -14 144 -174 144 -182 0 -8 140 -143 149 -143 4 0 15 -16 24
-35 9 -20 24 -38 32 -41 8 -4 15 -15 15 -26 0 -10 12 -30 26 -45 14 -14 30
-35 35 -47 16 -34 35 -65 52 -84 10 -10 17 -24 17 -30 0 -6 12 -22 26 -36 20
-18 25 -31 22 -50 -4 -19 0 -27 13 -31 11 -4 24 -16 31 -28 6 -12 19 -28 30
-35 10 -7 18 -21 18 -31 0 -10 7 -24 15 -31 8 -7 15 -19 15 -26 0 -8 9 -22 20
-31 11 -10 20 -30 20 -44 0 -26 2 -27 40 -22 36 5 40 4 40 -16 0 -13 -7 -29
-15 -38 -8 -8 -13 -19 -10 -24 10 -15 25 -10 25 7 0 9 10 24 22 33 22 18 18
41 -8 41 -8 0 -14 9 -14 20 0 10 -16 35 -35 54 -19 20 -35 45 -35 57 0 12 -8
23 -19 26 -11 3 -28 25 -40 53 -12 27 -30 51 -40 55 -11 3 -24 19 -30 35 -5
17 -15 30 -21 30 -6 0 -16 13 -21 30 -6 17 -15 30 -19 30 -4 0 -11 11 -14 25
-3 13 -15 29 -26 35 -28 15 -25 30 5 30 14 0 25 -5 25 -10 0 -11 70 -81 155
-155 26 -22 55 -48 66 -57 10 -10 23 -18 27 -18 5 0 26 -17 47 -37 39 -37 69
-61 136 -107 19 -13 49 -38 66 -55 17 -16 42 -33 57 -37 14 -3 30 -12 34 -19
9 -17 249 -195 262 -195 5 0 38 -19 73 -43 34 -24 101 -67 150 -96 48 -29 87
-56 87 -61 0 -5 13 -11 29 -15 16 -3 35 -13 42 -21 6 -8 15 -14 20 -14 4 0 37
-18 71 -40 35 -22 68 -40 74 -40 6 0 17 -6 23 -14 7 -8 23 -17 38 -21 14 -3
52 -24 85 -46 33 -21 68 -39 78 -39 10 0 22 -5 25 -10 14 -23 186 -85 345
-126 66 -17 179 -63 201 -81 8 -7 24 -13 35 -13 10 0 41 -8 69 -19 27 -10 66
-24 85 -31 19 -6 58 -21 85 -32 28 -11 82 -28 121 -38 39 -10 80 -22 90 -28
18 -10 116 -24 279 -42 44 -5 134 -16 200 -25 65 -8 145 -15 177 -15 31 0 59
-4 62 -9 3 -4 53 -8 111 -9 83 -1 115 -5 148 -20 56 -27 175 -38 201 -19 29
21 15 45 -23 39 -21 -3 -38 1 -51 13 -14 13 -28 16 -55 11 -27 -5 -44 -2 -68
12 -27 16 -48 19 -132 17 -55 -1 -138 1 -185 6 -47 4 -103 9 -125 10 -22 1
-47 8 -55 14 -8 7 -49 15 -90 19 -41 3 -115 13 -165 22 -49 9 -116 17 -147 18
-38 1 -63 7 -76 19 -10 9 -28 17 -39 17 -11 0 -38 6 -59 14 -22 7 -61 16 -87
20 -27 4 -57 16 -67 26 -10 10 -35 23 -56 30 -22 7 -51 19 -67 27 -15 7 -46
18 -70 22 -23 5 -80 23 -126 40 -46 17 -91 31 -100 31 -9 0 -29 7 -45 15 -15
8 -38 15 -50 15 -11 0 -34 7 -50 15 -15 8 -35 15 -44 15 -29 0 -276 121 -297
146 -5 6 -27 17 -47 24 -21 6 -40 16 -43 20 -3 5 -25 18 -48 29 -23 11 -69 36
-102 56 -33 19 -71 41 -85 48 -26 12 -171 106 -180 117 -7 7 -41 28 -70 43
-21 11 -71 43 -190 124 -14 10 -60 46 -103 81 -42 34 -93 72 -112 83 -19 12
-35 25 -35 30 0 5 -6 9 -14 9 -7 0 -21 11 -30 25 -9 14 -27 27 -40 31 -14 3
-27 12 -30 19 -3 8 -23 23 -44 34 -36 19 -74 50 -183 154 -22 20 -44 37 -50
37 -6 0 -31 22 -57 49 -26 26 -56 51 -67 55 -11 4 -33 18 -50 31 -26 22 -28
27 -18 44 17 27 6 51 -23 51 -24 0 -114 78 -114 99 0 5 -19 29 -43 53 -24 24
-72 77 -107 118 -36 41 -72 81 -82 88 -10 7 -22 32 -29 54 -8 31 -27 57 -70
97 -32 30 -59 59 -59 64 0 13 -122 197 -131 197 -4 0 -10 18 -14 39 -3 22 -15
47 -26 57 -10 9 -19 30 -19 46 0 17 -6 31 -15 35 -9 3 -35 39 -58 80 -197 347
-199 354 -149 429 15 23 39 60 55 83 15 22 36 47 48 53 11 7 45 46 76 87 31
40 101 111 155 158 54 46 102 93 108 103 12 23 42 26 59 7 6 -8 14 -29 17 -48
9 -51 24 -87 40 -93 16 -6 47 -69 50 -100 1 -10 9 -23 18 -28 9 -5 16 -17 16
-27 0 -10 9 -30 20 -44 11 -14 20 -30 20 -35 0 -6 26 -46 58 -89 35 -46 67
-104 80 -141 20 -61 20 -62 1 -62 -31 0 -24 -45 11 -70 16 -12 33 -33 36 -48
4 -15 18 -40 31 -56 14 -16 21 -36 18 -46 -12 -39 69 -94 90 -60 9 15 18 13
56 -13 19 -13 75 -45 124 -72 122 -66 134 -73 180 -100 64 -38 105 -55 195
-80 59 -17 92 -32 107 -49 18 -21 28 -25 53 -20 38 8 49 24 21 31 -12 3 -28
18 -37 34 -8 16 -22 29 -30 29 -9 0 -33 8 -53 19 -20 10 -61 26 -91 36 -30 10
-71 28 -91 41 -19 13 -42 24 -51 24 -8 0 -27 9 -40 20 -14 11 -58 36 -97 56
-39 20 -73 40 -76 44 -3 5 -22 14 -42 21 -21 7 -50 25 -66 41 -16 15 -32 28
-37 28 -5 0 -14 16 -20 35 -6 19 -25 44 -41 56 -19 13 -29 29 -29 45 0 14 -7
27 -15 31 -17 6 -55 73 -55 96 0 8 -8 25 -18 38 -11 13 -22 36 -25 50 -4 14
-18 38 -31 52 -38 41 -156 254 -156 282 0 2 -22 51 -49 108 -28 57 -63 141
-79 188 -17 46 -37 104 -46 128 -13 35 -16 70 -14 155 3 99 15 173 63 411 25
122 36 197 44 303 4 56 10 105 14 108 12 12 38 -59 47 -132 5 -41 12 -79 15
-84 2 -4 9 -38 14 -75 5 -36 17 -78 26 -92 16 -23 18 -24 33 -9 15 15 15 20
-1 68 -16 52 -28 112 -49 253 -5 39 -14 78 -20 88 -5 10 -6 32 -3 47 4 16 1
39 -6 52 -7 13 -14 41 -15 63 -18 235 -23 347 -24 499 0 98 -5 206 -10 240
-20 118 -28 409 -14 498 7 46 18 121 24 168 7 47 15 94 19 105 41 103 58 224
34 232 -7 3 -13 -2 -13 -10z m-78 -1234 c-3 -24 -9 -40 -14 -37 -8 5 -6 128 3
179 5 27 15 -106 11 -142z"/>
<path d="M6032 8530 c-13 -21 -16 -50 -6 -50 13 0 54 52 49 61 -10 15 -29 10
-43 -11z"/>
<path d="M6520 8515 c0 -8 7 -15 15 -15 8 0 15 7 15 15 0 8 -7 15 -15 15 -8 0
-15 -7 -15 -15z"/>
<path d="M6867 8514 c-11 -11 -8 -44 3 -44 15 0 24 30 13 41 -5 5 -12 6 -16 3z"/>
<path d="M5945 8499 c-10 -15 3 -25 16 -12 7 7 7 13 1 17 -6 3 -14 1 -17 -5z"/>
<path d="M5878 8445 c-6 -14 -8 -28 -4 -32 11 -12 41 12 44 36 5 30 -26 27
-40 -4z"/>
<path d="M6917 8449 c-10 -11 -17 -26 -15 -33 2 -7 13 2 25 20 24 38 18 46
-10 13z"/>
<path d="M5789 8345 c-12 -19 -25 -35 -30 -35 -5 0 -9 -7 -9 -15 0 -26 15 -16
53 35 27 36 33 50 22 50 -9 0 -25 -16 -36 -35z"/>
<path d="M1367 8339 c-10 -15 -16 -44 -15 -79 1 -30 -4 -86 -11 -125 -6 -38
-14 -116 -17 -173 -3 -72 -9 -111 -21 -128 -15 -23 -15 -27 -1 -41 23 -22 40
-7 38 36 -3 60 -1 67 24 79 32 14 36 4 37 -106 1 -48 4 -98 8 -112 7 -24 8
-23 13 10 8 50 4 388 -5 396 -4 4 -7 57 -7 119 0 78 -4 117 -14 130 -13 18
-14 17 -29 -6z"/>
<path d="M6922 8343 c5 -25 28 -28 28 -4 0 12 -6 21 -16 21 -9 0 -14 -7 -12
-17z"/>
<path d="M6680 8325 c0 -8 5 -15 10 -15 6 0 10 7 10 15 0 8 -4 15 -10 15 -5 0
-10 -7 -10 -15z"/>
<path d="M470 8285 c0 -8 5 -15 10 -15 6 0 10 7 10 15 0 8 -4 15 -10 15 -5 0
-10 -7 -10 -15z"/>
<path d="M6100 8264 c0 -3 69 -74 153 -158 83 -84 170 -179 192 -211 22 -33
47 -66 55 -75 8 -9 26 -38 40 -65 14 -28 31 -56 38 -63 6 -7 12 -18 12 -23 0
-5 10 -26 23 -47 12 -20 33 -64 46 -97 26 -64 81 -155 94 -155 14 0 20 31 8
43 -6 6 -11 18 -11 27 0 8 -16 46 -35 83 -19 38 -35 73 -35 78 0 5 -11 27 -25
49 -14 22 -42 70 -61 107 -20 36 -40 71 -45 77 -5 6 -39 52 -75 101 -36 50
-85 108 -108 130 -22 23 -53 55 -67 72 -14 17 -35 36 -47 42 -12 6 -22 18 -22
26 0 8 -8 15 -19 15 -10 0 -24 7 -31 15 -7 8 -19 15 -26 15 -8 0 -14 5 -14 10
0 6 -9 10 -20 10 -11 0 -20 -2 -20 -6z"/>
<path d="M6370 8225 c0 -8 7 -15 15 -15 8 0 15 4 15 9 0 5 -7 11 -15 15 -9 3
-15 0 -15 -9z"/>
<path d="M6990 8215 c0 -8 7 -15 15 -15 9 0 12 6 9 15 -4 8 -10 15 -15 15 -5
0 -9 -7 -9 -15z"/>
<path d="M7080 8211 c0 -12 5 -21 10 -21 6 0 10 6 10 14 0 8 -4 18 -10 21 -5
3 -10 -3 -10 -14z"/>
<path d="M6310 8196 c0 -2 7 -9 15 -16 12 -10 15 -10 15 4 0 9 -7 16 -15 16
-8 0 -15 -2 -15 -4z"/>
<path d="M6410 8170 c0 -11 6 -20 14 -20 7 0 16 9 19 20 4 15 0 20 -14 20 -12
0 -19 -7 -19 -20z"/>
<path d="M6084 8166 c-4 -9 -4 -20 0 -23 3 -4 12 -1 18 5 9 9 9 15 0 24 -9 9
-13 7 -18 -6z"/>
<path d="M5598 8143 c-19 -21 -24 -53 -8 -53 13 0 32 38 28 57 -3 13 -6 12
-20 -4z"/>
<path d="M6020 8105 c0 -8 9 -15 20 -15 11 0 20 7 20 15 0 8 -9 15 -20 15 -11
0 -20 -7 -20 -15z"/>
<path d="M6075 8070 c3 -5 13 -10 21 -10 8 0 14 5 14 10 0 6 -9 10 -21 10 -11
0 -17 -4 -14 -10z"/>
<path d="M6140 8070 c0 -5 7 -10 15 -10 8 0 15 5 15 10 0 6 -7 10 -15 10 -8 0
-15 -4 -15 -10z"/>
<path d="M5495 8050 c-3 -6 1 -13 10 -16 19 -8 30 0 20 15 -8 14 -22 14 -30 1z"/>
<path d="M6170 8040 c0 -5 6 -10 14 -10 8 0 18 5 21 10 3 6 -3 10 -14 10 -12
0 -21 -4 -21 -10z"/>
<path d="M7110 8036 c0 -9 6 -19 14 -22 8 -3 19 -19 25 -35 11 -33 41 -40 41
-9 0 11 -6 20 -13 20 -7 0 -25 14 -40 31 -19 22 -27 26 -27 15z"/>
<path d="M6560 7985 c0 -8 7 -15 15 -15 8 0 15 7 15 15 0 8 -7 15 -15 15 -8 0
-15 -7 -15 -15z"/>
<path d="M6650 7955 c0 -8 5 -15 10 -15 6 0 10 7 10 15 0 8 -4 15 -10 15 -5 0
-10 -7 -10 -15z"/>
<path d="M5363 7925 c-3 -9 -3 -19 1 -22 8 -9 37 18 30 28 -8 14 -24 11 -31
-6z"/>
<path d="M6269 7898 c-5 -21 -5 -68 0 -68 13 0 34 48 27 59 -6 10 -25 16 -27
9z"/>
<path d="M5302 7871 c2 -7 7 -12 11 -12 12 1 9 15 -3 20 -7 2 -11 -2 -8 -8z"/>
<path d="M6320 7835 c0 -8 7 -15 15 -15 8 0 15 7 15 15 0 8 -7 15 -15 15 -8 0
-15 -7 -15 -15z"/>
<path d="M5230 7810 c0 -5 7 -10 15 -10 8 0 15 5 15 10 0 6 -7 10 -15 10 -8 0
-15 -4 -15 -10z"/>
<path d="M5146 7765 c-21 -19 -35 -39 -31 -45 10 -16 18 -13 53 20 18 17 37
30 43 30 5 0 9 7 9 15 0 26 -34 17 -74 -20z"/>
<path d="M5063 7681 c-3 -12 -11 -21 -18 -21 -14 0 -27 -25 -18 -34 14 -14 33
-5 33 15 0 17 5 20 24 17 21 -4 23 -2 17 16 -11 28 -31 32 -38 7z"/>
<path d="M5520 7690 c0 -5 9 -10 21 -10 11 0 17 5 14 10 -3 6 -13 10 -21 10
-8 0 -14 -4 -14 -10z"/>
<path d="M6326 7683 c-13 -13 -5 -47 25 -107 39 -77 44 -87 70 -165 12 -35 28
-75 35 -90 8 -14 14 -34 14 -44 0 -9 4 -25 9 -35 10 -17 22 -58 61 -207 12
-44 26 -95 32 -114 6 -19 14 -60 19 -90 4 -31 12 -76 17 -101 24 -111 34 -217
42 -456 8 -239 10 -259 29 -278 13 -13 24 -17 30 -11 20 22 -14 651 -39 728
-5 16 -13 59 -16 95 -4 37 -10 72 -14 77 -4 6 -11 26 -15 45 -4 19 -10 49 -15
65 -5 17 -18 68 -31 115 -12 47 -25 90 -30 95 -4 6 -11 28 -15 50 -4 22 -13
46 -21 53 -7 7 -13 21 -13 30 0 21 -23 87 -44 127 -9 17 -16 35 -16 42 0 6
-13 38 -30 70 -16 31 -30 62 -30 68 -1 14 -46 46 -54 38z"/>
<path d="M1260 7568 c0 -50 13 -80 24 -53 12 33 7 95 -9 95 -11 0 -15 -11 -15
-42z"/>
<path d="M1431 7545 c1 -22 5 -51 9 -65 7 -23 8 -23 11 10 3 49 0 73 -11 84
-7 7 -10 -4 -9 -29z"/>
<path d="M4905 7571 c-3 -5 -1 -12 4 -15 12 -8 41 3 41 15 0 12 -37 12 -45 0z"/>
<path d="M4792 7513 c4 -21 33 -25 33 -3 0 8 -8 16 -18 18 -14 3 -18 -1 -15
-15z"/>
<path d="M7440 7505 c0 -8 2 -15 4 -15 2 0 12 -3 21 -7 15 -5 16 -3 6 15 -13
25 -31 29 -31 7z"/>
<path d="M4550 7475 c0 -9 5 -15 11 -13 6 2 11 8 11 13 0 5 -5 11 -11 13 -6 2
-11 -4 -11 -13z"/>
<path d="M4736 7481 c-8 -13 4 -42 15 -35 12 7 12 44 0 44 -6 0 -12 -4 -15 -9z"/>
<path d="M7165 7480 c-7 -12 2 -30 16 -30 12 0 12 27 0 35 -5 3 -12 1 -16 -5z"/>
<path d="M1260 7401 c0 -16 -3 -43 -7 -61 -5 -25 -3 -32 8 -28 15 5 23 118 8
118 -5 0 -9 -13 -9 -29z"/>
<path d="M4683 7418 c-6 -7 -13 -21 -16 -30 -4 -10 -13 -18 -20 -18 -23 0 -71
-50 -59 -62 7 -7 17 -3 31 11 12 12 25 21 29 21 10 0 82 73 82 83 0 12 -37 8
-47 -5z"/>
<path d="M492 7397 c-12 -13 -22 -33 -22 -44 0 -12 -6 -28 -13 -35 -25 -24 -2
-262 26 -283 10 -7 15 -19 12 -26 -7 -18 46 -51 64 -40 18 11 -7 82 -31 89
-24 6 -27 19 -29 144 -1 86 2 122 15 152 28 66 18 86 -22 43z"/>
<path d="M4968 7396 c-10 -24 4 -94 58 -286 15 -53 33 -122 58 -225 7 -27 15
-57 18 -65 3 -8 13 -36 22 -62 20 -55 43 -79 52 -54 3 9 3 29 0 44 -4 15 -13
54 -21 87 -8 33 -21 87 -30 120 -9 33 -21 80 -26 105 -6 25 -14 54 -19 65 -5
11 -14 38 -19 60 -30 125 -65 235 -76 235 -3 0 -10 -11 -17 -24z"/>
<path d="M7032 7408 c-18 -18 -15 -28 8 -28 13 0 20 7 20 20 0 23 -10 26 -28
8z"/>
<path d="M7121 7366 c-8 -10 -8 -23 3 -52 17 -49 26 -110 36 -244 5 -58 13
-148 19 -200 24 -218 34 -442 25 -553 -5 -62 -9 -174 -9 -249 0 -106 -3 -138
-13 -138 -7 0 -17 10 -22 23 -6 12 -14 29 -19 37 -5 8 -14 35 -20 60 -7 25
-16 59 -20 75 -4 17 -24 65 -44 107 -20 42 -39 99 -43 128 -8 57 -15 66 -44
50 -20 -10 -29 -60 -11 -60 16 0 28 -194 21 -335 -8 -131 -15 -184 -42 -295
-20 -83 -44 -270 -34 -270 4 0 18 12 31 26 20 22 25 37 25 81 0 35 5 60 15 69
8 9 15 26 15 39 0 13 4 36 10 50 11 29 40 273 40 336 0 53 14 49 34 -8 10 -27
21 -55 27 -63 5 -8 14 -26 19 -40 6 -14 17 -37 25 -52 8 -14 15 -51 15 -81 0
-53 11 -79 25 -57 3 5 10 47 14 92 5 46 14 101 20 123 6 22 11 63 11 91 0 31
5 56 13 63 14 11 21 123 22 331 0 172 -13 469 -24 523 -6 28 -15 92 -21 140
-6 48 -16 99 -22 113 -9 18 -9 27 0 36 8 8 14 5 21 -15 6 -15 18 -27 26 -27 9
0 30 -10 48 -22 18 -13 34 -24 36 -25 2 -1 -2 -9 -9 -18 -7 -9 -10 -19 -6 -23
4 -4 14 2 22 13 12 16 18 17 32 8 9 -6 16 -18 14 -27 -2 -10 2 -14 12 -10 14
5 56 -16 84 -43 7 -7 19 -13 26 -13 7 0 25 -13 39 -30 33 -36 53 -38 59 -6 6
29 -57 96 -90 96 -12 0 -45 19 -74 43 -65 52 -156 117 -164 117 -4 0 -35 23
-70 50 -35 28 -65 50 -68 50 -2 0 -9 -6 -15 -14z"/>
<path d="M7010 7320 c0 -5 7 -10 15 -10 8 0 15 5 15 10 0 6 -7 10 -15 10 -8 0
-15 -4 -15 -10z"/>
<path d="M1460 7288 c0 -12 4 -30 10 -38 8 -12 10 -12 15 2 9 23 3 50 -12 56
-8 2 -13 -5 -13 -20z"/>
<path d="M5167 7293 c-9 -9 2 -71 19 -105 13 -26 56 -177 76 -268 5 -25 13
-59 19 -76 5 -17 14 -64 19 -105 6 -41 15 -96 20 -124 11 -59 11 -301 1 -435
-8 -100 -2 -122 27 -104 39 25 53 278 27 509 -8 71 -12 140 -8 152 3 13 -1 33
-9 46 -8 12 -18 45 -22 72 -4 28 -11 64 -16 80 -5 17 -19 64 -30 105 -12 41
-25 84 -30 95 -14 36 -38 109 -44 138 -6 26 -33 37 -49 20z"/>
<path d="M7766 7292 c-9 -15 -12 -209 -3 -218 3 -4 13 -4 20 -1 11 4 14 24 11
89 -4 92 -16 149 -28 130z"/>
<path d="M4522 7274 c2 -11 11 -20 22 -22 13 -3 17 1 14 14 -2 11 -11 20 -22
22 -13 3 -17 -1 -14 -14z"/>
<path d="M1228 7178 c-2 -131 1 -191 12 -202 5 -5 8 12 7 39 -1 29 3 50 10 52
7 3 10 29 6 86 -5 99 -10 127 -23 127 -6 0 -11 -44 -12 -102z"/>
<path d="M4433 7260 c-3 -11 -14 -20 -24 -20 -22 0 -31 -13 -23 -34 10 -26 44
-20 44 8 0 16 7 27 20 31 24 8 27 35 4 35 -9 0 -18 -9 -21 -20z"/>
<path d="M7616 7204 c-9 -22 -8 -24 9 -24 8 0 15 6 15 14 0 22 -17 28 -24 10z"/>
<path d="M4316 7203 c-12 -12 -6 -43 9 -43 8 0 15 -4 15 -10 0 -5 9 -10 20
-10 11 0 20 3 20 8 0 12 -57 62 -64 55z"/>
<path d="M4282 7148 c-20 -20 -14 -38 13 -38 28 0 31 8 12 33 -10 14 -15 15
-25 5z"/>
<path d="M4188 7082 c-16 -10 -28 -25 -28 -34 0 -10 -6 -18 -14 -18 -8 0 -14
-10 -13 -22 0 -13 -2 -30 -4 -38 -2 -9 2 -15 11 -15 10 0 16 12 18 34 4 35 44
80 73 81 9 0 19 7 23 15 7 20 -30 18 -66 -3z"/>
<path d="M5450 7053 c0 -10 4 -24 9 -32 7 -11 10 -9 16 8 7 22 0 41 -16 41 -5
0 -9 -8 -9 -17z"/>
<path d="M6363 7058 c2 -7 12 -13 22 -13 10 0 20 6 23 13 2 7 -6 12 -23 12
-17 0 -25 -5 -22 -12z"/>
<path d="M4031 6959 c-72 -73 -67 -103 7 -40 12 11 22 26 22 34 0 8 10 21 22
29 14 9 18 17 11 21 -7 4 -34 -15 -62 -44z"/>
<path d="M5992 6978 c-23 -23 -12 -30 34 -23 65 9 79 15 62 26 -20 13 -82 11
-96 -3z"/>
<path d="M592 6959 c1 -13 8 -23 13 -21 15 3 12 35 -3 40 -9 3 -13 -3 -10 -19z"/>
<path d="M6285 6948 c-4 -15 -4 -35 -1 -46 8 -26 -2 -52 -21 -52 -12 0 -14 -7
-9 -32 3 -17 8 -33 10 -36 9 -9 26 10 26 29 0 11 6 22 13 25 10 4 13 19 9 57
-6 68 -18 92 -27 55z"/>
<path d="M1241 6915 c0 -63 21 -157 37 -163 20 -6 25 46 8 82 -9 19 -16 45
-16 58 -1 12 -7 34 -15 48 -14 24 -14 23 -14 -25z"/>
<path d="M5732 6925 c-18 -8 -40 -21 -48 -30 -10 -9 -34 -15 -65 -15 -43 0
-50 -3 -47 -17 5 -26 40 -27 84 -4 21 12 49 21 61 21 12 0 28 9 36 20 8 11 21
18 28 15 8 -3 23 1 34 9 19 15 18 15 -15 15 -19 0 -50 -6 -68 -14z"/>
<path d="M6226 6915 c-19 -29 -21 -45 -5 -45 16 0 38 31 39 53 0 24 -15 21
-34 -8z"/>
<path d="M7650 6875 c0 -15 4 -24 10 -20 6 3 10 12 10 20 0 8 -4 17 -10 20 -6
4 -10 -5 -10 -20z"/>
<path d="M1526 6874 c-4 -10 -2 -22 3 -27 7 -7 13 -5 17 7 4 10 2 22 -3 27 -7
7 -13 5 -17 -7z"/>
<path d="M4395 6880 c-8 -12 20 -24 35 -15 6 3 8 11 5 16 -8 12 -32 12 -40 -1z"/>
<path d="M984 6855 c-3 -13 0 -56 7 -95 11 -61 10 -72 -3 -87 -22 -25 -31 -62
-19 -76 5 -7 11 -35 13 -62 4 -67 22 -64 26 4 2 42 7 54 22 58 17 5 18 15 16
132 -1 70 -6 133 -10 139 -13 21 -45 14 -52 -13z"/>
<path d="M3902 6853 c3 -5 10 -23 17 -40 7 -18 17 -33 22 -33 13 0 11 54 -3
68 -13 13 -42 17 -36 5z"/>
<path d="M7537 6853 c-13 -12 -7 -23 13 -23 11 0 20 7 20 15 0 15 -21 21 -33
8z"/>
<path d="M3850 6818 c-23 -25 -26 -38 -7 -38 16 0 57 37 57 50 0 18 -29 11
-50 -12z"/>
<path d="M8784 6814 c-18 -25 -21 -26 -36 -10 -21 21 -32 21 -24 -1 7 -18 -11
-83 -24 -83 -4 0 -11 24 -16 53 -7 50 -7 51 -16 22 -9 -31 8 -131 24 -141 16
-10 8 -33 -14 -36 -29 -4 -34 -26 -6 -30 17 -2 25 -14 35 -48 7 -25 20 -59 28
-77 8 -17 15 -40 15 -51 0 -12 4 -23 9 -27 5 -3 17 -27 26 -55 20 -60 50 -100
76 -100 22 0 39 -32 21 -38 -14 -4 -16 -38 -3 -47 6 -3 15 4 21 16 12 21 20
21 78 4 18 -6 22 -4 22 16 0 17 -9 28 -29 37 -40 18 -161 204 -161 249 0 10
-7 31 -15 47 -8 15 -15 37 -15 47 0 11 -6 30 -14 42 -8 12 -16 44 -19 71 -4
43 -2 52 21 72 34 32 52 30 89 -8 39 -42 103 -171 103 -208 0 -38 9 -60 26
-60 11 0 14 23 14 110 0 91 -3 110 -15 110 -8 0 -15 4 -15 9 0 4 -19 31 -42
60 -30 37 -47 50 -59 46 -12 -4 -22 1 -29 15 -15 27 -32 25 -56 -6z"/>
<path d="M5425 6820 c-7 -12 2 -30 16 -30 5 0 9 9 9 20 0 21 -15 27 -25 10z"/>
<path d="M5526 6821 c-7 -11 22 -23 35 -15 5 3 9 9 9 15 0 12 -37 12 -44 0z"/>
<path d="M6320 6805 c0 -17 5 -25 13 -22 6 2 12 12 12 22 0 10 -6 20 -12 23
-8 2 -13 -6 -13 -23z"/>
<path d="M3780 6769 c-24 -10 -24 -11 -6 -25 11 -8 24 -14 28 -14 5 0 13 -12
19 -27 l11 -28 21 26 c12 15 32 30 45 34 12 3 22 13 22 21 0 21 -38 17 -50 -6
-16 -30 -50 -26 -50 5 0 27 -3 28 -40 14z"/>
<path d="M5716 6754 c-4 -9 1 -51 10 -93 20 -95 22 -112 23 -238 1 -76 5 -105
16 -117 19 -19 19 -39 -1 -78 -11 -22 -14 -45 -10 -74 3 -24 1 -46 -4 -49 -9
-5 -12 -165 -3 -197 10 -39 23 -15 24 45 2 101 13 188 24 185 6 -2 10 -21 10
-43 2 -163 6 -225 16 -225 17 0 -2 400 -20 425 -4 6 -7 70 -5 142 1 74 -2 135
-7 138 -5 4 -9 19 -9 34 0 15 -7 36 -15 47 -8 10 -15 40 -15 67 0 33 -4 47
-14 47 -8 0 -17 -7 -20 -16z"/>
<path d="M6294 6714 c-4 -15 -1 -50 5 -78 7 -28 14 -132 17 -231 6 -234 12
-285 31 -292 8 -3 19 0 24 8 14 22 10 353 -5 471 -16 117 -18 123 -46 138 -17
9 -21 6 -26 -16z"/>
<path d="M8130 6668 c-2 -27 -3 -53 -4 -60 -1 -6 5 -13 12 -15 14 -5 15 42 2
92 -7 27 -8 26 -10 -17z"/>
<path d="M3697 6683 c-14 -13 -6 -33 13 -33 13 0 20 7 20 20 0 19 -20 27 -33
13z"/>
<path d="M4137 6674 c-11 -11 3 -24 18 -18 8 4 12 10 9 15 -6 11 -18 12 -27 3z"/>
<path d="M5090 6665 c0 -8 7 -15 15 -15 8 0 15 7 15 15 0 8 -7 15 -15 15 -8 0
-15 -7 -15 -15z"/>
<path d="M8637 6673 c-12 -11 -8 -23 8 -23 8 0 15 7 15 15 0 16 -12 20 -23 8z"/>
<path d="M5030 6655 c0 -8 7 -15 15 -15 8 0 15 7 15 15 0 8 -7 15 -15 15 -8 0
-15 -7 -15 -15z"/>
<path d="M5926 6645 c-14 -15 -16 -28 -11 -79 14 -127 25 -278 36 -493 10
-177 9 -247 -1 -340 -24 -230 -24 -283 -1 -283 28 0 53 156 67 415 7 135 -43
744 -65 783 -6 11 -11 11 -25 -3z"/>
<path d="M1294 6626 c-7 -19 3 -36 22 -36 10 0 14 8 12 22 -4 26 -26 36 -34
14z"/>
<path d="M3620 6617 c-14 -7 -26 -23 -28 -35 -2 -12 -10 -22 -17 -22 -8 0 -19
-9 -25 -20 -6 -11 -20 -20 -31 -20 -24 0 -37 -29 -18 -41 24 -15 39 -10 51 16
14 30 34 32 43 4 8 -23 28 -21 33 3 2 9 -6 19 -17 23 -29 9 -26 21 14 59 48
46 46 59 -5 33z"/>
<path d="M4935 6611 c-3 -5 -2 -12 2 -14 13 -7 83 5 83 14 0 12 -77 12 -85 0z"/>
<path d="M4166 6601 c-4 -5 -3 -17 0 -26 5 -13 8 -14 15 -3 5 7 9 19 9 26 0
14 -16 16 -24 3z"/>
<path d="M7077 6587 c-3 -8 -1 -20 4 -28 6 -10 9 -7 9 14 0 29 -5 35 -13 14z"/>
<path d="M6564 6579 c-3 -6 -1 -16 5 -22 8 -8 11 -5 11 11 0 24 -5 28 -16 11z"/>
<path d="M4760 6570 c0 -7 19 -8 53 -4 70 9 72 14 4 14 -33 0 -57 -4 -57 -10z"/>
<path d="M8012 6550 c0 -19 2 -27 5 -17 2 9 2 25 0 35 -3 9 -5 1 -5 -18z"/>
<path d="M3650 6545 c0 -9 9 -15 25 -15 16 0 25 6 25 15 0 9 -9 15 -25 15 -16
0 -25 -6 -25 -15z"/>
<path d="M1337 6543 c-13 -12 -7 -70 8 -83 19 -16 35 -4 35 26 0 43 -25 76
-43 57z"/>
<path d="M4677 6543 c-12 -12 -7 -21 15 -26 24 -7 51 10 42 24 -6 10 -48 12
-57 2z"/>
<path d="M4230 6496 c0 -14 5 -26 10 -26 6 0 10 9 10 19 0 11 -4 23 -10 26 -6
4 -10 -5 -10 -19z"/>
<path d="M1117 6470 c-11 -16 -12 -30 -3 -69 6 -27 14 -53 19 -57 4 -4 7 -20
7 -35 0 -16 9 -36 19 -46 11 -10 22 -36 26 -58 4 -22 13 -47 19 -55 23 -32 36
-61 36 -84 0 -13 7 -29 15 -36 8 -7 17 -28 21 -49 4 -20 13 -45 20 -56 8 -11
14 -27 14 -36 0 -9 7 -19 15 -23 8 -3 15 -16 15 -30 0 -13 6 -37 14 -53 8 -15
20 -54 27 -87 7 -32 18 -60 25 -63 7 -2 22 -37 34 -76 12 -40 28 -85 36 -100
8 -16 14 -37 14 -46 0 -10 3 -21 7 -25 9 -9 32 -71 48 -131 22 -84 43 -159 54
-190 20 -58 41 -164 41 -207 0 -24 7 -61 14 -83 8 -22 17 -67 20 -100 9 -100
28 -160 52 -163 29 -4 36 20 20 60 -8 18 -17 62 -20 98 -12 128 -30 240 -38
240 -4 0 -8 32 -8 71 0 56 -4 76 -20 96 -11 14 -20 36 -20 49 0 12 -4 26 -10
29 -5 3 -10 21 -10 40 0 30 -59 228 -79 265 -4 8 -18 47 -30 87 -12 40 -33 95
-47 122 -13 28 -28 67 -33 88 -11 49 -38 110 -51 118 -5 3 -10 18 -10 33 0 15
-6 36 -14 47 -15 22 -76 174 -76 191 0 5 -11 25 -25 44 -14 19 -25 41 -25 49
0 9 -6 27 -13 41 -7 14 -26 67 -42 118 -16 50 -33 92 -37 92 -4 0 -13 -9 -21
-20z"/>
<path d="M3432 6453 c2 -10 14 -19 26 -21 19 -3 23 1 20 15 -2 10 -14 19 -26
21 -19 3 -23 -1 -20 -15z"/>
<path d="M3562 6459 c2 -7 10 -15 17 -17 8 -3 12 1 9 9 -2 7 -10 15 -17 17 -8
3 -12 -1 -9 -9z"/>
<path d="M957 6419 c-3 -12 -2 -31 3 -42 7 -18 9 -14 9 21 1 46 -4 54 -12 21z"/>
<path d="M4221 6408 c-10 -29 -12 -30 -29 -15 -19 18 -32 13 -32 -10 0 -19
-51 -70 -76 -75 -10 -2 -28 -17 -39 -35 -14 -22 -26 -30 -40 -27 -24 5 -65
-53 -65 -92 0 -13 -9 -32 -20 -41 -11 -10 -20 -29 -20 -43 0 -14 -9 -49 -20
-78 -11 -29 -20 -65 -20 -80 0 -15 -5 -33 -10 -38 -6 -6 -13 -35 -17 -65 -4
-31 -13 -59 -22 -66 -12 -9 -13 -14 -4 -24 9 -9 17 -5 37 17 32 36 56 116 56
184 0 36 6 59 19 76 11 14 22 42 26 64 4 21 13 44 21 51 8 6 14 20 14 30 0 21
44 72 65 75 18 3 85 54 85 65 0 5 18 18 39 29 22 10 41 24 43 31 2 6 23 12 48
13 34 2 46 7 53 24 6 12 18 24 28 27 21 7 26 35 6 35 -7 0 -22 -7 -33 -15 -25
-19 -53 -19 -60 0 -9 24 -21 18 -33 -17z"/>
<path d="M7974 6393 c-3 -18 -13 -38 -20 -44 -8 -6 -14 -27 -14 -45 0 -19 -13
-60 -29 -91 -46 -91 -59 -125 -65 -175 -3 -26 -16 -73 -28 -105 -24 -65 -26
-116 -19 -548 6 -316 -1 -464 -21 -479 -10 -7 -17 -34 -20 -81 -6 -81 -28
-155 -45 -155 -17 0 -25 -17 -18 -40 9 -29 25 -24 32 10 3 17 14 35 24 41 11
5 16 16 12 25 -3 8 1 22 10 32 8 9 20 42 27 72 7 30 19 66 28 80 18 28 17 26
27 283 7 189 8 197 25 182 10 -9 23 -36 29 -61 10 -37 15 -44 36 -44 13 0 28
-6 32 -13 4 -7 20 -18 35 -24 20 -9 27 -19 25 -34 -1 -12 4 -24 12 -27 10 -3
12 2 7 21 -8 34 8 73 33 80 28 7 37 36 44 142 3 50 3 80 -1 67 -11 -37 -24
-31 -38 18 -11 36 -22 50 -53 68 -50 28 -106 29 -120 3 -13 -23 -5 -31 32 -31
46 0 99 -62 117 -134 18 -78 7 -110 -40 -114 -41 -3 -46 0 -85 53 -73 97 -95
189 -95 391 0 118 2 135 23 175 16 29 26 69 30 119 8 90 25 142 56 167 25 21
39 79 40 168 1 64 -15 95 -25 48z"/>
<path d="M6481 6358 c-1 -31 3 -59 8 -62 15 -10 17 27 5 74 l-12 45 -1 -57z"/>
<path d="M3432 6349 c2 -7 10 -15 17 -17 8 -3 12 1 9 9 -2 7 -10 15 -17 17 -8
3 -12 -1 -9 -9z"/>
<path d="M1395 6340 c-10 -16 4 -50 21 -50 11 0 14 8 12 27 -3 28 -22 41 -33
23z"/>
<path d="M3327 6343 c-9 -15 22 -62 41 -63 20 0 14 28 -7 35 -11 3 -21 14 -23
23 -3 12 -6 14 -11 5z"/>
<path d="M7755 6340 c-8 -13 4 -32 16 -25 12 8 12 35 0 35 -6 0 -13 -4 -16
-10z"/>
<path d="M1640 6310 c0 -16 5 -30 10 -30 6 0 10 14 10 30 0 17 -4 30 -10 30
-5 0 -10 -13 -10 -30z"/>
<path d="M1431 6253 c0 -15 4 -37 9 -48 7 -18 9 -18 15 -3 10 24 2 71 -12 76
-9 2 -13 -6 -12 -25z"/>
<path d="M3240 6248 c-22 -36 -20 -43 9 -33 46 14 70 65 31 65 -12 0 -28 -13
-40 -32z"/>
<path d="M921 6235 c-29 -101 -25 -143 13 -129 12 5 16 20 15 68 0 33 -4 70
-8 81 -7 17 -10 14 -20 -20z"/>
<path d="M1640 6145 c0 -25 -4 -45 -10 -45 -16 0 -12 -36 6 -51 15 -12 16 -10
10 18 -6 24 -3 34 10 41 13 7 15 17 10 46 -10 51 -26 45 -26 -9z"/>
<path d="M6465 6133 c4 -27 8 -64 9 -83 1 -24 6 -36 18 -38 12 -2 15 2 11 18
-3 12 2 29 12 40 17 19 17 21 1 39 -10 10 -16 25 -15 33 4 29 -2 38 -22 38
-20 0 -21 -3 -14 -47z"/>
<path d="M3870 6131 c0 -12 5 -21 10 -21 6 0 10 6 10 14 0 8 -4 18 -10 21 -5
3 -10 -3 -10 -14z"/>
<path d="M8002 6129 c2 -6 8 -10 13 -10 5 0 11 4 13 10 2 6 -4 11 -13 11 -9 0
-15 -5 -13 -11z"/>
<path d="M1496 6085 c4 -46 31 -143 45 -159 13 -14 -3 135 -18 172 -19 45 -31
40 -27 -13z"/>
<path d="M8940 6120 c0 -6 11 -8 28 -4 39 10 40 14 4 14 -18 0 -32 -5 -32 -10z"/>
<path d="M3104 6105 c-18 -14 -18 -14 9 -15 17 0 27 5 27 15 0 19 -11 19 -36
0z"/>
<path d="M7778 6104 c-5 -4 -8 -16 -8 -28 0 -14 3 -17 11 -9 6 6 9 19 7 28 -1
9 -6 13 -10 9z"/>
<path d="M3570 6085 c0 -17 11 -20 26 -6 5 5 18 11 29 14 11 3 4 5 -17 6 -28
1 -38 -3 -38 -14z"/>
<path d="M7285 6090 c-3 -5 -1 -18 4 -27 9 -16 10 -14 11 10 0 28 -5 34 -15
17z"/>
<path d="M3042 6038 c-7 -7 -12 -23 -12 -36 0 -18 4 -23 16 -18 9 3 18 6 20 6
2 0 4 14 4 30 0 32 -9 37 -28 18z"/>
<path d="M3115 6017 c-4 -10 -5 -21 -1 -24 10 -10 18 4 13 24 -4 17 -4 17 -12
0z"/>
<path d="M1622 5948 c-14 -14 -16 -44 -2 -53 12 -7 44 41 35 55 -8 13 -18 13
-33 -2z"/>
<path d="M6500 5923 c0 -5 4 -15 10 -23 11 -18 25 -7 17 15 -6 15 -27 21 -27
8z"/>
<path d="M6625 5910 c-7 -23 2 -43 16 -35 12 8 12 42 0 50 -5 3 -12 -4 -16
-15z"/>
<path d="M830 5885 c-12 -32 -12 -31 1 -78 14 -53 29 -37 29 33 0 65 -14 86
-30 45z"/>
<path d="M372 5868 c-7 -7 -12 -19 -12 -27 0 -8 -11 -26 -24 -40 -27 -30 -56
-100 -56 -136 0 -13 -8 -29 -17 -34 -17 -10 -17 -12 0 -25 19 -15 23 -56 6
-73 -8 -8 -7 -22 7 -52 24 -52 35 -52 34 2 -1 52 9 108 23 125 8 10 7 16 -3
22 -10 6 -11 12 -3 22 6 7 15 31 19 52 10 54 38 100 71 115 15 7 22 15 17 19
-6 4 -13 15 -17 25 -7 20 -28 22 -45 5z"/>
<path d="M270 5849 c0 -11 5 -17 10 -14 6 3 10 13 10 21 0 8 -4 14 -10 14 -5
0 -10 -9 -10 -21z"/>
<path d="M1670 5811 c0 -74 -16 -87 -31 -26 -6 25 -15 45 -20 45 -15 0 -10
-98 6 -137 8 -19 15 -46 15 -58 0 -12 7 -28 15 -35 8 -7 15 -27 15 -46 0 -65
32 -112 42 -60 8 42 -3 88 -23 93 -24 7 -24 18 -1 35 17 12 18 25 14 131 -3
90 -8 117 -18 117 -10 0 -14 -16 -14 -59z"/>
<path d="M2946 5848 c-19 -27 -21 -71 -3 -66 6 3 14 13 16 24 2 10 9 23 17 27
18 11 18 37 0 37 -8 0 -22 -10 -30 -22z"/>
<path d="M5323 5863 c-8 -3 -13 -26 -13 -61 -1 -62 -14 -134 -32 -169 -8 -17
-8 -29 0 -48 16 -35 15 -48 -3 -41 -12 4 -15 -3 -15 -37 1 -42 26 -87 49 -87
14 0 15 37 1 45 -13 8 -13 55 0 55 6 0 18 16 27 35 16 33 16 36 -2 49 -16 11
-17 17 -7 29 8 9 15 55 18 107 3 51 5 95 6 99 3 28 -4 35 -29 24z"/>
<path d="M3400 5850 c0 -5 7 -10 15 -10 8 0 15 5 15 10 0 6 -7 10 -15 10 -8 0
-15 -4 -15 -10z"/>
<path d="M2997 5824 c-8 -8 3 -34 14 -34 5 0 9 9 9 20 0 19 -11 26 -23 14z"/>
<path d="M5722 5798 c-5 -13 -14 -50 -21 -83 -7 -33 -24 -94 -38 -135 -14 -41
-31 -102 -40 -135 -8 -33 -17 -70 -20 -82 -3 -15 1 -24 15 -32 22 -12 26 -32
41 -241 10 -132 34 -344 50 -445 5 -33 12 -100 16 -150 6 -91 33 -225 46 -225
20 0 25 168 8 285 -10 71 -30 238 -50 423 -10 88 -9 105 4 120 9 11 14 36 13
72 -1 48 -4 55 -21 55 -18 0 -21 9 -26 85 -4 47 -10 94 -13 105 -4 11 0 45 9
75 9 30 21 73 27 95 6 22 15 43 21 46 14 10 14 181 0 186 -7 3 -17 -6 -21 -19z"/>
<path d="M2441 5797 c-6 -8 -14 -29 -17 -48 -4 -19 -12 -41 -19 -49 -7 -8 -16
-25 -19 -38 -4 -12 -16 -27 -27 -32 -10 -6 -19 -18 -19 -26 0 -9 -16 -49 -35
-90 -40 -85 -44 -120 -15 -129 16 -5 19 -11 13 -28 -9 -25 -9 -105 1 -114 13
-13 20 11 22 75 3 76 16 126 40 154 11 11 19 41 22 76 3 43 10 62 28 80 13 13
24 31 24 41 0 10 9 26 20 36 14 13 20 31 20 62 0 45 -16 57 -39 30z"/>
<path d="M3520 5800 c-20 -12 -5 -24 16 -12 9 5 12 12 7 15 -5 3 -15 2 -23 -3z"/>
<path d="M3481 5746 c-8 -10 -9 -16 -1 -21 15 -9 52 5 47 18 -6 18 -32 20 -46
3z"/>
<path d="M2880 5731 c-13 -24 -13 -51 -1 -51 12 0 41 40 41 57 0 20 -28 15
-40 -6z"/>
<path d="M2850 5655 c0 -9 -12 -20 -26 -25 -18 -7 -24 -15 -20 -26 3 -9 6 -18
6 -20 0 -2 6 -4 14 -4 8 0 19 12 24 28 5 15 13 35 17 45 4 10 3 17 -4 17 -6 0
-11 -7 -11 -15z"/>
<path d="M864 5636 c-8 -21 -1 -61 11 -61 6 0 11 17 13 38 3 37 -13 52 -24 23z"/>
<path d="M6791 5563 c-7 -43 -21 -104 -32 -135 -10 -32 -19 -71 -19 -87 0 -16
-4 -33 -10 -36 -5 -3 -10 -22 -10 -41 0 -79 55 4 74 110 6 34 16 61 21 61 5 0
15 -31 22 -70 17 -95 32 -129 49 -114 19 15 18 165 -1 173 -17 6 -34 66 -43
150 -5 44 -11 62 -23 64 -13 2 -19 -13 -28 -75z"/>
<path d="M5016 5621 c-4 -5 -2 -12 4 -16 18 -11 11 -64 -10 -75 -24 -13 -27
-50 -4 -50 9 0 18 9 21 19 3 11 11 22 19 25 8 3 14 17 14 32 0 29 -35 80 -44
65z"/>
<path d="M960 5600 c0 -24 15 -27 24 -4 9 22 8 24 -9 24 -8 0 -15 -9 -15 -20z"/>
<path d="M3450 5585 c0 -8 5 -15 10 -15 6 0 10 7 10 15 0 8 -4 15 -10 15 -5 0
-10 -7 -10 -15z"/>
<path d="M2760 5505 c0 -35 37 -105 55 -105 20 0 19 37 -1 48 -9 5 -19 24 -23
42 -8 41 -31 52 -31 15z"/>
<path d="M6325 5507 c-4 -10 -5 -21 -1 -24 10 -10 18 4 13 24 -4 17 -4 17 -12
0z"/>
<path d="M2701 5401 c-25 -34 -26 -41 -7 -41 16 0 46 37 46 57 0 22 -18 14
-39 -16z"/>
<path d="M650 5400 c0 -11 7 -20 15 -20 8 0 15 9 15 20 0 11 -7 20 -15 20 -8
0 -15 -9 -15 -20z"/>
<path d="M900 5411 c0 -11 31 -24 39 -16 3 3 -1 10 -9 15 -19 12 -30 12 -30 1z"/>
<path d="M5992 5378 c5 -15 37 -18 41 -3 1 6 -9 12 -22 13 -16 3 -22 -1 -19
-10z"/>
<path d="M114 5346 c-8 -22 3 -33 18 -18 9 9 9 15 0 24 -9 9 -13 7 -18 -6z"/>
<path d="M2640 5323 c0 -22 2 -25 10 -13 13 20 13 40 0 40 -5 0 -10 -12 -10
-27z"/>
<path d="M2755 5340 c-7 -11 2 -30 13 -30 4 0 13 9 20 20 11 17 10 20 -7 20
-11 0 -23 -4 -26 -10z"/>
<path d="M905 5330 c-10 -16 16 -43 28 -31 11 11 2 41 -12 41 -5 0 -13 -5 -16
-10z"/>
<path d="M5940 5315 c0 -15 4 -24 10 -20 6 3 10 12 10 20 0 8 -4 17 -10 20 -6
4 -10 -5 -10 -20z"/>
<path d="M2695 5317 c-4 -10 -3 -23 4 -30 16 -16 26 0 14 25 -10 21 -11 22
-18 5z"/>
<path d="M5576 5312 c-4 -13 -5 -26 -2 -29 10 -11 18 4 14 29 l-4 23 -8 -23z"/>
<path d="M6020 5326 c0 -12 42 -48 48 -41 9 9 -13 40 -32 43 -9 2 -16 1 -16
-2z"/>
<path d="M4483 5275 c-7 -20 2 -29 21 -22 9 4 13 13 10 22 -8 19 -23 19 -31 0z"/>
<path d="M672 5243 c4 -39 28 -42 28 -4 0 21 -5 31 -16 31 -11 0 -14 -8 -12
-27z"/>
<path d="M3706 5261 c-4 -5 -3 -16 0 -25 4 -11 -2 -19 -18 -25 -21 -8 -25 -16
-26 -57 0 -61 12 -86 41 -82 19 3 22 9 22 53 0 28 3 55 8 62 4 6 5 18 2 25 -3
8 1 21 10 28 13 11 13 15 3 21 -17 11 -35 11 -42 0z"/>
<path d="M2642 5248 c8 -7 20 -22 26 -33 8 -14 11 -15 11 -5 0 20 -23 50 -40
50 -9 0 -9 -3 3 -12z"/>
<path d="M2604 5209 c-3 -6 -1 -16 5 -22 8 -8 11 -5 11 11 0 24 -5 28 -16 11z"/>
<path d="M4550 5206 c0 -9 7 -16 16 -16 17 0 14 22 -4 28 -7 2 -12 -3 -12 -12z"/>
<path d="M2220 5189 c0 -11 -9 -28 -21 -38 -20 -16 -21 -23 -14 -124 6 -92 10
-107 26 -112 15 -5 19 -16 19 -59 0 -29 6 -61 14 -71 13 -18 14 -17 28 6 17
26 32 157 22 184 -6 15 -8 15 -24 0 -17 -15 -19 -15 -29 4 -6 11 -11 51 -11
90 0 57 4 74 20 89 19 18 19 18 0 35 -26 22 -30 21 -30 -4z"/>
<path d="M3935 5190 c3 -5 13 -10 21 -10 8 0 14 5 14 10 0 6 -9 10 -21 10 -11
0 -17 -4 -14 -10z"/>
<path d="M3437 5183 c-4 -3 -7 -17 -7 -29 0 -17 4 -22 15 -18 8 4 15 17 15 30
0 23 -10 31 -23 17z"/>
<path d="M4500 5171 c0 -12 6 -21 16 -21 9 0 14 7 12 17 -5 25 -28 28 -28 4z"/>
<path d="M728 5152 c-33 -16 -36 -32 -7 -39 14 -4 30 -25 45 -57 l23 -51 0 41
c1 28 -4 44 -13 47 -8 3 -16 21 -18 39 -3 33 -4 33 -30 20z"/>
<path d="M2292 5158 c-16 -16 -15 -47 3 -78 14 -26 17 -24 29 32 6 27 -1 58
-13 58 -4 0 -12 -5 -19 -12z"/>
<path d="M2570 5124 c0 -9 5 -14 12 -12 18 6 21 28 4 28 -9 0 -16 -7 -16 -16z"/>
<path d="M2690 5125 c0 -8 5 -15 10 -15 6 0 10 7 10 15 0 8 -4 15 -10 15 -5 0
-10 -7 -10 -15z"/>
<path d="M4931 5093 c-11 -15 -24 -32 -29 -38 -14 -18 -21 -44 -13 -49 10 -6
51 48 51 67 0 7 5 18 12 25 6 6 9 14 6 17 -3 3 -15 -7 -27 -22z"/>
<path d="M830 5061 c0 -16 7 -34 15 -41 8 -7 15 -18 15 -26 0 -18 43 -83 55
-83 6 -1 16 3 24 8 12 8 4 25 -38 90 -30 45 -57 81 -62 81 -5 0 -9 -13 -9 -29z"/>
<path d="M2545 5047 c-18 -28 -13 -47 10 -47 18 0 31 48 17 62 -7 7 -15 2 -27
-15z"/>
<path d="M3370 5024 c-11 -25 -20 -53 -20 -63 0 -9 -5 -22 -10 -27 -12 -12 14
-84 29 -84 18 0 32 29 25 55 -4 15 1 49 11 81 28 88 -1 119 -35 38z"/>
<path d="M3078 5053 c-1 -5 -2 -24 -2 -43 -1 -28 -5 -36 -23 -38 -27 -4 -28
-10 -7 -33 14 -16 14 -18 -6 -29 -17 -9 -20 -17 -16 -36 4 -14 0 -37 -10 -55
-12 -25 -14 -37 -5 -56 8 -17 7 -34 -3 -66 -15 -45 -31 -228 -27 -317 1 -37 8
-64 22 -84 16 -20 20 -37 16 -61 -4 -23 -1 -38 9 -46 19 -16 18 -49 -2 -49
-10 0 -14 -6 -10 -17 3 -10 10 -37 16 -60 6 -23 16 -45 22 -49 15 -10 48 36
48 69 0 30 -14 36 -24 10 -8 -19 -21 -9 -30 23 -5 17 -2 23 15 27 20 5 21 10
15 49 -4 24 -18 67 -32 97 -21 48 -24 64 -20 135 11 173 19 236 32 247 10 8
10 16 2 35 -9 19 -9 33 1 59 9 26 9 39 0 56 -12 24 3 90 28 120 21 25 31 71
22 97 -8 21 -27 30 -31 15z"/>
<path d="M5004 4976 c-9 -24 12 -44 28 -28 10 10 8 16 -5 29 -15 15 -17 15
-23 -1z"/>
<path d="M5235 4960 c-3 -6 1 -13 10 -16 19 -8 30 0 20 15 -8 14 -22 14 -30 1z"/>
<path d="M822 4928 c5 -15 28 -23 28 -10 0 5 -7 13 -16 16 -10 4 -14 1 -12 -6z"/>
<path d="M5185 4929 c-10 -15 3 -25 16 -12 7 7 7 13 1 17 -6 3 -14 1 -17 -5z"/>
<path d="M2457 4903 c-2 -5 -1 -35 3 -68 6 -58 7 -59 18 -32 7 16 15 46 18 68
6 35 4 39 -14 39 -12 0 -23 -3 -25 -7z"/>
<path d="M2550 4891 c0 -12 5 -21 10 -21 6 0 10 6 10 14 0 8 -4 18 -10 21 -5
3 -10 -3 -10 -14z"/>
<path d="M6660 4868 c0 -36 4 -35 14 5 4 16 2 27 -4 27 -5 0 -10 -14 -10 -32z"/>
<path d="M2424 4734 c-4 -20 -2 -66 5 -103 6 -36 12 -77 14 -91 1 -14 8 -25
17 -25 20 0 22 141 2 157 -9 8 -11 24 -6 55 5 35 3 43 -9 43 -11 0 -19 -13
-23 -36z"/>
<path d="M1770 4703 c0 -18 5 -33 10 -33 13 0 13 30 0 50 -7 11 -10 7 -10 -17z"/>
<path d="M2900 4643 c0 -31 12 -63 21 -57 16 9 11 74 -6 74 -8 0 -15 -8 -15
-17z"/>
<path d="M7672 4567 c-26 -27 -29 -78 -7 -101 8 -8 13 -20 11 -28 -8 -24 -13
-272 -7 -298 4 -16 14 -25 26 -25 16 0 19 6 16 30 -8 73 -7 80 17 83 12 2 22
-1 22 -7 0 -15 120 -131 136 -131 8 0 14 -4 14 -9 0 -4 20 -28 46 -52 119
-115 142 -142 148 -173 6 -36 -8 -186 -23 -231 -24 -76 -31 -103 -31 -122 0
-12 -7 -28 -15 -37 -8 -8 -15 -23 -15 -34 0 -21 -33 -105 -80 -204 -7 -14 -10
-32 -7 -40 3 -8 9 -3 16 15 6 15 14 27 19 27 5 0 26 27 46 60 20 32 41 62 47
66 6 3 24 0 40 -6 43 -18 46 -6 10 37 -32 39 -37 61 -22 91 38 73 81 235 81
303 0 27 -5 70 -11 98 -9 44 -19 57 -77 108 -37 32 -83 72 -102 90 -19 18 -38
33 -43 33 -4 0 -12 11 -17 25 -5 14 -15 25 -23 25 -7 0 -20 8 -29 18 -32 33
-43 44 -81 80 -48 45 -61 93 -62 214 0 110 -10 131 -43 95z"/>
<path d="M1150 4566 c0 -8 7 -16 15 -20 10 -4 15 1 15 14 0 11 -7 20 -15 20
-8 0 -15 -6 -15 -14z"/>
<path d="M6332 4550 c0 -19 2 -27 5 -17 2 9 2 25 0 35 -3 9 -5 1 -5 -18z"/>
<path d="M1800 4484 c0 -34 4 -53 10 -49 6 3 10 28 10 56 0 27 -4 49 -10 49
-5 0 -10 -25 -10 -56z"/>
<path d="M1200 4516 c0 -9 7 -16 16 -16 9 0 14 5 12 12 -6 18 -28 21 -28 4z"/>
<path d="M2317 4493 c-11 -10 -8 -53 3 -53 6 0 10 14 10 30 0 31 -2 35 -13 23z"/>
<path d="M7598 4446 c-16 -19 -28 -42 -28 -50 0 -8 -4 -18 -10 -21 -10 -6
-117 -146 -137 -180 -7 -11 -17 -32 -23 -47 -7 -15 -22 -34 -35 -42 -13 -9
-26 -24 -30 -35 -3 -11 -19 -24 -35 -29 -15 -6 -33 -20 -40 -31 -6 -12 -21
-21 -35 -21 -13 0 -27 -5 -31 -11 -3 -6 -25 -19 -48 -30 -22 -11 -52 -26 -66
-34 -39 -22 -92 -45 -104 -45 -6 0 -17 -9 -24 -20 -7 -11 -21 -20 -32 -20 -11
0 -29 -9 -40 -20 -13 -13 -48 -25 -97 -34 -95 -17 -204 -45 -218 -56 -5 -5
-28 -12 -50 -16 -22 -4 -44 -13 -50 -19 -17 -21 -109 -37 -169 -30 -47 6 -57
5 -62 -10 -11 -28 9 -35 109 -40 89 -4 104 -2 204 31 59 20 115 41 123 48 8 7
41 14 73 14 40 1 69 8 92 22 18 11 49 20 68 20 25 0 39 6 46 19 6 11 26 21 50
25 28 4 39 10 35 19 -7 20 13 32 81 52 44 12 67 26 88 51 17 20 40 36 61 39
33 7 86 47 86 66 0 5 10 14 23 20 29 14 97 102 97 126 0 11 14 35 30 53 17 18
30 39 30 45 0 7 11 17 25 23 16 8 25 20 25 35 0 13 9 34 20 47 11 13 20 31 20
41 0 10 5 21 10 24 12 7 14 55 3 55 -5 0 -20 -16 -35 -34z"/>
<path d="M1255 4451 c-8 -15 3 -31 21 -31 9 0 14 7 12 17 -4 20 -24 28 -33 14z"/>
<path d="M262 4409 c2 -6 8 -10 13 -10 5 0 11 4 13 10 2 6 -4 11 -13 11 -9 0
-15 -5 -13 -11z"/>
<path d="M221 4356 c-18 -19 -21 -28 -12 -44 8 -16 6 -24 -15 -43 -14 -13 -22
-29 -19 -38 7 -18 -13 -80 -32 -103 -18 -20 -42 -125 -43 -183 0 -44 33 -169
50 -190 7 -8 10 -24 9 -37 -2 -13 4 -34 14 -48 9 -13 17 -30 17 -36 0 -6 7
-17 15 -24 8 -7 15 -18 15 -26 0 -17 16 -52 40 -89 11 -16 22 -37 26 -45 3 -8
11 -26 19 -40 7 -14 29 -56 50 -95 20 -38 45 -79 56 -91 10 -11 19 -26 19 -33
0 -13 26 -65 46 -91 6 -8 15 -26 19 -40 4 -14 18 -39 31 -57 13 -17 24 -39 24
-48 0 -8 6 -18 14 -21 8 -3 19 -18 25 -32 6 -15 25 -47 41 -72 16 -25 34 -56
40 -69 6 -13 24 -44 40 -68 17 -24 30 -46 30 -48 0 -2 12 -23 28 -47 38 -61
50 -79 68 -111 8 -16 30 -48 49 -72 18 -24 45 -70 60 -102 15 -32 34 -65 41
-73 36 -40 74 -88 74 -94 0 -24 178 -175 206 -176 13 0 49 38 43 44 -12 13
-81 56 -88 56 -33 0 -246 289 -331 449 -8 15 -32 50 -52 78 -21 28 -38 57 -38
64 0 7 -9 22 -19 33 -11 12 -38 55 -61 96 -23 41 -55 95 -71 120 -16 25 -38
63 -50 85 -11 22 -33 60 -49 85 -16 25 -40 68 -54 95 -25 49 -30 58 -55 100
-6 11 -18 34 -26 50 -9 17 -19 37 -24 45 -5 8 -12 22 -15 30 -4 8 -15 29 -26
45 -11 17 -23 37 -26 45 -4 8 -12 22 -19 30 -7 8 -20 38 -30 65 -10 28 -24 57
-32 66 -7 8 -13 23 -13 31 0 9 -6 21 -14 27 -8 6 -16 24 -19 39 -2 15 -9 41
-15 57 -26 74 -35 144 -24 184 7 21 12 47 12 57 1 11 9 37 20 59 11 22 19 44
20 49 0 5 14 38 30 73 32 68 37 109 17 137 -12 16 -14 15 -36 -8z"/>
<path d="M1458 4263 c12 -2 30 -2 40 0 9 3 -1 5 -23 4 -22 0 -30 -2 -17 -4z"/>
<path d="M1860 4229 c28 -5 48 -5 54 1 7 7 -9 10 -44 9 l-55 -1 45 -9z"/>
<path d="M5777 4226 c-6 -15 1 -26 15 -26 4 0 8 9 8 20 0 23 -15 27 -23 6z"/>
<path d="M5730 4217 c0 -9 -9 -18 -19 -22 -10 -3 -21 -13 -25 -23 -5 -17 -11
-27 -55 -95 -26 -41 -82 -83 -150 -113 -72 -32 -85 -106 -35 -206 8 -15 14
-37 14 -48 0 -28 17 -22 38 13 15 25 15 29 -1 57 -10 16 -15 35 -11 41 3 6 1
22 -6 35 -11 19 -11 26 0 39 7 8 17 15 22 15 40 0 198 144 198 180 0 6 12 21
26 33 19 17 27 33 28 61 0 23 -4 41 -11 43 -7 3 -13 -2 -13 -10z"/>
<path d="M1572 4213 c-16 -6 52 -53 78 -53 11 0 20 6 20 13 0 10 -28 26 -80
44 -3 1 -11 -1 -18 -4z"/>
<path d="M8447 4194 c-14 -14 -6 -24 19 -24 16 0 24 5 22 13 -5 14 -31 21 -41
11z"/>
<path d="M5330 4180 c0 -5 7 -10 15 -10 8 0 15 5 15 10 0 6 -7 10 -15 10 -8 0
-15 -4 -15 -10z"/>
<path d="M1732 4148 c-7 -7 -12 -16 -12 -20 0 -13 62 -48 84 -48 11 0 27 -6
35 -14 33 -27 100 -59 115 -53 21 8 9 37 -15 37 -12 0 -23 10 -29 25 -7 19
-17 25 -39 25 -22 0 -36 8 -51 30 -23 32 -65 41 -88 18z"/>
<path d="M4836 4152 c-9 -8 -7 -32 2 -32 5 0 16 6 27 13 17 13 17 14 -3 19
-11 3 -23 3 -26 0z"/>
<path d="M5245 4151 c-7 -12 31 -25 45 -16 6 4 8 11 5 16 -8 12 -42 12 -50 0z"/>
<path d="M6443 4134 c-3 -8 -1 -20 6 -27 8 -8 11 -4 11 16 0 30 -7 35 -17 11z"/>
<path d="M5353 4122 c-13 -2 -23 -8 -23 -13 0 -13 37 -11 45 2 9 14 5 16 -22
11z"/>
<path d="M8530 4110 c0 -15 5 -20 18 -18 9 2 17 10 17 18 0 8 -8 16 -17 18
-13 2 -18 -3 -18 -18z"/>
<path d="M5430 4080 c0 -5 7 -10 15 -10 8 0 15 5 15 10 0 6 -7 10 -15 10 -8 0
-15 -4 -15 -10z"/>
<path d="M4998 4059 c-18 -10 -25 -48 -10 -50 4 -1 41 -3 82 -5 41 -2 89 -5
105 -6 24 -3 30 1 30 17 0 35 -164 70 -207 44z"/>
<path d="M5266 4061 c-3 -5 1 -12 10 -15 20 -8 29 -1 19 13 -8 13 -22 14 -29
2z"/>
<path d="M5328 4018 c17 -8 26 -8 34 0 9 9 4 12 -22 11 -33 0 -34 -1 -12 -11z"/>
<path d="M3107 3986 c-9 -23 15 -76 35 -76 22 0 23 10 3 36 -8 10 -15 27 -15
37 0 21 -16 23 -23 3z"/>
<path d="M7637 3979 c-9 -6 -17 -18 -17 -28 0 -10 -9 -26 -20 -36 -11 -10 -20
-26 -20 -35 0 -9 -9 -25 -20 -35 -11 -10 -20 -26 -20 -36 0 -10 -10 -25 -21
-33 -23 -15 -57 -66 -84 -123 -8 -18 -20 -33 -25 -33 -6 0 -10 -6 -10 -14 0
-17 -34 -58 -120 -146 -36 -37 -87 -90 -115 -118 -27 -29 -55 -52 -62 -52 -8
0 -19 -11 -25 -25 -6 -14 -23 -28 -37 -32 -26 -6 -30 -9 -89 -63 -18 -16 -37
-30 -42 -30 -5 0 -12 -9 -15 -21 -4 -11 -22 -27 -40 -35 -18 -7 -35 -20 -38
-28 -3 -8 -20 -17 -37 -21 -17 -4 -42 -18 -55 -31 -13 -13 -29 -24 -35 -24
-19 0 -10 -29 12 -36 16 -5 26 0 41 20 10 14 27 26 38 26 10 0 24 9 31 20 8
12 24 20 41 20 19 0 31 7 38 24 7 14 22 27 35 30 13 4 24 13 24 21 0 9 12 20
26 25 15 6 53 31 85 55 33 25 62 45 65 45 3 0 25 19 49 43 24 23 56 53 72 66
55 46 157 170 212 260 19 31 37 58 40 61 14 13 51 70 51 80 0 5 5 10 10 10 6
0 20 19 30 43 11 23 34 60 50 82 18 24 29 53 30 72 0 37 -8 45 -33 32z"/>
<path d="M5272 3964 c4 -21 22 -23 26 -1 2 10 -3 17 -13 17 -10 0 -15 -6 -13
-16z"/>
<path d="M3280 3940 c0 -5 9 -10 20 -10 11 0 20 5 20 10 0 6 -9 10 -20 10 -11
0 -20 -4 -20 -10z"/>
<path d="M6056 3942 c-3 -6 -1 -14 5 -17 15 -10 25 3 12 16 -7 7 -13 7 -17 1z"/>
<path d="M3360 3900 c0 -5 7 -10 15 -10 8 0 15 5 15 10 0 6 -7 10 -15 10 -8 0
-15 -4 -15 -10z"/>
<path d="M5590 3900 c0 -5 7 -10 15 -10 8 0 15 5 15 10 0 6 -7 10 -15 10 -8 0
-15 -4 -15 -10z"/>
<path d="M3485 3870 c3 -5 15 -10 25 -10 10 0 22 5 25 10 4 6 -7 10 -25 10
-18 0 -29 -4 -25 -10z"/>
<path d="M6084 3869 c-3 -6 -1 -16 5 -22 8 -8 11 -5 11 11 0 24 -5 28 -16 11z"/>
<path d="M2337 3854 c-12 -12 -8 -23 13 -34 25 -13 93 5 87 23 -4 13 -89 22
-100 11z"/>
<path d="M8010 3794 c0 -14 4 -23 9 -20 5 3 7 15 4 26 -7 28 -13 25 -13 -6z"/>
<path d="M2466 3791 c-10 -15 24 -42 48 -39 13 2 21 10 21 23 0 15 -8 21 -32
23 -17 2 -34 -1 -37 -7z"/>
<path d="M2594 3738 c-4 -6 -2 -14 5 -16 7 -2 20 -13 30 -24 15 -16 24 -18 52
-10 31 8 32 9 12 16 -13 4 -23 11 -23 15 0 8 -44 31 -60 31 -5 0 -12 -5 -16
-12z"/>
<path d="M5480 3675 c0 -8 7 -15 15 -15 8 0 15 7 15 15 0 8 -7 15 -15 15 -8 0
-15 -7 -15 -15z"/>
<path d="M2830 3656 c0 -3 14 -11 30 -20 33 -16 40 -11 13 10 -17 13 -43 19
-43 10z"/>
<path d="M3070 3581 c0 -5 7 -14 15 -21 13 -10 15 -9 15 9 0 12 -6 21 -15 21
-8 0 -15 -4 -15 -9z"/>
<path d="M55 3568 c-4 -10 -4 -26 0 -35 8 -17 8 -17 12 0 3 9 3 25 0 35 -4 16
-4 16 -12 0z"/>
<path d="M477 3563 c-9 -8 -9 -46 -1 -67 11 -28 34 -18 34 13 0 49 -15 73 -33
54z"/>
<path d="M3715 3549 c-11 -16 2 -22 32 -15 21 6 24 9 12 17 -19 12 -36 11 -44
-2z"/>
<path d="M3120 3536 c10 -9 29 -12 52 -9 52 7 37 23 -20 23 -40 0 -44 -2 -32
-14z"/>
<path d="M93 3480 c9 -13 17 -37 17 -53 0 -17 10 -38 28 -55 15 -15 32 -40 38
-56 12 -35 31 -45 41 -20 4 11 -2 24 -19 39 -28 24 -58 79 -58 106 0 10 -14
28 -32 40 l-32 23 17 -24z"/>
<path d="M960 3492 c0 -14 59 -52 64 -43 3 5 -1 11 -9 15 -8 3 -15 12 -15 21
0 8 -9 15 -20 15 -11 0 -20 -4 -20 -8z"/>
<path d="M3216 3491 c11 -11 124 -20 124 -11 0 4 -21 10 -46 14 -65 9 -90 8
-78 -3z"/>
<path d="M207 3463 c-3 -5 -2 -15 2 -22 7 -10 10 -10 16 -1 4 6 3 16 -3 22 -5
5 -12 6 -15 1z"/>
<path d="M530 3464 c0 -4 7 -34 17 -67 11 -41 24 -65 45 -80 15 -11 28 -28 28
-38 0 -30 68 -179 82 -179 15 0 8 57 -8 71 -16 13 -15 56 1 122 7 24 5 27 -19
27 -19 0 -30 8 -42 33 -26 51 -104 134 -104 111z"/>
<path d="M1040 3396 c0 -8 5 -18 10 -21 6 -3 10 3 10 14 0 12 -4 21 -10 21 -5
0 -10 -6 -10 -14z"/>
<path d="M1411 3376 c2 -10 14 -23 27 -27 30 -11 25 8 -7 30 -22 14 -23 14
-20 -3z"/>
<path d="M3670 3376 c0 -8 10 -18 23 -20 12 -3 36 -8 52 -11 87 -18 95 -18 95
3 0 17 -8 21 -52 25 -29 3 -68 9 -85 12 -26 6 -33 4 -33 -9z"/>
<path d="M1070 3341 c0 -12 6 -21 16 -21 9 0 14 7 12 17 -5 25 -28 28 -28 4z"/>
<path d="M7021 3341 c-9 -6 -10 -11 -2 -15 13 -8 31 1 31 15 0 11 -11 11 -29
0z"/>
<path d="M5992 3318 c-19 -19 -14 -28 16 -28 35 0 45 9 31 27 -14 16 -31 17
-47 1z"/>
<path d="M8130 3321 c0 -23 14 -41 31 -41 27 0 23 25 -6 38 -14 6 -25 8 -25 3z"/>
<path d="M5420 3300 c0 -17 5 -21 28 -18 16 2 27 9 27 18 0 9 -11 16 -27 18
-23 3 -28 -1 -28 -18z"/>
<path d="M3958 3298 c6 -6 33 -11 59 -11 26 0 53 -4 60 -9 7 -5 14 -5 17 1 11
17 -30 31 -90 31 -44 0 -55 -3 -46 -12z"/>
<path d="M4980 3301 c-25 -3 -44 -10 -43 -16 3 -13 73 -25 93 -16 8 4 76 6
150 5 127 -1 170 5 170 25 0 9 -303 11 -370 2z"/>
<path d="M5570 3301 c0 -13 27 -21 45 -15 8 4 12 10 9 15 -7 12 -54 12 -54 0z"/>
<path d="M5720 3301 c0 -16 19 -23 40 -16 30 10 24 25 -10 25 -16 0 -30 -4
-30 -9z"/>
<path d="M4546 3293 c-17 -18 -88 -33 -154 -33 -115 0 -76 -15 47 -18 69 -2
112 1 116 8 4 6 23 11 43 10 66 0 267 11 282 17 12 4 11 7 -5 13 -24 10 -319
13 -329 3z"/>
<path d="M712 3228 c2 -31 8 -44 21 -46 13 -3 17 3 17 23 0 31 -16 65 -31 65
-6 0 -9 -18 -7 -42z"/>
<path d="M1100 3255 c-10 -12 -10 -15 4 -15 9 0 16 7 16 15 0 8 -2 15 -4 15
-2 0 -9 -7 -16 -15z"/>
<path d="M1632 3218 c3 -7 13 -15 22 -16 12 -3 17 1 14 10 -3 7 -13 15 -22 16
-12 3 -17 -1 -14 -10z"/>
<path d="M8240 3216 c0 -8 9 -18 20 -21 11 -3 25 -15 30 -25 14 -26 50 -46 50
-28 -2 37 -100 111 -100 74z"/>
<path d="M244 3188 c10 -48 46 -67 46 -24 0 38 -10 56 -32 56 -18 0 -20 -4
-14 -32z"/>
<path d="M764 3155 c-4 -8 -3 -26 0 -40 5 -20 3 -25 -14 -25 -26 0 -26 -22 0
-38 11 -7 20 -18 20 -24 0 -23 55 -118 68 -118 14 0 15 5 3 28 -5 9 -19 47
-31 84 -20 62 -21 69 -6 83 20 21 21 51 0 59 -24 9 -34 7 -40 -9z"/>
<path d="M1690 3160 c0 -5 8 -10 19 -10 10 0 24 -7 31 -15 7 -8 18 -15 26 -15
7 0 19 -6 26 -13 7 -7 30 -23 50 -35 20 -13 40 -31 43 -42 8 -25 32 -43 46
-34 9 5 8 10 -3 18 -9 6 -17 20 -19 31 -2 11 -15 25 -27 31 -13 6 -29 17 -35
23 -6 6 -17 11 -24 11 -7 0 -32 14 -55 30 -41 30 -78 39 -78 20z"/>
<path d="M7887 3143 c-11 -10 -8 -43 3 -43 6 0 10 11 10 25 0 26 -2 29 -13 18z"/>
<path d="M8380 3115 c-7 -9 -10 -18 -7 -21 10 -11 37 5 37 21 0 19 -14 19 -30
0z"/>
<path d="M320 3091 c0 -11 5 -23 10 -26 6 -3 10 3 10 14 0 11 -4 23 -10 26 -5
3 -10 -3 -10 -14z"/>
<path d="M856 3055 c-7 -20 3 -45 19 -45 21 0 27 17 15 40 -13 24 -26 26 -34
5z"/>
<path d="M8426 3035 c-11 -29 -7 -36 24 -46 35 -13 34 -5 14 -128 -11 -64 -23
-103 -36 -118 -30 -33 -53 -163 -29 -163 10 0 15 14 26 70 4 19 14 46 22 59 8
12 19 53 24 90 5 36 13 77 18 91 18 48 21 90 8 90 -7 0 -17 15 -22 32 -11 36
-39 49 -49 23z"/>
<path d="M403 3019 c-16 -16 -17 -55 -3 -64 13 -8 22 17 18 50 -2 21 -5 24
-15 14z"/>
<path d="M6057 3023 c-12 -11 -8 -23 8 -23 8 0 15 7 15 15 0 16 -12 20 -23 8z"/>
<path d="M7800 3015 c0 -8 7 -15 15 -15 8 0 15 7 15 15 0 8 -7 15 -15 15 -8 0
-15 -7 -15 -15z"/>
<path d="M943 2983 c-20 -7 -15 -41 7 -53 15 -8 21 -6 30 11 9 15 8 24 -1 35
-12 15 -16 16 -36 7z"/>
<path d="M7730 2980 c-12 -7 -12 -12 -3 -21 10 -10 18 -10 38 -1 14 6 25 16
25 22 0 13 -40 13 -60 0z"/>
<path d="M2067 2932 c-21 -22 -21 -32 -4 -32 18 0 49 34 40 43 -10 11 -19 8
-36 -11z"/>
<path d="M470 2911 c0 -11 -4 -23 -10 -26 -5 -3 -10 -13 -10 -21 0 -10 5 -9
20 6 21 21 27 60 10 60 -5 0 -10 -9 -10 -19z"/>
<path d="M1003 2904 c-3 -8 2 -23 11 -32 14 -15 18 -15 26 -3 10 16 -4 51 -21
51 -5 0 -12 -7 -16 -16z"/>
<path d="M2120 2890 c0 -11 7 -20 15 -20 9 0 18 -7 21 -15 4 -8 14 -15 25 -15
10 0 35 -11 55 -25 37 -25 64 -32 64 -17 0 14 -23 32 -41 32 -9 0 -28 11 -43
25 -15 14 -33 25 -40 25 -8 0 -19 7 -26 15 -17 21 -30 19 -30 -5z"/>
<path d="M875 2880 c-9 -15 12 -70 40 -105 19 -23 27 -27 36 -18 10 10 9 16
-4 31 -9 9 -22 35 -29 56 -13 40 -31 55 -43 36z"/>
<path d="M1440 2860 c0 -5 12 -17 26 -27 14 -9 30 -27 35 -40 12 -32 27 -29
21 5 -7 40 -82 97 -82 62z"/>
<path d="M5822 2858 c-19 -19 -15 -48 7 -48 24 0 45 25 37 45 -7 18 -27 20
-44 3z"/>
<path d="M7592 2858 c-6 -6 -12 -20 -12 -31 0 -14 6 -18 28 -15 21 2 27 8 27
28 0 28 -23 38 -43 18z"/>
<path d="M500 2831 c0 -21 5 -31 16 -31 11 0 14 8 12 27 -4 39 -28 42 -28 4z"/>
<path d="M5745 2786 c-11 -6 -33 -20 -50 -31 -16 -10 -31 -20 -33 -21 -7 -4
12 -34 22 -34 22 0 96 64 96 82 0 20 -6 21 -35 4z"/>
<path d="M7536 2784 c-29 -28 -16 -47 22 -33 13 5 22 17 22 29 0 24 -22 26
-44 4z"/>
<path d="M537 2784 c-9 -10 4 -57 19 -69 7 -5 14 -19 16 -30 2 -12 12 -21 26
-23 32 -5 30 35 -2 50 -14 6 -31 26 -38 45 -8 18 -17 31 -21 27z"/>
<path d="M2360 2751 c0 -26 13 -33 41 -23 l22 9 -24 16 c-31 22 -39 21 -39 -2z"/>
<path d="M993 2753 c-7 -2 -13 -11 -13 -18 0 -7 -7 -15 -15 -19 -18 -6 -20
-32 -4 -42 7 -4 19 3 28 15 13 17 19 19 29 9 6 -6 12 -18 12 -24 0 -7 9 -16
20 -19 11 -4 27 -18 35 -33 8 -15 33 -40 55 -57 22 -16 42 -39 46 -50 3 -11
29 -39 57 -63 59 -48 124 -109 148 -138 22 -27 236 -224 270 -250 16 -11 39
-34 51 -50 13 -16 26 -31 31 -33 5 -2 24 -18 42 -37 19 -19 41 -34 48 -34 8 0
22 -9 32 -20 10 -11 24 -20 30 -20 7 0 15 -6 18 -14 7 -17 177 -103 301 -152
50 -20 117 -49 150 -65 32 -16 66 -29 75 -29 23 0 168 -38 189 -50 9 -5 42
-14 72 -19 105 -19 165 -34 171 -44 9 -13 119 -35 214 -43 44 -4 85 -10 90
-15 6 -4 46 -11 89 -15 51 -4 80 -12 83 -20 4 -11 32 -14 115 -14 60 0 117 -4
126 -9 22 -12 459 -14 534 -3 63 9 77 17 60 34 -7 7 -98 12 -284 15 -150 2
-309 8 -353 14 -44 6 -114 14 -155 18 -41 4 -97 12 -125 19 -27 6 -85 16 -128
22 -44 6 -102 18 -130 26 -29 8 -78 18 -109 23 -31 5 -72 14 -90 20 -108 34
-147 45 -183 52 -49 9 -210 57 -233 68 -9 5 -37 17 -62 26 -44 17 -65 26 -143
59 -21 9 -44 16 -51 16 -8 0 -19 6 -25 14 -7 8 -25 18 -41 21 -16 3 -34 13
-41 22 -7 8 -33 24 -57 35 -24 12 -51 32 -59 45 -9 13 -32 33 -52 43 -20 10
-43 27 -52 37 -9 10 -47 45 -84 78 -37 33 -105 96 -150 140 -75 73 -201 191
-315 294 -25 22 -48 41 -52 41 -5 0 -8 5 -8 11 0 16 -72 89 -87 89 -7 0 -18
10 -24 22 -15 28 -64 78 -76 77 -4 0 -14 -3 -20 -6z"/>
<path d="M1215 2741 c-3 -6 2 -14 11 -19 8 -5 21 -20 27 -33 7 -13 23 -25 35
-27 27 -4 29 14 2 28 -11 6 -20 17 -20 25 0 8 -9 19 -19 25 -24 12 -28 12 -36
1z"/>
<path d="M1610 2730 c0 -5 9 -10 19 -10 11 0 23 5 26 10 4 6 -5 10 -19 10 -14
0 -26 -4 -26 -10z"/>
<path d="M2463 2695 c-8 -23 2 -28 42 -21 21 4 35 13 35 21 0 21 -69 20 -77 0z"/>
<path d="M7410 2679 c0 -11 5 -17 10 -14 6 3 10 13 10 21 0 8 -4 14 -10 14 -5
0 -10 -9 -10 -21z"/>
<path d="M1642 2651 c4 -13 18 -16 19 -4 0 4 -5 9 -11 12 -7 2 -11 -2 -8 -8z"/>
<path d="M5560 2627 c-19 -19 -42 -32 -51 -30 -20 6 -51 -24 -47 -46 5 -24 41
-20 53 6 7 16 15 21 28 17 19 -6 80 51 74 69 -7 21 -23 16 -57 -16z"/>
<path d="M644 2632 c-26 -21 -35 -44 -24 -62 15 -24 38 -3 42 39 2 23 3 41 3
41 0 0 -9 -8 -21 -18z"/>
<path d="M1391 2627 c-12 -15 -5 -27 16 -27 7 0 13 9 13 20 0 23 -13 26 -29 7z"/>
<path d="M2640 2626 c0 -20 12 -26 38 -19 18 4 20 8 11 19 -15 18 -49 18 -49
0z"/>
<path d="M7337 2623 c-13 -12 -7 -23 13 -23 11 0 20 7 20 15 0 15 -21 21 -33
8z"/>
<path d="M710 2570 c0 -11 5 -20 10 -20 6 0 10 9 10 20 0 11 -4 20 -10 20 -5
0 -10 -9 -10 -20z"/>
<path d="M2824 2569 c-7 -12 12 -29 34 -29 6 0 12 -4 12 -9 0 -5 20 -20 45
-32 33 -17 48 -20 56 -12 8 8 0 17 -29 32 -23 12 -48 21 -56 21 -9 0 -20 9
-26 20 -12 22 -25 26 -36 9z"/>
<path d="M7262 2558 c-20 -20 -14 -38 13 -38 20 0 25 5 25 25 0 27 -18 33 -38
13z"/>
<path d="M8367 2563 c-13 -13 -7 -53 8 -53 10 0 15 10 15 30 0 29 -9 38 -23
23z"/>
<path d="M670 2525 c0 -8 7 -15 15 -15 8 0 15 7 15 15 0 8 -7 15 -15 15 -8 0
-15 -7 -15 -15z"/>
<path d="M8397 2493 c-13 -12 -7 -43 8 -43 8 0 15 6 15 13 0 18 -15 38 -23 30z"/>
<path d="M740 2456 c0 -28 17 -43 32 -28 7 7 6 17 -1 31 -16 28 -31 27 -31 -3z"/>
<path d="M1405 2471 c-6 -11 9 -23 19 -14 9 9 7 23 -3 23 -6 0 -12 -4 -16 -9z"/>
<path d="M1584 2465 c-9 -22 4 -35 37 -35 53 0 31 49 -24 50 -4 0 -10 -7 -13
-15z"/>
<path d="M3006 2472 c-11 -18 25 -35 82 -38 31 -2 48 -1 37 2 -11 4 -27 12
-36 20 -20 18 -75 29 -83 16z"/>
<path d="M1160 2457 c0 -18 38 -62 46 -54 4 3 -1 13 -10 22 -9 9 -16 23 -16
31 0 8 -4 14 -10 14 -5 0 -10 -6 -10 -13z"/>
<path d="M796 2423 c-13 -14 -5 -34 19 -43 14 -5 25 -16 25 -24 0 -8 10 -23
23 -33 13 -10 26 -26 30 -35 3 -10 11 -18 17 -18 17 0 11 24 -10 43 -11 9 -20
23 -20 31 0 7 -9 16 -20 19 -11 3 -24 16 -29 30 -11 28 -25 40 -35 30z"/>
<path d="M1507 2413 c-3 -5 6 -16 19 -26 20 -15 24 -16 24 -3 0 17 -36 40 -43
29z"/>
<path d="M1654 2395 c-4 -14 -4 -29 0 -32 7 -8 46 40 39 49 -10 17 -33 7 -39
-17z"/>
<path d="M3260 2399 c14 -6 33 -15 42 -20 23 -12 48 -12 48 0 0 16 -23 25 -70
28 -40 2 -42 1 -20 -8z"/>
<path d="M6994 2369 c-9 -15 12 -33 30 -26 9 4 16 13 16 22 0 17 -35 21 -46 4z"/>
<path d="M3405 2350 c3 -5 21 -10 38 -9 27 0 29 2 12 9 -28 12 -57 12 -50 0z"/>
<path d="M6897 2335 c-15 -14 -37 -25 -48 -25 -10 0 -36 -9 -56 -20 -21 -11
-47 -20 -58 -20 -31 0 -47 -14 -39 -35 7 -16 3 -17 -28 -12 -22 3 -43 0 -54
-7 -11 -8 -30 -17 -44 -20 -24 -7 -105 -44 -235 -107 -33 -16 -67 -29 -76 -29
-9 0 -19 -3 -23 -7 -3 -4 -37 -15 -74 -25 -59 -17 -94 -25 -177 -42 -11 -2
-56 -10 -100 -16 -111 -16 -118 -18 -225 -35 -199 -33 -205 -34 -219 -57 -12
-19 -10 -19 91 -14 57 4 132 11 168 16 36 5 81 11 100 14 19 2 69 11 110 21
41 9 103 19 137 23 34 4 68 13 75 20 6 6 21 12 33 12 11 0 31 7 43 16 13 9 24
14 25 13 1 -2 10 -19 20 -37 20 -39 14 -57 -14 -39 -16 10 -28 7 -77 -18 -31
-16 -73 -42 -93 -57 -20 -16 -40 -28 -44 -28 -4 0 -24 -13 -44 -29 -20 -15
-46 -31 -57 -35 -12 -4 -24 -15 -27 -26 -3 -10 -21 -26 -41 -34 -20 -8 -36
-20 -36 -25 0 -6 -10 -11 -21 -11 -12 0 -37 -13 -56 -30 -18 -17 -45 -30 -58
-30 -13 0 -36 -11 -51 -25 -15 -14 -35 -25 -44 -25 -9 0 -25 -9 -35 -20 -10
-11 -26 -20 -36 -20 -10 0 -28 -11 -41 -24 -24 -25 -134 -86 -156 -86 -6 0
-22 -11 -34 -25 -12 -14 -31 -25 -43 -25 -12 0 -30 -7 -41 -15 -10 -8 -25 -15
-33 -15 -8 0 -46 -15 -85 -34 -39 -19 -83 -37 -97 -40 -14 -3 -43 -17 -63 -31
-21 -14 -52 -28 -70 -31 -17 -3 -40 -9 -51 -14 -11 -5 -29 -11 -40 -13 -11 -3
-67 -24 -125 -46 -58 -22 -116 -41 -131 -41 -14 0 -30 -5 -35 -10 -6 -6 -50
-22 -100 -36 -49 -14 -102 -31 -119 -39 -16 -7 -58 -19 -92 -25 -35 -7 -68
-19 -74 -26 -6 -8 -27 -14 -45 -14 -36 0 -107 -15 -164 -35 -19 -7 -69 -11
-110 -9 -41 1 -178 5 -305 8 -126 4 -266 11 -310 17 -44 5 -120 14 -170 20
-49 5 -101 13 -115 18 -14 5 -59 12 -101 15 -41 3 -93 13 -114 22 -27 11 -52
14 -82 9 -57 -8 -52 -29 8 -33 24 -2 51 -9 59 -16 8 -8 29 -16 45 -19 73 -12
168 -30 265 -49 169 -33 171 -34 605 -38 377 -4 608 0 626 10 15 10 -11 18
-71 22 -43 4 -42 21 2 30 81 16 166 39 279 74 26 8 54 14 64 14 9 0 35 11 58
24 23 14 60 28 82 32 22 4 72 20 110 35 39 16 78 29 87 29 9 0 19 4 22 9 3 4
21 11 39 14 19 3 65 20 103 37 102 47 125 57 167 74 20 8 37 20 37 25 0 6 10
11 22 11 12 0 29 6 37 14 9 7 38 18 64 25 27 6 67 23 90 38 23 14 62 33 88 42
25 9 54 24 63 34 10 9 23 17 30 17 7 0 31 12 52 26 21 15 56 33 78 40 21 8 60
27 86 43 25 16 56 32 69 36 31 9 111 64 111 75 0 5 21 19 48 31 26 12 66 37
89 55 23 19 64 45 92 58 27 12 67 37 88 55 118 98 174 141 187 141 8 0 18 5
21 10 4 6 34 23 68 39 80 38 165 94 184 120 8 12 23 21 33 21 10 0 36 16 57
36 44 42 67 55 108 64 25 5 31 11 33 38 4 39 -12 41 -51 7z m-502 -305 c-10
-11 -30 -20 -44 -20 l-26 0 25 20 c14 11 34 20 44 20 18 0 18 -1 1 -20z m-71
-45 c-7 -16 -35 -35 -53 -35 -12 0 -15 33 -4 43 3 4 19 7 34 7 21 0 27 -4 23
-15z"/>
<path d="M2542 2321 c-11 -7 -11 -9 0 -13 18 -7 39 2 32 13 -6 11 -15 11 -32
0z"/>
<path d="M3592 2313 c3 -12 12 -17 28 -15 31 3 38 11 20 22 -25 16 -52 12 -48
-7z"/>
<path d="M3680 2301 c0 -10 34 -21 68 -21 33 0 27 17 -9 24 -43 8 -59 8 -59
-3z"/>
<path d="M1295 2290 c3 -5 13 -10 21 -10 8 0 14 5 14 10 0 6 -9 10 -21 10 -11
0 -17 -4 -14 -10z"/>
<path d="M8397 2294 c-8 -8 1 -24 14 -24 5 0 9 7 9 15 0 15 -12 20 -23 9z"/>
<path d="M3830 2280 c0 -5 7 -10 15 -10 8 0 15 5 15 10 0 6 -7 10 -15 10 -8 0
-15 -4 -15 -10z"/>
<path d="M3975 2260 c-8 -12 20 -24 35 -15 5 3 10 10 10 16 0 12 -37 12 -45
-1z"/>
<path d="M4230 2259 c-92 -10 -26 -20 156 -23 72 -2 136 -6 141 -9 10 -7 40
19 32 27 -7 7 -272 11 -329 5z"/>
<path d="M4590 2250 c0 -5 9 -10 20 -10 11 0 20 5 20 10 0 6 -9 10 -20 10 -11
0 -20 -4 -20 -10z"/>
<path d="M6187 2234 c-11 -12 3 -24 29 -24 16 0 24 5 22 13 -5 13 -40 22 -51
11z"/>
<path d="M1425 2171 c-7 -12 12 -24 25 -16 11 7 4 25 -10 25 -5 0 -11 -4 -15
-9z"/>
<path d="M1470 2131 c0 -5 7 -12 16 -15 22 -9 24 -8 18 9 -7 16 -34 21 -34 6z"/>
<path d="M2 2071 c2 -33 8 -60 13 -60 24 3 35 -2 35 -15 0 -8 20 -26 45 -40
25 -15 45 -30 45 -34 1 -4 25 -25 55 -47 53 -39 54 -41 48 -79 -4 -28 -3 -37
5 -32 7 4 12 14 12 22 0 11 7 13 28 8 37 -9 62 -23 62 -34 0 -5 19 -22 43 -36
23 -15 44 -28 46 -30 2 -2 4 -21 5 -41 1 -31 5 -39 22 -41 16 -2 23 4 28 22 4
16 13 26 25 26 21 0 93 -54 117 -88 8 -12 22 -22 31 -22 9 0 34 -15 57 -34 23
-18 79 -59 125 -90 94 -63 140 -100 206 -163 24 -24 48 -43 52 -43 4 0 28 -14
52 -30 24 -17 52 -30 61 -30 23 0 72 -72 64 -94 -4 -9 0 -24 8 -34 8 -9 27
-53 42 -97 15 -44 34 -93 41 -110 19 -45 43 -125 51 -170 4 -22 11 -46 17 -53
6 -8 14 -35 18 -60 4 -26 16 -72 28 -101 11 -30 25 -78 31 -105 5 -28 19 -82
30 -121 10 -38 20 -81 20 -95 0 -14 7 -34 15 -44 8 -11 15 -32 15 -48 0 -24 4
-28 30 -28 17 0 30 5 30 12 0 11 -14 73 -42 188 -37 152 -140 509 -170 590
-11 30 -27 73 -35 95 -24 63 -53 124 -64 130 -14 9 -11 55 5 55 7 0 29 -12 49
-27 45 -35 239 -157 286 -180 8 -3 37 -21 65 -40 28 -18 57 -33 64 -33 8 0 27
-9 42 -20 16 -11 47 -27 70 -35 22 -8 51 -21 63 -30 12 -8 37 -15 55 -15 32 0
118 -35 242 -99 30 -16 66 -32 80 -36 14 -4 38 -18 53 -31 16 -13 36 -24 44
-24 9 0 37 -13 63 -29 27 -16 68 -39 93 -50 25 -12 49 -25 52 -31 3 -5 13 -10
22 -10 9 0 44 -13 77 -28 34 -16 73 -34 88 -40 18 -7 26 -17 22 -26 -5 -12 1
-14 31 -9 27 4 43 1 63 -14 15 -11 45 -26 67 -33 22 -7 49 -18 60 -25 11 -6
38 -18 60 -25 36 -12 89 -35 137 -61 10 -5 26 -9 35 -9 10 0 31 -7 48 -16 16
-8 44 -17 61 -18 42 -4 50 -11 57 -46 l7 -30 90 0 c71 0 90 3 90 14 0 27 -31
48 -61 42 -16 -3 -31 -1 -34 4 -3 6 -15 10 -25 10 -11 0 -24 9 -30 20 -7 14
-21 20 -43 20 -18 0 -42 7 -53 15 -10 8 -28 15 -38 15 -11 0 -61 20 -111 45
-51 25 -107 48 -126 52 -18 3 -51 17 -73 29 -23 13 -47 24 -55 24 -8 0 -22 6
-30 14 -9 7 -41 21 -71 32 -30 10 -62 24 -71 31 -8 7 -21 13 -29 13 -7 0 -46
20 -88 45 -41 25 -79 45 -84 45 -6 0 -21 9 -35 20 -14 11 -34 20 -44 20 -9 0
-30 11 -46 23 -15 13 -53 32 -83 43 -30 10 -73 31 -95 45 -22 14 -56 32 -75
39 -19 7 -73 31 -120 53 -47 22 -105 48 -130 57 -120 47 -206 83 -214 91 -6 5
-18 9 -27 9 -10 0 -30 11 -46 24 -15 13 -48 33 -73 45 -25 12 -63 33 -85 46
-22 14 -56 34 -75 45 -19 11 -48 29 -65 40 -33 22 -72 40 -85 40 -4 0 -15 11
-24 24 -8 14 -24 27 -35 31 -10 3 -21 18 -25 35 -5 27 -9 30 -42 30 -35 0 -70
20 -125 70 -35 31 -377 280 -386 280 -3 0 -13 7 -22 15 -31 29 -145 108 -180
124 -45 20 -255 160 -298 198 -17 15 -59 51 -92 78 -33 28 -61 55 -61 60 0 6
-19 25 -41 44 l-40 33 3 -61z"/>
<path d="M1338 1943 c-20 -5 -23 -18 -7 -28 16 -10 61 4 56 18 -4 13 -23 17
-49 10z"/>
<path d="M754 1775 c-4 -8 -15 -15 -25 -15 -10 0 -19 -4 -19 -10 0 -5 9 -10
20 -10 11 0 20 4 20 9 0 5 12 11 27 13 14 2 28 9 31 16 6 18 -47 15 -54 -3z"/>
<path d="M2310 1780 c0 -5 10 -10 23 -10 18 0 19 2 7 10 -19 13 -30 13 -30 0z"/>
<path d="M1965 1750 c-8 -13 20 -24 41 -16 8 3 12 10 9 16 -8 13 -42 13 -50 0z"/>
<path d="M200 1694 c-13 -33 -13 -41 1 -50 15 -9 29 14 29 49 0 34 -17 35 -30
1z"/>
<path d="M2052 1708 c3 -7 15 -15 27 -16 16 -3 22 1 19 10 -3 7 -15 15 -27 16
-16 3 -22 -1 -19 -10z"/>
<path d="M2140 1660 c0 -12 48 -25 58 -16 8 9 -18 26 -40 26 -10 0 -18 -4 -18
-10z"/>
<path d="M2210 1630 c0 -5 15 -10 33 -10 24 0 28 3 17 10 -20 13 -50 13 -50 0z"/>
<path d="M473 1574 c-3 -8 -1 -20 5 -26 6 -6 8 -25 5 -43 -4 -26 -1 -35 15
-44 12 -6 22 -25 26 -51 3 -22 10 -40 15 -40 14 0 21 -42 10 -62 -7 -13 -7
-23 -1 -31 6 -7 18 -54 28 -106 14 -72 15 -96 6 -99 -14 -4 -16 -42 -2 -42 6
0 10 9 10 20 0 11 5 20 11 20 9 0 10 -20 6 -67 -4 -36 -3 -71 2 -77 5 -6 12
-92 15 -191 8 -247 16 -379 25 -387 4 -4 2 -40 -3 -79 -10 -68 -9 -72 12 -89
12 -10 22 -27 22 -38 0 -13 10 -24 30 -31 17 -5 30 -17 30 -26 0 -21 24 -14
28 8 2 11 -3 17 -14 17 -14 0 -16 7 -11 42 7 49 -6 78 -33 78 -16 0 -20 7 -20
35 0 29 4 35 20 35 11 0 23 7 26 15 14 35 22 8 26 -89 3 -58 9 -111 15 -118 6
-7 14 -34 17 -60 6 -42 10 -48 32 -48 21 0 24 4 24 40 0 23 -6 53 -14 68 -16
31 -29 124 -51 347 -9 88 -23 193 -31 233 -7 40 -14 86 -14 102 0 17 -4 38
-10 48 -10 17 -34 111 -50 192 -4 25 -13 58 -19 74 -14 36 -50 185 -60 248 -4
25 -12 52 -18 60 -6 7 -16 33 -23 57 -13 49 -55 121 -70 121 -6 0 -13 -7 -17
-16z m194 -741 c-3 -10 -5 -2 -5 17 0 19 2 27 5 18 2 -10 2 -26 0 -35z m28
-148 c10 -49 22 -92 25 -95 10 -8 19 -191 10 -220 -11 -38 -18 -8 -23 104 -4
83 -8 102 -23 113 -16 12 -19 28 -20 114 -1 115 6 111 31 -16z"/>
<path d="M2418 1563 c12 -2 30 -2 40 0 9 3 -1 5 -23 4 -22 0 -30 -2 -17 -4z"/>
<path d="M147 1546 c-7 -16 1 -26 20 -26 7 0 13 9 13 20 0 23 -25 27 -33 6z"/>
<path d="M7576 1485 c-3 -9 1 -18 9 -21 18 -7 47 14 39 27 -9 15 -41 10 -48
-6z"/>
<path d="M7194 1437 c-8 -22 -1 -30 21 -25 14 3 14 5 1 23 -14 19 -15 19 -22
2z"/>
<path d="M7495 1416 c-14 -14 -31 -26 -36 -26 -6 0 -25 -14 -42 -31 -17 -18
-46 -38 -64 -45 -17 -8 -36 -19 -40 -26 -12 -19 -90 -78 -102 -78 -6 0 -11 -4
-11 -9 0 -4 -25 -28 -56 -52 -31 -24 -64 -51 -73 -59 -9 -9 -36 -29 -61 -45
-25 -16 -63 -48 -85 -70 -22 -22 -59 -52 -82 -67 -24 -15 -48 -39 -55 -52 -6
-14 -22 -28 -37 -31 -14 -3 -43 -20 -63 -38 -48 -42 -98 -72 -133 -81 -16 -4
-40 -15 -54 -25 -14 -10 -36 -21 -48 -25 -11 -4 -27 -13 -33 -21 -7 -8 -20
-15 -30 -15 -9 0 -27 -9 -40 -20 -13 -11 -29 -20 -35 -20 -7 0 -15 -7 -19 -15
-3 -8 -16 -15 -30 -15 -13 0 -26 -5 -28 -12 -4 -12 -78 -53 -265 -148 -57 -29
-103 -56 -103 -61 0 -5 15 -9 34 -9 25 0 44 9 68 30 22 20 43 30 65 30 21 0
41 9 57 25 17 17 36 25 58 25 26 0 39 8 61 35 23 29 34 35 67 35 22 0 40 4 40
9 0 15 63 71 79 71 8 0 24 9 36 20 12 11 48 30 81 41 32 11 68 29 79 39 11 10
31 23 45 29 14 6 32 15 40 20 20 13 52 24 70 25 8 1 23 18 33 39 11 22 26 37
36 37 37 0 78 22 95 50 9 17 39 42 66 55 59 30 120 82 120 101 0 8 12 19 27
25 14 5 53 37 85 69 32 33 64 60 71 60 6 0 39 25 72 56 32 30 71 60 84 67 14
7 31 23 37 36 7 13 27 30 44 37 21 9 30 19 28 31 -5 27 -26 26 -53 -1z"/>
<path d="M2921 1415 c8 -7 78 -9 85 -2 4 4 -14 7 -41 7 -27 0 -46 -2 -44 -5z"/>
<path d="M3120 1410 c0 -5 6 -10 14 -10 8 0 18 5 21 10 3 6 -3 10 -14 10 -12
0 -21 -4 -21 -10z"/>
<path d="M506 1344 c-4 -10 -2 -22 3 -27 7 -7 13 -5 17 7 4 10 2 22 -3 27 -7
7 -13 5 -17 -7z"/>
<path d="M95 1329 c-4 -6 -4 -13 -1 -16 8 -8 36 5 36 17 0 13 -27 13 -35 -1z"/>
<path d="M7080 1300 c0 -5 12 -10 26 -10 14 0 23 4 19 10 -3 6 -15 10 -26 10
-10 0 -19 -4 -19 -10z"/>
<path d="M7015 1260 c3 -5 13 -10 21 -10 8 0 14 5 14 10 0 6 -9 10 -21 10 -11
0 -17 -4 -14 -10z"/>
<path d="M8977 1253 c-4 -3 -7 -14 -7 -24 0 -9 -7 -30 -15 -45 -17 -33 -20
-110 -4 -119 6 -5 4 -12 -8 -20 -17 -13 -17 -14 0 -32 9 -11 17 -29 17 -40 0
-42 13 -83 26 -83 11 0 14 35 14 185 0 169 -4 198 -23 178z"/>
<path d="M4026 1211 c-7 -10 -97 -41 -120 -41 -9 0 -16 -7 -16 -15 0 -17 25
-20 35 -5 3 6 15 10 26 10 37 0 119 32 119 46 0 15 -36 19 -44 5z"/>
<path d="M952 1176 c1 -10 8 -17 13 -17 15 1 12 24 -3 29 -9 3 -13 -2 -10 -12z"/>
<path d="M2090 1161 c-28 -19 4 -43 95 -73 49 -15 95 -28 104 -28 8 0 37 -13
65 -29 44 -24 57 -27 101 -22 28 4 60 13 72 19 12 7 48 12 80 13 32 0 67 4 78
9 19 7 19 8 2 15 -9 4 -54 9 -100 11 -144 5 -271 21 -307 37 -37 16 -122 45
-155 53 -11 2 -27 0 -35 -5z m385 -101 c15 -6 8 -9 -27 -9 -27 -1 -48 4 -48 9
0 12 47 12 75 0z"/>
<path d="M3354 1121 c-15 -15 13 -18 150 -20 148 -1 186 2 186 19 0 8 -328 9
-336 1z"/>
<path d="M5022 1121 c-11 -7 -11 -9 1 -14 16 -6 27 0 27 15 0 10 -11 10 -28
-1z"/>
<path d="M44 1107 c-8 -21 2 -35 16 -21 5 5 6 15 0 24 -8 12 -10 12 -16 -3z"/>
<path d="M2825 1073 c-34 -8 -41 -23 -12 -24 15 -1 33 -2 40 -3 14 -1 17 26 2
29 -5 2 -19 0 -30 -2z"/>
<path d="M2937 1073 c-15 -14 -5 -23 27 -23 18 0 39 7 46 15 11 13 7 15 -27
15 -22 0 -43 -3 -46 -7z"/>
<path d="M1100 1039 c0 -38 40 -123 52 -111 5 5 8 38 6 73 -3 62 -4 64 -30 67
-25 3 -28 0 -28 -29z"/>
<path d="M3050 1031 c0 -11 30 -19 48 -14 6 3 10 9 6 14 -7 12 -54 12 -54 0z"/>
<path d="M2808 993 c12 -2 32 -2 45 0 12 2 2 4 -23 4 -25 0 -35 -2 -22 -4z"/>
<path d="M1224 856 c-8 -22 3 -33 18 -18 9 9 9 15 0 24 -9 9 -13 7 -18 -6z"/>
<path d="M1185 803 c4 -10 10 -41 14 -70 8 -54 26 -87 43 -77 15 9 3 92 -16
113 -9 10 -16 25 -16 34 0 9 -7 17 -16 17 -11 0 -14 -5 -9 -17z"/>
<path d="M7920 776 c0 -8 5 -18 10 -21 6 -3 10 3 10 14 0 12 -4 21 -10 21 -5
0 -10 -6 -10 -14z"/>
<path d="M8131 741 c-16 -10 -6 -31 15 -31 8 0 14 9 14 20 0 22 -7 25 -29 11z"/>
<path d="M7245 711 c-7 -12 12 -24 25 -16 11 7 4 25 -10 25 -5 0 -11 -4 -15
-9z"/>
<path d="M6670 665 c-7 -8 -19 -15 -26 -15 -8 0 -14 -7 -14 -15 0 -24 57 -19
70 5 18 34 -6 54 -30 25z"/>
<path d="M1321 585 l1 -50 10 38 c7 28 7 42 -1 50 -8 8 -11 -2 -10 -38z"/>
<path d="M1255 597 c-4 -16 -3 -43 2 -60 l10 -32 8 28 c4 16 3 43 -2 60 l-10
32 -8 -28z"/>
<path d="M6536 612 c-13 -12 -5 -22 19 -22 14 0 25 4 25 9 0 10 -36 21 -44 13z"/>
<path d="M7680 579 c0 -5 32 -9 72 -9 39 0 69 2 67 4 -9 8 -139 13 -139 5z"/>
<path d="M2152 563 c2 -11 14 -19 33 -21 30 -4 30 -4 11 17 -23 26 -49 28 -44
4z"/>
<path d="M4040 565 c0 -8 7 -15 15 -15 8 0 15 7 15 15 0 8 -7 15 -15 15 -8 0
-15 -7 -15 -15z"/>
<path d="M6435 540 c-8 -13 14 -42 26 -34 5 3 9 14 9 25 0 20 -24 26 -35 9z"/>
<path d="M2240 511 c0 -11 58 -61 71 -61 19 0 8 20 -24 44 -36 28 -47 32 -47
17z"/>
<path d="M3910 460 c-8 -5 -11 -12 -8 -16 10 -9 58 4 58 16 0 13 -30 13 -50 0z"/>
<path d="M6305 460 c-4 -6 7 -10 25 -10 18 0 29 4 25 10 -3 6 -15 10 -25 10
-10 0 -22 -4 -25 -10z"/>
<path d="M1292 400 c0 -19 2 -27 5 -17 2 9 2 25 0 35 -3 9 -5 1 -5 -18z"/>
<path d="M6193 414 c-3 -8 -1 -20 5 -26 15 -15 43 8 35 28 -7 19 -32 18 -40
-2z"/>
<path d="M3785 410 c-11 -5 -32 -9 -47 -9 -15 -1 -29 -5 -33 -10 -5 -9 104 -3
114 6 11 9 -16 20 -34 13z"/>
<path d="M1346 363 c-8 -36 2 -120 15 -129 10 -6 10 86 0 131 l-7 30 -8 -32z"/>
<path d="M2382 355 c-13 -28 -5 -32 23 -12 10 8 15 19 11 25 -11 18 -22 14
-34 -13z"/>
<path d="M3595 375 c-5 -2 -22 -6 -37 -9 -19 -4 -26 -11 -22 -21 9 -22 35 -18
69 10 27 22 22 31 -10 20z"/>
<path d="M6092 368 c5 -15 67 -18 71 -3 1 6 -15 11 -37 13 -28 3 -37 0 -34
-10z"/>
<path d="M3072 358 c6 -18 25 -20 31 -3 5 10 0 15 -14 15 -12 0 -19 -5 -17
-12z"/>
<path d="M3356 342 c-7 -13 10 -26 53 -41 41 -13 61 -14 61 -2 0 25 -101 63
-114 43z"/>
<path d="M5795 292 c-11 -4 -37 -19 -56 -34 -20 -16 -41 -28 -47 -28 -7 0 -22
-10 -34 -22 -12 -13 -40 -28 -62 -33 -55 -15 -59 -35 -6 -35 33 0 43 4 47 20
6 21 15 25 85 35 37 5 52 13 68 35 11 16 30 30 43 32 31 4 36 38 5 37 -13 -1
-32 -4 -43 -7z"/>
<path d="M5960 280 c0 -13 5 -20 13 -17 6 2 12 10 12 17 0 7 -6 15 -12 18 -8
2 -13 -5 -13 -18z"/>
<path d="M5890 241 c0 -18 26 -31 38 -19 19 19 14 28 -13 28 -14 0 -25 -4 -25
-9z"/>
<path d="M2880 185 c0 -9 5 -15 11 -13 6 2 11 8 11 13 0 5 -5 11 -11 13 -6 2
-11 -4 -11 -13z"/>
<path d="M5810 169 c0 -25 33 -22 38 4 2 12 -3 17 -17 17 -15 0 -21 -6 -21
-21z"/>
<path d="M5440 119 c-19 -10 -44 -19 -55 -19 -11 0 -29 -7 -39 -15 -11 -8 -30
-15 -42 -15 -12 0 -27 -7 -34 -15 -7 -9 -21 -13 -31 -10 -23 8 -59 -11 -59
-30 0 -12 14 -15 63 -15 51 0 68 4 82 20 10 11 24 20 31 20 7 0 36 12 64 27
29 15 67 26 86 26 35 -1 44 13 22 35 -17 17 -47 14 -88 -9z"/>
<path d="M1404 108 c3 -13 6 -31 6 -40 0 -24 17 -23 30 3 9 16 8 25 -6 40 -23
26 -38 24 -30 -3z"/>
<path d="M5645 120 c8 -13 65 -13 85 0 11 7 0 10 -38 10 -33 0 -51 -4 -47 -10z"/>
<path d="M224 99 c-12 -19 13 -32 50 -25 41 8 47 21 14 30 -34 9 -56 7 -64 -5z"/>
<path d="M5879 99 c-9 -6 2 -9 32 -9 26 0 61 -3 79 -7 23 -4 32 -3 29 6 -5 15
-120 23 -140 10z"/>
<path d="M90 90 c0 -5 9 -10 20 -10 11 0 20 5 20 10 0 6 -9 10 -20 10 -11 0
-20 -4 -20 -10z"/>
<path d="M5470 10 c-12 -8 -9 -10 13 -10 16 0 26 4 22 10 -8 12 -16 12 -35 0z"/>
</g>
</svg>
